<svg id="allezone_2" data-name="allezone 2" xmlns="http://www.w3.org/2000/svg" width="203" height="203" viewBox="0 0 203 203">
  <circle id="Ellipse_31" data-name="Ellipse 31" cx="101.5" cy="101.5" r="101.5" fill="#a9cb6b"/>
  <path id="Path_648" data-name="Path 648" d="M99.689,60.294l-4.5,3.069.795,2.937-1.954,1.336L90.62,53.808l1.827-1.248,11.631,8.2-1.96,1.341Zm-1.656-1.231L93.1,55.436h0l1.551,5.923Z" transform="translate(-40.598 -23.547)" fill="#4b5631"/>
  <path id="Path_649" data-name="Path 649" d="M109.78,42.384l2.059-.944,4.686,10.273,5.614-2.572.85,1.849-7.678,3.516Z" transform="translate(-49.182 -18.565)" fill="#4b5631"/>
  <path id="Path_650" data-name="Path 650" d="M132.73,33.1l2.175-.618,3.08,10.869,5.934-1.684.552,1.954-8.12,2.3Z" transform="translate(-59.463 -14.551)" fill="#4b5631"/>
  <path id="Path_651" data-name="Path 651" d="M156.93,26.814l8.319-.994.243,2.02-6.072.723.436,3.649,4.913-.585.243,2.026-4.913.58.42,3.533L166.987,37l.237,2.02-8.716,1.038Z" transform="translate(-70.305 -11.567)" fill="#4b5631"/>
  <path id="Path_652" data-name="Path 652" d="M190.579,37.077l-.088,2.031-9.561-.414.077-1.777,6.972-9.191v-.039l-6.26-.27.088-2.037,9.24.4-.077,1.75-7.077,9.229h0Z" transform="translate(-81.057 -11.37)" fill="#4b5631"/>
  <path id="Path_653" data-name="Path 653" d="M207.635,41.456a5.989,5.989,0,0,1-1.761-1.86,6.354,6.354,0,0,1-.856-2.412,7.3,7.3,0,0,1,.127-2.76,7.452,7.452,0,0,1,1.1-2.534,6.585,6.585,0,0,1,1.827-1.8,6.381,6.381,0,0,1,2.4-.905,7.32,7.32,0,0,1,2.76.116,7.231,7.231,0,0,1,2.5,1.1,6.514,6.514,0,0,1,1.772,1.816,6.31,6.31,0,0,1,.878,2.423,7.938,7.938,0,0,1-1.242,5.41A6.044,6.044,0,0,1,212.9,42.7a6.988,6.988,0,0,1-2.721-.1A7.115,7.115,0,0,1,207.635,41.456Zm4.786-.9a3.98,3.98,0,0,0,1.562-.635,4.648,4.648,0,0,0,1.231-1.248,5.062,5.062,0,0,0,.751-1.755A5.243,5.243,0,0,0,216.058,35a4.676,4.676,0,0,0-.552-1.656,4.09,4.09,0,0,0-1.148-1.253,4.361,4.361,0,0,0-1.6-.723,4.273,4.273,0,0,0-1.811-.044,4.123,4.123,0,0,0-1.579.662,4.581,4.581,0,0,0-1.2,1.253,5.249,5.249,0,0,0-.734,1.717,5.144,5.144,0,0,0-.088,1.855,4.692,4.692,0,0,0,.552,1.656,4.019,4.019,0,0,0,1.132,1.281,4.416,4.416,0,0,0,3.411.795Z" transform="translate(-91.814 -13.039)" fill="#4b5631"/>
  <path id="Path_654" data-name="Path 654" d="M247.827,40.946l-5.592,12.1-2.1-.972-1.9-11.261h-.033l-3.952,8.556L232.2,48.42l5.592-12.1,2.026.927,1.893,11.41h.039l4.024-8.65Z" transform="translate(-104.025 -16.271)" fill="#4b5631"/>
  <path id="Path_655" data-name="Path 655" d="M264.374,50.8l6.839,4.83-1.17,1.656-5.007-3.527-2.1,3.014,4.046,2.848L265.8,61.277l-4.046-2.848-2.042,2.909,5.327,3.748-1.176,1.656-7.176-5.056Z" transform="translate(-114.997 -22.758)" fill="#4b5631"/>
  <path id="Path_656" data-name="Path 656" d="M102.578,317.807l-2.379-1.628a1.336,1.336,0,0,0-.149.938,1.187,1.187,0,0,0,.513.745,1.23,1.23,0,0,0,.552.221,1.43,1.43,0,0,0,.591-.055l.144.552a1.755,1.755,0,0,1-.828.083,1.894,1.894,0,0,1-.834-.337,1.86,1.86,0,0,1-.552-.552,1.7,1.7,0,0,1-.265-.668,1.783,1.783,0,0,1,.033-.74,2.34,2.34,0,0,1,.331-.745,2.275,2.275,0,0,1,.552-.58,1.861,1.861,0,0,1,.668-.3,1.557,1.557,0,0,1,.7,0,1.772,1.772,0,0,1,1.281,1,1.656,1.656,0,0,1,.121.911,2.147,2.147,0,0,1-.381.933A1.733,1.733,0,0,1,102.578,317.807Zm-1.292-2.467a1.336,1.336,0,0,0-.773.4l1.871,1.281a1.341,1.341,0,0,0,.132-.834,1,1,0,0,0-.442-.651A1.1,1.1,0,0,0,101.286,315.34Z" transform="translate(-44.507 -140.985)" fill="#4b5631"/>
  <path id="Path_657" data-name="Path 657" d="M109.538,319.889a1.772,1.772,0,0,1-.32,1.225l-1.187,1.965-.552-.32,1.1-1.816a2.292,2.292,0,0,0,.243-.524.933.933,0,0,0,.028-.42.728.728,0,0,0-.138-.32,1.01,1.01,0,0,0-.293-.248,1.043,1.043,0,0,0-.922-.121,1.529,1.529,0,0,0-.806.707l-.994,1.656-.552-.32,1.993-3.312.552.32-.342.552h0a1.579,1.579,0,0,1,.773-.155,1.7,1.7,0,0,1,.762.248A1.264,1.264,0,0,1,109.538,319.889Z" transform="translate(-47.107 -142.482)" fill="#4b5631"/>
  <path id="Path_658" data-name="Path 658" d="M117.732,323.4l-3.18,2.7-.552-.282.464-4.134.591.315-.408,3.235h0l2.429-2.164Z" transform="translate(-51.072 -144.113)" fill="#4b5631"/>
  <path id="Path_659" data-name="Path 659" d="M120.756,324.3l.552.265-1.656,3.483-.552-.27Zm.37-.767a.436.436,0,0,1,0-.342.42.42,0,0,1,.254-.232.414.414,0,0,1,.342,0,.42.42,0,0,1,.177.149.5.5,0,0,1,.072.221.469.469,0,0,1-.044.232.458.458,0,0,1-.254.232.453.453,0,0,1-.552-.276Z" transform="translate(-53.357 -144.669)" fill="#4b5631"/>
  <path id="Path_660" data-name="Path 660" d="M125.74,327.62l-.287.651a2.1,2.1,0,0,0-.226-.11,1,1,0,0,0-.624-.088,1.065,1.065,0,0,0-.552.276,1.6,1.6,0,0,0-.4.552l-.756,1.7-.552-.254,1.568-3.527.552.254-.27.613h0a1.552,1.552,0,0,1,.723-.215,1.27,1.27,0,0,1,.707.11Z" transform="translate(-54.808 -146.415)" fill="#4b5631"/>
  <path id="Path_661" data-name="Path 661" d="M128.062,332.946a1.816,1.816,0,0,1-.42-.613,1.843,1.843,0,0,1-.132-.729,2.158,2.158,0,0,1,.149-.773,2.285,2.285,0,0,1,.414-.679,1.789,1.789,0,0,1,1.319-.613,2.032,2.032,0,0,1,.795.149,1.932,1.932,0,0,1,.828.591,1.766,1.766,0,0,1,.392.905,2.147,2.147,0,0,1-.144,1.054,2.12,2.12,0,0,1-.607.867,1.783,1.783,0,0,1-.9.4,1.954,1.954,0,0,1-1.01-.127,2.047,2.047,0,0,1-.684-.436Zm1.573-.044a1.248,1.248,0,0,0,.618-.287,1.518,1.518,0,0,0,.42-.607,1.446,1.446,0,0,0,.1-.74,1.187,1.187,0,0,0-.254-.624,1.286,1.286,0,0,0-.552-.4,1.259,1.259,0,0,0-.707-.077,1.237,1.237,0,0,0-.613.3,1.546,1.546,0,0,0-.5,1.3,1.248,1.248,0,0,0,.243.635,1.3,1.3,0,0,0,.552.425A1.28,1.28,0,0,0,129.635,332.9Z" transform="translate(-57.124 -147.634)" fill="#4b5631"/>
  <path id="Path_662" data-name="Path 662" d="M138.955,333a1.789,1.789,0,0,1-.033,1.264l-.707,2.208-.6-.193.651-2.015a2.208,2.208,0,0,0,.116-.552.972.972,0,0,0-.066-.42.768.768,0,0,0-.21-.282,1.1,1.1,0,0,0-.342-.171,1.065,1.065,0,0,0-.927.088,1.529,1.529,0,0,0-.618.872l-.6,1.838-.6-.193,1.192-3.676.6.188-.2.635h0a1.574,1.574,0,0,1,.718-.326,1.706,1.706,0,0,1,.795.066A1.248,1.248,0,0,1,138.955,333Z" transform="translate(-60.494 -148.633)" fill="#4b5631"/>
  <path id="Path_663" data-name="Path 663" d="M149.237,335.854a1.916,1.916,0,0,1,0,1.286l-.552,2.208-.607-.149.5-2.031a1.656,1.656,0,0,0,0-.96.767.767,0,0,0-.552-.442.916.916,0,0,0-.822.193,1.6,1.6,0,0,0-.552.916l-.458,1.86-.6-.144.5-2.037a2.06,2.06,0,0,0,.066-.7.773.773,0,0,0-.193-.464.911.911,0,0,0-.447-.237.961.961,0,0,0-.845.182,1.557,1.557,0,0,0-.552.922l-.458,1.86-.6-.149.922-3.748.6.149-.155.635h0a1.656,1.656,0,0,1,.673-.375,1.529,1.529,0,0,1,.723,0,1.159,1.159,0,0,1,.972,1.016h0a1.6,1.6,0,0,1,1.5-.4A1.22,1.22,0,0,1,149.237,335.854Z" transform="translate(-64.091 -149.731)" fill="#4b5631"/>
  <path id="Path_664" data-name="Path 664" d="M159.333,339.781l-2.843-.48a1.336,1.336,0,0,0,.254.916,1.181,1.181,0,0,0,.778.464,1.281,1.281,0,0,0,.618-.044,1.324,1.324,0,0,0,.513-.293l.364.453a1.783,1.783,0,0,1-.712.414,1.9,1.9,0,0,1-.905.05,1.805,1.805,0,0,1-.7-.27,1.767,1.767,0,0,1-.519-.491,1.849,1.849,0,0,1-.282-.684,2.286,2.286,0,0,1,0-.822,2.351,2.351,0,0,1,.27-.767,1.877,1.877,0,0,1,.48-.552,1.656,1.656,0,0,1,.629-.3,1.689,1.689,0,0,1,2.076,1.148,2.125,2.125,0,0,1,.044,1.01A1.43,1.43,0,0,1,159.333,339.781Zm-2.208-1.7a1.325,1.325,0,0,0-.552.7l2.236.375a1.347,1.347,0,0,0-.226-.817,1.027,1.027,0,0,0-.673-.4,1.1,1.1,0,0,0-.778.149Z" transform="translate(-69.826 -151.113)" fill="#4b5631"/>
  <path id="Path_665" data-name="Path 665" d="M167.036,338.933a1.777,1.777,0,0,1,.221,1.247l-.254,2.28-.624-.072.237-2.1a2.207,2.207,0,0,0,0-.552.966.966,0,0,0-.149-.4.745.745,0,0,0-.259-.232,1.043,1.043,0,0,0-.364-.1,1.1,1.1,0,0,0-.894.276,1.534,1.534,0,0,0-.436.971l-.215,1.921-.618-.072.431-3.836.624.066-.077.662h0a1.656,1.656,0,0,1,.646-.464,1.794,1.794,0,0,1,.789-.094,1.247,1.247,0,0,1,.944.5Z" transform="translate(-73.329 -151.541)" fill="#4b5631"/>
  <path id="Path_666" data-name="Path 666" d="M172.057,340.712l.144-2.153-.48-.033.039-.552.48.033.088-1.319.629-.028-.094,1.391,1.236.083-.039.552-1.236-.088-.138,2.059a1.01,1.01,0,0,0,.066.552.381.381,0,0,0,.342.193,1.287,1.287,0,0,0,.646-.155l.127.552a2.1,2.1,0,0,1-.237.1,1.362,1.362,0,0,1-.293.066,2.287,2.287,0,0,1-.392,0C172.294,341.91,172,341.49,172.057,340.712Z" transform="translate(-76.931 -150.824)" fill="#4b5631"/>
  <path id="Path_667" data-name="Path 667" d="M177.418,338.3h-.458v-.552h.458v-.784a1.358,1.358,0,0,1,.3-.922.977.977,0,0,1,.789-.293,1.612,1.612,0,0,1,.861.276l-.155.552a1.474,1.474,0,0,0-.651-.215c-.342,0-.519.215-.552.69l-.028.718,1.065.039v.552l-1.06-.039-.116,3.312h-.618Z" transform="translate(-79.278 -150.413)" fill="#4b5631"/>
  <path id="Path_668" data-name="Path 668" d="M182.8,343.184a1.755,1.755,0,0,1-.618-.408,1.955,1.955,0,0,1-.4-.629,2.208,2.208,0,0,1-.149-.773,2.29,2.29,0,0,1,.132-.784,1.882,1.882,0,0,1,.386-.635,1.8,1.8,0,0,1,.607-.425,2.1,2.1,0,0,1,.795-.16,2,2,0,0,1,.994.237,1.843,1.843,0,0,1,.7.7,2.208,2.208,0,0,1,.259,1.032,2.109,2.109,0,0,1-.237,1.032,1.755,1.755,0,0,1-.684.707,2.086,2.086,0,0,1-1.783.11Zm1.441-.624a1.259,1.259,0,0,0,.464-.5,1.429,1.429,0,0,0,.166-.723,1.452,1.452,0,0,0-.182-.723,1.231,1.231,0,0,0-1.1-.651,1.3,1.3,0,0,0-.684.188,1.275,1.275,0,0,0-.453.513,1.568,1.568,0,0,0,0,1.391,1.214,1.214,0,0,0,.469.5,1.243,1.243,0,0,0,.684.177,1.27,1.27,0,0,0,.64-.177Z" transform="translate(-81.37 -152.037)" fill="#4b5631"/>
  <path id="Path_669" data-name="Path 669" d="M192.3,339.05l.039.707h-.248a1.072,1.072,0,0,0-.966.707,1.657,1.657,0,0,0-.094.7l.1,1.86-.624.033-.221-3.864.624-.033.039.668h0a1.657,1.657,0,0,1,.5-.552,1.308,1.308,0,0,1,.679-.221Z" transform="translate(-85.25 -151.894)" fill="#4b5631"/>
  <path id="Path_670" data-name="Path 670" d="M195.05,335.365l.618-.055.5,5.824-.6.077Z" transform="translate(-87.382 -150.219)" fill="#4b5631"/>
  <path id="Path_671" data-name="Path 671" d="M202.21,340.2l-2.854.359a1.319,1.319,0,0,0,.5.8,1.281,1.281,0,0,0,1.463,0,1.414,1.414,0,0,0,.4-.425l.48.326a1.794,1.794,0,0,1-.552.607,1.932,1.932,0,0,1-.85.3,1.766,1.766,0,0,1-1.855-.955,2.346,2.346,0,0,1-.2-1.6,1.888,1.888,0,0,1,.3-.668,1.656,1.656,0,0,1,.513-.469,1.744,1.744,0,0,1,.684-.237,1.679,1.679,0,0,1,1.634.734,2.208,2.208,0,0,1,.337.955A1.5,1.5,0,0,1,202.21,340.2Zm-2.6-.994a1.314,1.314,0,0,0-.309.817l2.247-.282a1.336,1.336,0,0,0-.453-.718,1.038,1.038,0,0,0-.762-.193A1.1,1.1,0,0,0,199.61,339.206Z" transform="translate(-89.011 -151.527)" fill="#4b5631"/>
  <path id="Path_672" data-name="Path 672" d="M209.853,336.57l.679,3.8-.585.1-.11-.6h0a1.611,1.611,0,0,1-.469.58,1.584,1.584,0,0,1-.707.309,1.827,1.827,0,0,1-.734,0,1.656,1.656,0,0,1-.64-.282,1.744,1.744,0,0,1-.5-.552,2.208,2.208,0,0,1-.282-.762,2.158,2.158,0,0,1,.055-1.049,1.75,1.75,0,0,1,1.4-1.248,1.656,1.656,0,0,1,.74.028,1.48,1.48,0,0,1,.635.353h0l-.1-.552Zm-.789,3.417a1.281,1.281,0,0,0,.348-.342,1.264,1.264,0,0,0,.193-.475,1.606,1.606,0,0,0,0-.552,1.557,1.557,0,0,0-.188-.552,1.413,1.413,0,0,0-.342-.4,1.2,1.2,0,0,0-1.772.3,1.4,1.4,0,0,0-.177,1.071,1.363,1.363,0,0,0,.513.9,1.165,1.165,0,0,0,.966.221,1.2,1.2,0,0,0,.458-.177Z" transform="translate(-92.498 -150.783)" fill="#4b5631"/>
  <path id="Path_673" data-name="Path 673" d="M216.486,335.25l.16.69a1.108,1.108,0,0,0-.248.044,1.065,1.065,0,0,0-.552.3,1.1,1.1,0,0,0-.282.552,1.811,1.811,0,0,0,0,.707l.42,1.816-.607.138-.867-3.765.613-.144.149.657h0a1.617,1.617,0,0,1,.4-.64,1.3,1.3,0,0,1,.635-.331Z" transform="translate(-96.101 -150.192)" fill="#4b5631"/>
  <path id="Path_674" data-name="Path 674" d="M222.381,334.037a1.8,1.8,0,0,1,.668,1.071l.613,2.208-.607.166-.552-2.037a2.164,2.164,0,0,0-.21-.552.977.977,0,0,0-.287-.309.756.756,0,0,0-.331-.121,1.027,1.027,0,0,0-.375.044,1.065,1.065,0,0,0-.729.585,1.507,1.507,0,0,0-.039,1.065l.513,1.86-.6.166-1.043-3.7.607-.166.177.64h0a1.545,1.545,0,0,1,.425-.668,1.656,1.656,0,0,1,.7-.386A1.264,1.264,0,0,1,222.381,334.037Z" transform="translate(-98.291 -149.559)" fill="#4b5631"/>
  <path id="Path_675" data-name="Path 675" d="M226.577,330.595a.469.469,0,0,1-.193-.607.414.414,0,0,1,.259-.221.419.419,0,0,1,.232,0,.491.491,0,0,1,.2.11.475.475,0,0,1,.127.2.436.436,0,0,1,0,.342.4.4,0,0,1-.259.221.414.414,0,0,1-.37-.044Zm.259.811.591-.193,1.181,3.682-.6.188Z" transform="translate(-101.4 -147.728)" fill="#4b5631"/>
  <path id="Path_676" data-name="Path 676" d="M233.371,330.4a1.75,1.75,0,0,1,.751,1.016l.778,2.153-.585.215L233.6,331.8a2.467,2.467,0,0,0-.254-.513.933.933,0,0,0-.309-.287.757.757,0,0,0-.337-.094.944.944,0,0,0-.375.072,1.065,1.065,0,0,0-.679.635,1.507,1.507,0,0,0,.044,1.071l.657,1.811-.591.215-1.314-3.632.591-.21.226.624h0a1.573,1.573,0,0,1,.37-.7,1.733,1.733,0,0,1,.668-.436,1.248,1.248,0,0,1,1.076.044Z" transform="translate(-103.237 -147.955)" fill="#4b5631"/>
  <path id="Path_677" data-name="Path 677" d="M241.471,326.48l1.4,3.284a2.76,2.76,0,0,1,.2.751,1.728,1.728,0,0,1-.066.679,1.4,1.4,0,0,1-.375.591,2.209,2.209,0,0,1-.718.458,2.837,2.837,0,0,1-1.568.215l-.094-.607a3.024,3.024,0,0,0,.729.028,2.241,2.241,0,0,0,.668-.182,1.552,1.552,0,0,0,.475-.3,1.048,1.048,0,0,0,.276-.381,1.065,1.065,0,0,0,.072-.42,1.307,1.307,0,0,0-.1-.442l-.21-.491h0a1.529,1.529,0,0,1-.938,1.038,1.74,1.74,0,0,1-1.976-.4,2.169,2.169,0,0,1-.442-.668,2.1,2.1,0,0,1-.166-.994,1.728,1.728,0,0,1,.315-.883,1.772,1.772,0,0,1,.74-.591,1.921,1.921,0,0,1,.723-.144,1.617,1.617,0,0,1,.7.171h0l-.21-.491Zm.232,2.953a1.391,1.391,0,0,0-.055-1.016,1.3,1.3,0,0,0-.7-.723,1.225,1.225,0,0,0-.966,0,1.159,1.159,0,0,0-.668.69,1.33,1.33,0,0,0,.05.994,1.656,1.656,0,0,0,.237.392,1.181,1.181,0,0,0,.3.276,1.159,1.159,0,0,0,.353.144,1.1,1.1,0,0,0,.381.033,1.505,1.505,0,0,0,.375-.1,1.17,1.17,0,0,0,.684-.69Z" transform="translate(-106.91 -146.263)" fill="#4b5631"/>
  <path id="Path_678" data-name="Path 678" d="M248.185,331.132a.458.458,0,0,1-.254-.232.447.447,0,0,1,0-.348.442.442,0,0,1,.552-.27.447.447,0,0,1,.254.237.431.431,0,0,1-.033.442.414.414,0,0,1-.171.155A.447.447,0,0,1,248.185,331.132Z" transform="translate(-111.058 -147.957)" fill="#4b5631"/>
  <path id="Path_679" data-name="Path 679" d="M250.855,326.457a1.657,1.657,0,0,1-.911-.32A2.318,2.318,0,0,1,249,324.3a1.689,1.689,0,0,1,.27-.933,1.833,1.833,0,0,1,.745-.668,2.038,2.038,0,0,1,.828-.226,1.777,1.777,0,0,1,.834.149l-.2.552a1.308,1.308,0,0,0-.552-.11,1.435,1.435,0,0,0-.591.16,1.17,1.17,0,0,0-.635.767,1.391,1.391,0,0,0,.144,1.054,1.413,1.413,0,0,0,.773.729,1.187,1.187,0,0,0,.994-.077,1.446,1.446,0,0,0,.48-.392,1.269,1.269,0,0,0,.259-.508l.552.16a1.844,1.844,0,0,1-.364.718,2.209,2.209,0,0,1-.712.552A1.772,1.772,0,0,1,250.855,326.457Z" transform="translate(-111.552 -144.468)" fill="#4b5631"/>
  <path id="Path_680" data-name="Path 680" d="M257.725,322.756a1.739,1.739,0,0,1-.74-.05,1.822,1.822,0,0,1-.651-.348,2.07,2.07,0,0,1-.513-.6,2.12,2.12,0,0,1-.27-.751,1.849,1.849,0,0,1,0-.74,1.8,1.8,0,0,1,.32-.673,2.025,2.025,0,0,1,.607-.552,1.943,1.943,0,0,1,.977-.287,1.789,1.789,0,0,1,.955.259,2.269,2.269,0,0,1,1.038,1.777,1.838,1.838,0,0,1-.243.955,2.076,2.076,0,0,1-1.5.983Zm.944-1.259a1.237,1.237,0,0,0,.155-.662,1.59,1.59,0,0,0-.723-1.247,1.232,1.232,0,0,0-.662-.144,1.347,1.347,0,0,0-1.154.685,1.231,1.231,0,0,0-.144.673,1.44,1.44,0,0,0,.215.684,1.479,1.479,0,0,0,.491.519,1.259,1.259,0,0,0,1.33,0,1.292,1.292,0,0,0,.491-.491Z" transform="translate(-114.47 -142.804)" fill="#4b5631"/>
  <path id="Path_681" data-name="Path 681" d="M266.549,311.758a1.938,1.938,0,0,1,.971.839l1.281,1.871-.513.353-1.181-1.728a1.689,1.689,0,0,0-.7-.657.762.762,0,0,0-.718.132.911.911,0,0,0-.4.74,1.59,1.59,0,0,0,.326,1.016l1.1,1.584-.513.348-1.187-1.733a2.1,2.1,0,0,0-.475-.519.828.828,0,0,0-.475-.166,1.01,1.01,0,0,0-.905.933,1.584,1.584,0,0,0,.32,1.016l1.1,1.584-.513.353-2.18-3.2.513-.348.375.552h0a1.657,1.657,0,0,1,.171-.745,1.474,1.474,0,0,1,.475-.552,1.148,1.148,0,0,1,1.4-.044h0a1.6,1.6,0,0,1,.7-1.391A1.225,1.225,0,0,1,266.549,311.758Z" transform="translate(-117.327 -139.656)" fill="#4b5631"/>
  <path id="Path_682" data-name="Path 682" d="M162.322,249.072a11.669,11.669,0,1,0-16.124,0,15.1,15.1,0,0,0-5.669,6.409,15.175,15.175,0,0,0-5.669-6.409,11.669,11.669,0,1,0-16.124,0,15.1,15.1,0,0,0-5.669,6.409,15.175,15.175,0,0,0-5.669-6.409,11.664,11.664,0,1,0-16.129,0,15.158,15.158,0,0,0-7.1,12.845v4.416a1.435,1.435,0,1,0,2.87,0v-4.416a12.293,12.293,0,0,1,7.43-11.294,1.435,1.435,0,0,0,.193-2.534,8.8,8.8,0,1,1,9.345,0,1.435,1.435,0,0,0,.193,2.534,12.293,12.293,0,0,1,7.43,11.294v4.416a1.435,1.435,0,1,0,2.87,0v-4.416a12.293,12.293,0,0,1,7.43-11.294,1.435,1.435,0,0,0,.193-2.534,8.8,8.8,0,1,1,9.34,0,1.446,1.446,0,0,0-.662,1.33,1.43,1.43,0,0,0,.861,1.2,12.3,12.3,0,0,1,7.43,11.294v4.416a1.435,1.435,0,1,0,2.87,0v-4.416a12.293,12.293,0,0,1,7.43-11.294,1.435,1.435,0,0,0,.193-2.534,8.8,8.8,0,1,1,9.34,0,1.446,1.446,0,0,0-.662,1.33,1.43,1.43,0,0,0,.883,1.2,12.3,12.3,0,0,1,7.43,11.294v4.416a1.435,1.435,0,1,0,2.87,0v-4.416a15.153,15.153,0,0,0-7.126-12.845Z" transform="translate(-37.708 -102.577)" fill="#4b5631"/>
  <path id="Path_683" data-name="Path 683" d="M167.926,267.816a1.5,1.5,0,0,1-1.507-1.5V261.9a12.221,12.221,0,0,0-7.386-11.228,1.5,1.5,0,0,1-.2-2.655,8.733,8.733,0,1,0-9.268,0,1.507,1.507,0,0,1-.2,2.655,12.227,12.227,0,0,0-7.375,11.217V266.3a1.507,1.507,0,0,1-3.008,0v-4.416a12.221,12.221,0,0,0-7.386-11.228,1.5,1.5,0,0,1-.2-2.655,8.733,8.733,0,1,0-9.268,0,1.49,1.49,0,0,1,.7,1.391,1.512,1.512,0,0,1-.9,1.264,12.227,12.227,0,0,0-7.391,11.228V266.3a1.507,1.507,0,0,1-3.008,0v-4.416a12.233,12.233,0,0,0-7.388-11.234,1.5,1.5,0,0,1-.2-2.649,8.733,8.733,0,1,0-9.268,0,1.5,1.5,0,0,1-.2,2.65,12.238,12.238,0,0,0-7.391,11.233V266.3a1.507,1.507,0,0,1-3.008,0v-4.416a15.147,15.147,0,0,1,7.06-12.856,11.592,11.592,0,0,1-3.56-8.4,11.736,11.736,0,0,1,23.471,0,11.592,11.592,0,0,1-3.56,8.4,15.158,15.158,0,0,1,5.559,6.26,15.186,15.186,0,0,1,5.553-6.26,11.592,11.592,0,0,1-3.56-8.4,11.736,11.736,0,0,1,23.471,0,11.592,11.592,0,0,1-3.56,8.4,15.158,15.158,0,0,1,5.559,6.26,15.186,15.186,0,0,1,5.553-6.26,11.592,11.592,0,0,1-3.56-8.4,11.736,11.736,0,0,1,23.471,0,11.592,11.592,0,0,1-3.538,8.4,15.147,15.147,0,0,1,7.06,12.856V266.3a1.5,1.5,0,0,1-1.54,1.512ZM154.193,231.77a8.832,8.832,0,0,1,4.709,16.35,1.369,1.369,0,0,0,.188,2.412,12.359,12.359,0,0,1,7.469,11.355V266.3a1.38,1.38,0,1,0,2.76,0v-4.416a15.009,15.009,0,0,0-7.071-12.79l-.072-.044.061-.061a11.432,11.432,0,0,0,3.582-8.357,11.592,11.592,0,0,0-23.184,0,11.448,11.448,0,0,0,3.582,8.357l.066.061-.077.044a15.1,15.1,0,0,0-5.641,6.381l-.061.132-.066-.132A15.064,15.064,0,0,0,134.8,249.1l-.072-.044.061-.061a11.432,11.432,0,0,0,3.582-8.357,11.592,11.592,0,0,0-23.184,0,11.448,11.448,0,0,0,3.582,8.357l.066.061-.077.044a15.1,15.1,0,0,0-5.641,6.381l-.061.132-.061-.132a15.1,15.1,0,0,0-5.641-6.381l-.077-.044.066-.061a11.443,11.443,0,0,0,3.577-8.357,11.592,11.592,0,0,0-23.184,0,11.448,11.448,0,0,0,3.582,8.357l.066.061-.077.044a15.025,15.025,0,0,0-7.071,12.79V266.3a1.369,1.369,0,0,0,2.732,0v-4.416a12.376,12.376,0,0,1,7.474-11.36,1.352,1.352,0,0,0,.817-1.143,1.369,1.369,0,0,0-.635-1.264,8.865,8.865,0,1,1,9.417,0,1.369,1.369,0,0,0,.188,2.407,12.37,12.37,0,0,1,7.4,11.36V266.3a1.38,1.38,0,1,0,2.76,0v-4.416a12.364,12.364,0,0,1,7.472-11.354,1.369,1.369,0,0,0,.189-2.413,8.871,8.871,0,1,1,9.384,0,1.369,1.369,0,0,0,.188,2.412,12.359,12.359,0,0,1,7.469,11.355V266.3a1.38,1.38,0,1,0,2.76,0v-4.416a12.354,12.354,0,0,1,7.474-11.355,1.374,1.374,0,0,0,.817-1.148,1.352,1.352,0,0,0-.629-1.264,8.832,8.832,0,0,1,4.7-16.35Z" transform="translate(-37.654 -102.547)" fill="#a9cb6b"/>
  <path id="Path_684" data-name="Path 684" d="M199.922,129.9a12.806,12.806,0,0,0,4.085-9.384,12.939,12.939,0,0,0-12.012-12.889v-5a7.215,7.215,0,0,0-7.2-7.176H105.066a7.215,7.215,0,0,0-7.176,7.176v48.78a7.215,7.215,0,0,0,7.176,7.209h77.159l.1,32.518a8.749,8.749,0,0,0,17.5,0V165.046c4.493-.822,6.679-2.258,6.679-4.372v-21.23a10.284,10.284,0,0,0-6.58-9.544Zm-94.856,25.856a4.339,4.339,0,0,1-4.333-4.339v-48.78a4.339,4.339,0,0,1,4.333-4.333h79.725a4.339,4.339,0,0,1,4.333,4.333v5.117a12.878,12.878,0,0,0-7.6,21.451H165.521a6.569,6.569,0,1,0,0,13.132h16.637l.044,13.419Zm93.111,6.652a1.435,1.435,0,0,0-1.225,1.419v27.318a5.879,5.879,0,1,1-11.758,0l-.155-50.232a1.43,1.43,0,0,0-1.43-1.43H165.538a3.7,3.7,0,1,1,0-7.391h20.181a1.435,1.435,0,0,0,.673-2.7,10.068,10.068,0,1,1,9.356,0,1.446,1.446,0,0,0-.723,1.606,1.424,1.424,0,0,0,1.369,1.1,7.4,7.4,0,0,1,7.248,7.358v21.164C203.515,160.89,202.235,161.817,198.177,162.408Z" transform="translate(-43.854 -42.762)" fill="#4b5631"/>
  <path id="Path_685" data-name="Path 685" d="M190.992,199.893a8.832,8.832,0,0,1-8.832-8.832l-.083-32.447H104.985a7.281,7.281,0,0,1-7.275-7.275V102.57a7.281,7.281,0,0,1,7.275-7.27h79.725a7.281,7.281,0,0,1,7.27,7.27V107.5a12.95,12.95,0,0,1,8.01,22.3,10.394,10.394,0,0,1,6.525,9.572v21.23c0,2.153-2.208,3.6-6.685,4.416v26.043A8.832,8.832,0,0,1,190.992,199.893ZM104.985,95.438a7.143,7.143,0,0,0-7.115,7.132v48.78a7.143,7.143,0,0,0,7.137,7.137h77.208v.072l.094,32.518a8.683,8.683,0,0,0,17.36,0V164.918h.061c4.455-.811,6.624-2.208,6.624-4.3V139.377a10.262,10.262,0,0,0-6.536-9.467l-.1-.039.083-.072a12.817,12.817,0,0,0-7.888-22.146h-.066v-5.062a7.137,7.137,0,0,0-7.132-7.132Zm86.007,101.568a5.962,5.962,0,0,1-5.951-5.951l-.149-50.232a1.369,1.369,0,0,0-1.363-1.363H165.457a3.765,3.765,0,0,1,0-7.529h20.181a1.358,1.358,0,0,0,1.325-1.032,1.374,1.374,0,0,0-.684-1.54,10.14,10.14,0,1,1,9.423,0,1.369,1.369,0,0,0,.618,2.578,7.469,7.469,0,0,1,7.314,7.424v21.18h0c-.144.309-1.413,1.242-5.52,1.838h0a1.369,1.369,0,0,0-1.165,1.352V191.05a5.956,5.956,0,0,1-5.956,5.973Zm-25.536-64.932a3.627,3.627,0,0,0,0,7.253h18.072a1.507,1.507,0,0,1,1.5,1.5l.149,50.232a5.813,5.813,0,0,0,11.625,0v-27.3a1.507,1.507,0,0,1,1.286-1.49c4.024-.585,5.266-1.5,5.4-1.744V139.377a7.331,7.331,0,0,0-7.176-7.286,1.5,1.5,0,0,1-1.435-1.154,1.512,1.512,0,0,1,.756-1.684,9.991,9.991,0,1,0-9.29,0,1.507,1.507,0,0,1-.707,2.832ZM182.2,155.755H104.985a4.416,4.416,0,0,1-4.416-4.416V102.57a4.416,4.416,0,0,1,4.416-4.416h79.725a4.416,4.416,0,0,1,4.416,4.416v5.172h-.061a12.878,12.878,0,0,0-10.93,12.7,12.7,12.7,0,0,0,3.378,8.628l.1.116H165.457a6.5,6.5,0,1,0,0,12.994h16.709v.072ZM104.985,98.3a4.272,4.272,0,0,0-4.267,4.267v48.78a4.272,4.272,0,0,0,4.267,4.267h77.081l-.039-13.281h-16.56a6.624,6.624,0,1,1,0-13.248H181.3a12.911,12.911,0,0,1-.127-17.112,13.066,13.066,0,0,1,7.811-4.328v-5.056a4.272,4.272,0,0,0-4.267-4.267Z" transform="translate(-43.774 -42.694)" fill="#a9cb6b"/>
</svg>
