<svg id="feedbackzone_2" data-name="feedbackzone 2" xmlns="http://www.w3.org/2000/svg" width="203" height="203" viewBox="0 0 203 203">
  <circle id="Ellipse_30" data-name="Ellipse 30" cx="101.5" cy="101.5" r="101.5" fill="#bc2631"/>
  <path id="Path_589" data-name="Path 589" d="M51.43,87.961l5.382-6.881,1.6,1.256L54.434,87.43l3.147,2.456L60.9,85.61l1.6,1.256-3.319,4.281,4.176,3.263-1.4,1.787Z" transform="translate(-22.982 -36.232)" fill="#420d11"/>
  <path id="Path_590" data-name="Path 590" d="M68,69.219,74.129,63.5l1.388,1.493-4.5,4.176,2.511,2.7,3.634-3.374,1.388,1.493L74.92,73.362l2.423,2.611,4.785-4.425,1.388,1.493-6.444,5.974Z" transform="translate(-30.387 -28.376)" fill="#420d11"/>
  <path id="Path_591" data-name="Path 591" d="M87.72,52.957l7-4.657L95.823,50l-5.105,3.4,2.041,3.064L96.891,53.7,98,55.4l-4.126,2.766,1.975,2.965,5.476-3.59,1.106,1.693L95.1,64.109Z" transform="translate(-39.199 -21.584)" fill="#420d11"/>
  <path id="Path_592" data-name="Path 592" d="M110.24,40.82l3.9-1.693a7.976,7.976,0,0,1,2.827-.686,5.981,5.981,0,0,1,4.68,1.781,7.832,7.832,0,0,1,2.163,4.978,6.084,6.084,0,0,1-.4,2.467,5.935,5.935,0,0,1-1.444,2.119,8.258,8.258,0,0,1-2.456,1.576l-3.949,1.715Zm8.336,8.728a5.338,5.338,0,0,0,1.621-1.106,4.2,4.2,0,0,0,.974-1.455,4.53,4.53,0,0,0,.277-1.72,5.117,5.117,0,0,0-.431-1.82,5.045,5.045,0,0,0-1.477-1.98,4.226,4.226,0,0,0-2.146-.879,4.74,4.74,0,0,0-2.406.393l-1.859.808,3.695,8.518Z" transform="translate(-49.263 -17.173)" fill="#420d11"/>
  <path id="Path_593" data-name="Path 593" d="M147.328,35.135a3.512,3.512,0,0,1,2.135.714,3.413,3.413,0,0,1,1.184,2,4.055,4.055,0,0,1,.072,1.493,3.108,3.108,0,0,1-.553,1.305A3.568,3.568,0,0,1,149,41.7a6.184,6.184,0,0,1-1.781.719l-5.144,1.189-3-13.015,4.525-1.045a5.487,5.487,0,0,1,3.319.066,2.86,2.86,0,0,1,1.659,2.13,3.49,3.49,0,0,1-.083,1.825,2.838,2.838,0,0,1-1.162,1.527Zm-4.818.321,2.113-.487a3.529,3.529,0,0,0,.791-.288,2.273,2.273,0,0,0,.619-.465,1.516,1.516,0,0,0,.376-.653,1.748,1.748,0,0,0,0-.83,1.521,1.521,0,0,0-.868-1.106,3.075,3.075,0,0,0-1.93,0l-1.886.437Zm3.584,5.111a3.568,3.568,0,0,0,1.787-.913,1.527,1.527,0,0,0,.393-1.51,1.7,1.7,0,0,0-.946-1.256,3.169,3.169,0,0,0-2.019-.061l-2.329.553.863,3.723Z" transform="translate(-62.146 -13.104)" fill="#420d11"/>
  <path id="Path_594" data-name="Path 594" d="M173.858,36.088l-5.454.288-.846,2.926-2.367.122,4.27-13.607,2.213-.116,5.714,13.076-2.373.127Zm-.8-1.925-2.329-5.67h0l-1.72,5.885Z" transform="translate(-73.818 -11.484)" fill="#420d11"/>
  <path id="Path_595" data-name="Path 595" d="M195.418,39.724a6.273,6.273,0,0,1-1.726-1.068,6.04,6.04,0,0,1-1.3-1.532,5.907,5.907,0,0,1-.73-1.975,7.7,7.7,0,0,1-.05-2.4,8.346,8.346,0,0,1,.553-2.135,6.439,6.439,0,0,1,1.073-1.759,6.367,6.367,0,0,1,1.543-1.311,6,6,0,0,1,1.991-.752,7.689,7.689,0,0,1,2.373-.055,6.864,6.864,0,0,1,2.766.979,6.737,6.737,0,0,1,2.163,2.213l-1.831,1.195a5.116,5.116,0,0,0-1.455-1.5,4.182,4.182,0,0,0-1.908-.736,4.381,4.381,0,0,0-2.334.3,3.977,3.977,0,0,0-1.731,1.46,5.343,5.343,0,0,0-.857,2.39,4.978,4.978,0,0,0,.26,2.445,4,4,0,0,0,1.35,1.814,4.337,4.337,0,0,0,2.157.852,4.121,4.121,0,0,0,2.047-.243,4.978,4.978,0,0,0,1.742-1.106L203,38.407a6.9,6.9,0,0,1-2.461,1.554,6.5,6.5,0,0,1-3.07.31A7.788,7.788,0,0,1,195.418,39.724Z" transform="translate(-85.594 -11.918)" fill="#420d11"/>
  <path id="Path_596" data-name="Path 596" d="M222.547,39.216l-1.975,1.256-1.139,3.606-2.163-.686L221.3,30.67l2.163.686-1.93,6.084h.033l6.826-4.552,2.766.874-6.582,4.165,2.694,8.618-2.683-.852L222.6,39.216Z" transform="translate(-97.091 -13.705)" fill="#420d11"/>
  <path id="Path_597" data-name="Path 597" d="M248.613,54.272l-.94,1.809-8.513-4.425.819-1.582,10.211-5.4v-.033L244.6,41.749l.94-1.809,8.231,4.265-.808,1.554-10.316,5.4v.028Z" transform="translate(-106.873 -17.848)" fill="#420d11"/>
  <path id="Path_598" data-name="Path 598" d="M263.807,66.883a6.15,6.15,0,0,1-.835-2.439,6.378,6.378,0,0,1,.249-2.555,7.306,7.306,0,0,1,1.278-2.445,7.389,7.389,0,0,1,2.063-1.842,6.637,6.637,0,0,1,2.417-.863,6.372,6.372,0,0,1,2.561.194,7.373,7.373,0,0,1,2.495,1.283,7.268,7.268,0,0,1,1.814,2.036,6.433,6.433,0,0,1,.841,2.4,6.329,6.329,0,0,1-.227,2.572,7.926,7.926,0,0,1-3.418,4.392,6.179,6.179,0,0,1-2.439.841,6.322,6.322,0,0,1-2.533-.227,6.986,6.986,0,0,1-2.423-1.25,7.191,7.191,0,0,1-1.842-2.1Zm4.729,1.206a4.082,4.082,0,0,0,1.693.083,4.63,4.63,0,0,0,1.659-.614,5.387,5.387,0,0,0,2.3-2.954,4.656,4.656,0,0,0,.194-1.742,4.12,4.12,0,0,0-.5-1.615,4.425,4.425,0,0,0-1.145-1.339,4.325,4.325,0,0,0-1.659-.8,4.1,4.1,0,0,0-1.715-.072,4.63,4.63,0,0,0-1.593.592,5.022,5.022,0,0,0-1.388,1.245,4.929,4.929,0,0,0-.868,1.659,4.762,4.762,0,0,0-.227,1.737,4.127,4.127,0,0,0,.487,1.659,4.32,4.32,0,0,0,1.178,1.383,4.236,4.236,0,0,0,1.582.78Z" transform="translate(-117.497 -25.331)" fill="#420d11"/>
  <path id="Path_599" data-name="Path 599" d="M299.346,83.446l-10.156,8.662-1.5-1.764,3-11.063h0L283.5,85.4,282,83.668,292.161,75l1.46,1.715-3.07,11.173.028.033,7.3-6.2Z" transform="translate(-126.017 -33.515)" fill="#420d11"/>
  <path id="Path_600" data-name="Path 600" d="M310.638,100l4.209,7.274-1.77,1.023-3.081-5.3-3.186,1.847,2.489,4.287-1.764,1.023-2.484-4.287-3.086,1.787,3.275,5.647-1.764,1.023-4.425-7.611Z" transform="translate(-133.635 -44.687)" fill="#420d11"/>
  <path id="Path_601" data-name="Path 601" d="M102.584,317.814l-2.384-1.632a1.338,1.338,0,0,0-.149.94,1.189,1.189,0,0,0,.514.747,1.233,1.233,0,0,0,.553.221,1.433,1.433,0,0,0,.592-.055l.144.553a1.759,1.759,0,0,1-.83.083,1.9,1.9,0,0,1-.835-.337,1.864,1.864,0,0,1-.553-.553,1.7,1.7,0,0,1-.266-.669,1.787,1.787,0,0,1,.033-.741,2.345,2.345,0,0,1,.332-.747,2.278,2.278,0,0,1,.553-.581,1.864,1.864,0,0,1,.669-.3,1.559,1.559,0,0,1,.7,0,1.776,1.776,0,0,1,1.283,1,1.66,1.66,0,0,1,.122.913,2.152,2.152,0,0,1-.382.935A1.736,1.736,0,0,1,102.584,317.814Zm-1.294-2.472a1.338,1.338,0,0,0-.774.4l1.875,1.283a1.344,1.344,0,0,0,.133-.835,1,1,0,0,0-.443-.653A1.106,1.106,0,0,0,101.29,315.341Z" transform="translate(-44.395 -140.628)" fill="#420d11"/>
  <path id="Path_602" data-name="Path 602" d="M109.547,319.893a1.776,1.776,0,0,1-.321,1.228l-1.189,1.969-.553-.321,1.106-1.82a2.3,2.3,0,0,0,.243-.525.935.935,0,0,0,.028-.42.73.73,0,0,0-.138-.321,1.012,1.012,0,0,0-.293-.249,1.045,1.045,0,0,0-.924-.122,1.532,1.532,0,0,0-.808.708l-1,1.659-.553-.321,2-3.319.553.321-.343.553h0a1.582,1.582,0,0,1,.774-.155,1.7,1.7,0,0,1,.763.249A1.267,1.267,0,0,1,109.547,319.893Z" transform="translate(-46.988 -142.121)" fill="#420d11"/>
  <path id="Path_603" data-name="Path 603" d="M117.739,323.4l-3.186,2.7-.553-.282.465-4.143.592.315-.409,3.241h0l2.434-2.168Z" transform="translate(-50.943 -143.748)" fill="#420d11"/>
  <path id="Path_604" data-name="Path 604" d="M120.759,324.3l.553.266-1.659,3.49-.553-.271Zm.371-.769a.437.437,0,0,1,0-.343.42.42,0,0,1,.254-.232.415.415,0,0,1,.343,0,.42.42,0,0,1,.177.149.5.5,0,0,1,.072.221.47.47,0,0,1-.044.232.459.459,0,0,1-.254.232.454.454,0,0,1-.553-.277Z" transform="translate(-53.222 -144.303)" fill="#420d11"/>
  <path id="Path_605" data-name="Path 605" d="M125.747,327.622l-.288.653a2.112,2.112,0,0,0-.227-.111,1,1,0,0,0-.625-.089,1.067,1.067,0,0,0-.553.277,1.6,1.6,0,0,0-.4.553l-.758,1.7-.553-.254,1.571-3.535.553.254-.271.614h0a1.554,1.554,0,0,1,.725-.216,1.272,1.272,0,0,1,.708.111Z" transform="translate(-54.669 -146.045)" fill="#420d11"/>
  <path id="Path_606" data-name="Path 606" d="M128.063,332.953a1.82,1.82,0,0,1-.42-.614,1.848,1.848,0,0,1-.133-.73,2.163,2.163,0,0,1,.149-.774,2.29,2.29,0,0,1,.415-.68,1.792,1.792,0,0,1,1.322-.614,2.035,2.035,0,0,1,.8.149,1.936,1.936,0,0,1,.83.592,1.77,1.77,0,0,1,.393.907,2.152,2.152,0,0,1-.144,1.056,2.124,2.124,0,0,1-.608.868,1.787,1.787,0,0,1-.9.4,1.959,1.959,0,0,1-1.012-.127,2.052,2.052,0,0,1-.686-.437Zm1.576-.044a1.251,1.251,0,0,0,.62-.288,1.521,1.521,0,0,0,.42-.608,1.449,1.449,0,0,0,.1-.741,1.189,1.189,0,0,0-.254-.625,1.289,1.289,0,0,0-.553-.4,1.261,1.261,0,0,0-.708-.077,1.239,1.239,0,0,0-.614.3,1.549,1.549,0,0,0-.5,1.305,1.25,1.25,0,0,0,.243.636,1.305,1.305,0,0,0,.553.426A1.283,1.283,0,0,0,129.639,332.908Z" transform="translate(-56.979 -147.26)" fill="#420d11"/>
  <path id="Path_607" data-name="Path 607" d="M138.963,333a1.792,1.792,0,0,1-.033,1.267l-.708,2.213-.6-.194.653-2.019a2.213,2.213,0,0,0,.116-.553.974.974,0,0,0-.066-.42.769.769,0,0,0-.21-.282,1.106,1.106,0,0,0-.343-.171,1.067,1.067,0,0,0-.929.088,1.532,1.532,0,0,0-.62.874l-.6,1.842-.6-.194,1.195-3.684.6.188-.2.636h0a1.577,1.577,0,0,1,.719-.326,1.709,1.709,0,0,1,.8.066A1.25,1.25,0,0,1,138.963,333Z" transform="translate(-60.34 -148.257)" fill="#420d11"/>
  <path id="Path_608" data-name="Path 608" d="M149.25,335.857a1.919,1.919,0,0,1,0,1.289l-.553,2.213-.608-.149.5-2.036a1.659,1.659,0,0,0,0-.962.769.769,0,0,0-.553-.443.918.918,0,0,0-.824.194,1.6,1.6,0,0,0-.553.918l-.459,1.864-.6-.144.5-2.041a2.063,2.063,0,0,0,.066-.7.774.774,0,0,0-.194-.465.913.913,0,0,0-.448-.238.963.963,0,0,0-.846.183,1.56,1.56,0,0,0-.553.924l-.459,1.864-.6-.149.924-3.756.6.149-.155.636h0a1.66,1.66,0,0,1,.675-.376,1.532,1.532,0,0,1,.725,0,1.162,1.162,0,0,1,.974,1.018h0a1.6,1.6,0,0,1,1.5-.4A1.222,1.222,0,0,1,149.25,335.857Z" transform="translate(-63.929 -149.352)" fill="#420d11"/>
  <path id="Path_609" data-name="Path 609" d="M159.34,339.786l-2.849-.481a1.366,1.366,0,0,0,.254.918,1.184,1.184,0,0,0,.78.465,1.283,1.283,0,0,0,.62-.044,1.327,1.327,0,0,0,.514-.293l.371.454a1.842,1.842,0,0,1-.719.415,1.908,1.908,0,0,1-.907.05,1.809,1.809,0,0,1-.7-.271,1.77,1.77,0,0,1-.52-.492,1.853,1.853,0,0,1-.282-.686,2.29,2.29,0,0,1,0-.824,2.357,2.357,0,0,1,.271-.769,1.964,1.964,0,0,1,.481-.553,1.659,1.659,0,0,1,.631-.3,1.693,1.693,0,0,1,2.08,1.15,2.13,2.13,0,0,1,.044,1.012A1.073,1.073,0,0,1,159.34,339.786Zm-2.213-1.7a1.327,1.327,0,0,0-.553.7l2.24.376a1.35,1.35,0,0,0-.227-.819,1.029,1.029,0,0,0-.675-.4,1.106,1.106,0,0,0-.78.149Z" transform="translate(-69.65 -150.731)" fill="#420d11"/>
  <path id="Path_610" data-name="Path 610" d="M167.043,338.935a1.781,1.781,0,0,1,.221,1.25l-.254,2.284-.625-.072.238-2.107a1.992,1.992,0,0,0,0-.553.968.968,0,0,0-.149-.4.746.746,0,0,0-.26-.232,1.046,1.046,0,0,0-.365-.105,1.106,1.106,0,0,0-.9.277,1.538,1.538,0,0,0-.437.974l-.216,1.925-.62-.072.431-3.844.625.066-.077.664h0a1.66,1.66,0,0,1,.647-.465,1.8,1.8,0,0,1,.791-.094,1.25,1.25,0,0,1,.946.5Z" transform="translate(-73.143 -151.157)" fill="#420d11"/>
  <path id="Path_611" data-name="Path 611" d="M172.057,340.72l.144-2.157-.481-.033.039-.553.481.033.089-1.322.631-.028-.094,1.394,1.239.083-.039.553-1.239-.089-.138,2.063a1.012,1.012,0,0,0,.066.553.382.382,0,0,0,.343.194,1.289,1.289,0,0,0,.647-.155l.127.553a2.1,2.1,0,0,1-.238.105,1.364,1.364,0,0,1-.293.066,2.293,2.293,0,0,1-.393,0C172.3,341.92,172,341.5,172.057,340.72Z" transform="translate(-76.736 -150.442)" fill="#420d11"/>
  <path id="Path_612" data-name="Path 612" d="M177.419,338.3h-.459v-.553h.459v-.785a1.361,1.361,0,0,1,.3-.924.979.979,0,0,1,.791-.293,1.615,1.615,0,0,1,.863.277l-.155.553a1.477,1.477,0,0,0-.647-.216c-.348,0-.525.216-.553.691l-.028.719,1.068.039v.553L178,338.324l-.116,3.319h-.62Z" transform="translate(-79.078 -150.032)" fill="#420d11"/>
  <path id="Path_613" data-name="Path 613" d="M182.8,343.192a1.759,1.759,0,0,1-.62-.409,1.959,1.959,0,0,1-.4-.631,2.212,2.212,0,0,1-.149-.774,2.3,2.3,0,0,1,.133-.785,1.886,1.886,0,0,1,.387-.636,1.8,1.8,0,0,1,.608-.426,2.109,2.109,0,0,1,.8-.16,2.008,2.008,0,0,1,1,.238,1.808,1.808,0,0,1,.7.7,2.213,2.213,0,0,1,.26,1.034,2.113,2.113,0,0,1-.238,1.034,1.759,1.759,0,0,1-.686.708,2.091,2.091,0,0,1-1.787.111Zm1.444-.625a1.261,1.261,0,0,0,.465-.5,1.433,1.433,0,0,0,.166-.725,1.455,1.455,0,0,0-.183-.725,1.233,1.233,0,0,0-1.106-.653,1.3,1.3,0,0,0-.686.188,1.278,1.278,0,0,0-.454.514,1.571,1.571,0,0,0,0,1.394,1.25,1.25,0,0,0,1.156.68A1.272,1.272,0,0,0,184.246,342.567Z" transform="translate(-81.165 -151.653)" fill="#420d11"/>
  <path id="Path_614" data-name="Path 614" d="M192.3,339.05l.044.708h-.254a1.074,1.074,0,0,0-.968.708,1.659,1.659,0,0,0-.094.7l.105,1.864-.625.033-.221-3.872.625-.033.039.669h0a1.66,1.66,0,0,1,.5-.553,1.327,1.327,0,0,1,.68-.221Z" transform="translate(-85.034 -151.51)" fill="#420d11"/>
  <path id="Path_615" data-name="Path 615" d="M195.05,335.365l.62-.055.5,5.836-.6.077Z" transform="translate(-87.161 -149.839)" fill="#420d11"/>
  <path id="Path_616" data-name="Path 616" d="M202.222,340.2l-2.865.36a1.322,1.322,0,0,0,.5.8,1.283,1.283,0,0,0,1.466,0,1.416,1.416,0,0,0,.4-.426l.481.326a1.8,1.8,0,0,1-.553.608,1.936,1.936,0,0,1-.852.3,1.77,1.77,0,0,1-1.859-.957,2.351,2.351,0,0,1-.2-1.6,1.892,1.892,0,0,1,.3-.669,1.66,1.66,0,0,1,.514-.47,1.748,1.748,0,0,1,.686-.238,1.683,1.683,0,0,1,1.637.736,2.212,2.212,0,0,1,.337.957,2.431,2.431,0,0,1,.006.266Zm-2.605-1a1.289,1.289,0,0,0-.315.819l2.251-.282a1.339,1.339,0,0,0-.454-.719,1.04,1.04,0,0,0-.763-.194A1.106,1.106,0,0,0,199.617,339.208Z" transform="translate(-88.786 -151.143)" fill="#420d11"/>
  <path id="Path_617" data-name="Path 617" d="M209.859,336.57l.68,3.811-.586.105-.111-.6h0a1.616,1.616,0,0,1-.47.581,1.587,1.587,0,0,1-.708.31,1.831,1.831,0,0,1-.736,0,1.659,1.659,0,0,1-.642-.282,1.748,1.748,0,0,1-.5-.553,2.213,2.213,0,0,1-.282-.763,2.163,2.163,0,0,1,.055-1.051,1.753,1.753,0,0,1,1.4-1.25,1.66,1.66,0,0,1,.741.028,1.483,1.483,0,0,1,.636.354h0l-.105-.553Zm-.791,3.424a1.283,1.283,0,0,0,.348-.343,1.267,1.267,0,0,0,.194-.476,1.383,1.383,0,0,0,0-.553,1.559,1.559,0,0,0-.188-.553,1.416,1.416,0,0,0-.343-.4,1.2,1.2,0,0,0-1.776.3,1.4,1.4,0,0,0-.177,1.073,1.366,1.366,0,0,0,.514.9,1.167,1.167,0,0,0,.968.221A1.206,1.206,0,0,0,209.069,339.994Z" transform="translate(-92.263 -150.402)" fill="#420d11"/>
  <path id="Path_618" data-name="Path 618" d="M216.508,335.25l.16.691-.249.044a1.067,1.067,0,0,0-.553.3,1.106,1.106,0,0,0-.282.553,1.72,1.72,0,0,0,.028.708l.415,1.82-.608.138-.868-3.772.614-.144.149.658h0a1.549,1.549,0,0,1,.393-.642,1.305,1.305,0,0,1,.636-.332Z" transform="translate(-95.875 -149.812)" fill="#420d11"/>
  <path id="Path_619" data-name="Path 619" d="M222.387,334.038a1.8,1.8,0,0,1,.669,1.073l.614,2.213-.608.166-.553-2.041a2.169,2.169,0,0,0-.21-.553.979.979,0,0,0-.288-.31.736.736,0,0,0-.332-.122,1.029,1.029,0,0,0-.376.044,1.067,1.067,0,0,0-.73.586,1.51,1.51,0,0,0-.039,1.068l.514,1.864-.6.166L219.4,334.48l.608-.166.177.642h0a1.548,1.548,0,0,1,.426-.669,1.659,1.659,0,0,1,.7-.387A1.267,1.267,0,0,1,222.387,334.038Z" transform="translate(-98.042 -149.18)" fill="#420d11"/>
  <path id="Path_620" data-name="Path 620" d="M226.578,330.6a.47.47,0,0,1-.194-.608.415.415,0,0,1,.26-.221.42.42,0,0,1,.232,0,.493.493,0,0,1,.2.111.476.476,0,0,1,.127.2.437.437,0,0,1,0,.343.4.4,0,0,1-.26.221.415.415,0,0,1-.371-.044Zm.26.813.592-.194,1.184,3.689-.6.188Z" transform="translate(-101.144 -147.354)" fill="#420d11"/>
  <path id="Path_621" data-name="Path 621" d="M233.377,330.4a1.753,1.753,0,0,1,.752,1.018l.78,2.157-.586.216L233.6,331.8a2.213,2.213,0,0,0-.254-.514.934.934,0,0,0-.31-.288.758.758,0,0,0-.337-.094.945.945,0,0,0-.376.072,1.067,1.067,0,0,0-.68.636,1.51,1.51,0,0,0,.044,1.073l.658,1.814-.592.216-1.316-3.64.592-.21.227.625h0a1.577,1.577,0,0,1,.371-.7,1.736,1.736,0,0,1,.669-.437,1.25,1.25,0,0,1,1.079.044Z" transform="translate(-102.976 -147.581)" fill="#420d11"/>
  <path id="Path_622" data-name="Path 622" d="M241.473,326.48l1.4,3.291a2.766,2.766,0,0,1,.2.752,1.731,1.731,0,0,1-.066.68,1.4,1.4,0,0,1-.376.592,2.213,2.213,0,0,1-.719.459,2.843,2.843,0,0,1-1.571.216l-.094-.608a3.03,3.03,0,0,0,.73.028,2.246,2.246,0,0,0,.669-.183,1.555,1.555,0,0,0,.476-.3,1.051,1.051,0,0,0,.277-.382,1.068,1.068,0,0,0,.072-.42,1.311,1.311,0,0,0-.1-.443l-.21-.492h0a1.554,1.554,0,0,1-.946,1.04,1.744,1.744,0,0,1-1.98-.4,2.173,2.173,0,0,1-.443-.669,2.107,2.107,0,0,1-.166-1,1.731,1.731,0,0,1,.315-.885,1.776,1.776,0,0,1,.741-.592,1.924,1.924,0,0,1,.725-.144,1.62,1.62,0,0,1,.7.171h0l-.21-.492Zm.232,2.959a1.394,1.394,0,0,0-.055-1.018,1.3,1.3,0,0,0-.7-.725,1.228,1.228,0,0,0-.968,0,1.162,1.162,0,0,0-.669.691,1.333,1.333,0,0,0,.05,1,1.66,1.66,0,0,0,.238.393,1.184,1.184,0,0,0,.3.277,1.162,1.162,0,0,0,.354.144,1.107,1.107,0,0,0,.382.033,1.509,1.509,0,0,0,.376-.1A1.173,1.173,0,0,0,241.7,329.439Z" transform="translate(-106.635 -145.893)" fill="#420d11"/>
  <path id="Path_623" data-name="Path 623" d="M248.186,331.134a.459.459,0,0,1-.254-.232.448.448,0,0,1,0-.349.443.443,0,0,1,.553-.271.448.448,0,0,1,.254.238.432.432,0,0,1-.033.443.415.415,0,0,1-.171.155A.448.448,0,0,1,248.186,331.134Z" transform="translate(-110.776 -147.582)" fill="#420d11"/>
  <path id="Path_624" data-name="Path 624" d="M250.859,326.465a1.659,1.659,0,0,1-.913-.321,2.323,2.323,0,0,1-.946-1.836,1.737,1.737,0,0,1,.271-.935,1.836,1.836,0,0,1,.747-.669,2.041,2.041,0,0,1,.83-.227,1.781,1.781,0,0,1,.835.149l-.2.553a1.311,1.311,0,0,0-.553-.111,1.461,1.461,0,0,0-.592.16,1.172,1.172,0,0,0-.636.769,1.394,1.394,0,0,0,.144,1.056,1.416,1.416,0,0,0,.774.73,1.189,1.189,0,0,0,1-.077,1.449,1.449,0,0,0,.481-.393,1.272,1.272,0,0,0,.26-.509l.553.16a1.848,1.848,0,0,1-.365.719,2.213,2.213,0,0,1-.714.553A1.776,1.776,0,0,1,250.859,326.465Z" transform="translate(-111.27 -144.103)" fill="#420d11"/>
  <path id="Path_625" data-name="Path 625" d="M257.729,322.765a1.742,1.742,0,0,1-.741-.05,1.826,1.826,0,0,1-.653-.348,2.074,2.074,0,0,1-.514-.6,2.124,2.124,0,0,1-.271-.752,1.853,1.853,0,0,1,0-.741,1.8,1.8,0,0,1,.321-.675,2.03,2.03,0,0,1,.608-.553,1.947,1.947,0,0,1,.979-.288,1.792,1.792,0,0,1,.957.26,2.273,2.273,0,0,1,1.04,1.781,1.842,1.842,0,0,1-.243.957,2.08,2.08,0,0,1-1.5.985Zm.946-1.261a1.238,1.238,0,0,0,.155-.664,1.4,1.4,0,0,0-.21-.708,1.472,1.472,0,0,0-.514-.553,1.234,1.234,0,0,0-.664-.133,1.35,1.35,0,0,0-1.156.686,1.233,1.233,0,0,0-.144.675,1.444,1.444,0,0,0,.216.686,1.482,1.482,0,0,0,.492.52,1.255,1.255,0,0,0,.653.2,1.289,1.289,0,0,0,.686-.182,1.323,1.323,0,0,0,.487-.509Z" transform="translate(-114.18 -142.443)" fill="#420d11"/>
  <path id="Path_626" data-name="Path 626" d="M266.558,311.76a1.941,1.941,0,0,1,.974.841l1.283,1.875-.514.354-1.184-1.731a1.693,1.693,0,0,0-.7-.658.763.763,0,0,0-.719.133.913.913,0,0,0-.4.741,1.66,1.66,0,0,0,.326,1.018l1.106,1.587-.514.348-1.189-1.737a2.108,2.108,0,0,0-.476-.52.83.83,0,0,0-.476-.166,1.012,1.012,0,0,0-.907.935,1.587,1.587,0,0,0,.321,1.018l1.106,1.587-.514.354-2.185-3.2.514-.348.376.553h0a1.66,1.66,0,0,1,.171-.747,1.477,1.477,0,0,1,.476-.553,1.151,1.151,0,0,1,1.4-.044h0a1.593,1.593,0,0,1,.171-.791,1.554,1.554,0,0,1,.553-.6,1.211,1.211,0,0,1,1-.243Z" transform="translate(-117.03 -139.304)" fill="#420d11"/>
  <path id="Path_627" data-name="Path 627" d="M238.71,137.656a5.376,5.376,0,1,0,5.376-5.376A5.376,5.376,0,0,0,238.71,137.656Zm2.766,0a2.594,2.594,0,1,0,.011,0Z" transform="translate(-106.671 -59.112)" fill="#420d11"/>
  <path id="Path_628" data-name="Path 628" d="M244.024,143.017a5.448,5.448,0,1,1,5.443-5.443A5.448,5.448,0,0,1,244.024,143.017Zm0-10.753a5.31,5.31,0,1,0,5.293,5.321A5.31,5.31,0,0,0,244.024,132.264Zm0,7.976a2.672,2.672,0,1,1,2.666-2.666A2.672,2.672,0,0,1,244.024,140.24Zm0-5.2a2.533,2.533,0,1,0,1.792.748A2.533,2.533,0,0,0,244.024,135.041Z" transform="translate(-106.609 -59.04)" fill="#bc2631"/>
  <path id="Path_629" data-name="Path 629" d="M210.18,137.656a5.376,5.376,0,1,0,5.376-5.376A5.376,5.376,0,0,0,210.18,137.656Zm2.766,0a2.594,2.594,0,1,0,.011,0Z" transform="translate(-93.922 -59.112)" fill="#420d11"/>
  <path id="Path_630" data-name="Path 630" d="M215.489,143.017a5.448,5.448,0,1,1,5.437-5.443A5.448,5.448,0,0,1,215.489,143.017Zm0-10.753a5.31,5.31,0,1,0,5.3,5.31A5.31,5.31,0,0,0,215.489,132.264Zm0,7.976a2.672,2.672,0,1,1,2.666-2.666A2.672,2.672,0,0,1,215.489,140.24Zm0-5.2a2.533,2.533,0,1,0,2.528,2.533,2.533,2.533,0,0,0-2.528-2.533Z" transform="translate(-93.855 -59.04)" fill="#bc2631"/>
  <path id="Path_631" data-name="Path 631" d="M187.021,143a5.376,5.376,0,1,0-5.371-5.371A5.376,5.376,0,0,0,187.021,143Zm-2.6-5.371a2.592,2.592,0,1,1,0,.011Z" transform="translate(-81.173 -59.098)" fill="#420d11"/>
  <path id="Path_632" data-name="Path 632" d="M186.954,143.017a5.448,5.448,0,1,1,5.443-5.432A5.448,5.448,0,0,1,186.954,143.017Zm0-10.753a5.316,5.316,0,1,0,3.771,1.553A5.31,5.31,0,0,0,186.954,132.264Zm0,7.976a2.672,2.672,0,1,1,2.666-2.666A2.672,2.672,0,0,1,186.954,140.24Zm0-5.2a2.533,2.533,0,1,0,2.528,2.533,2.533,2.533,0,0,0-2.528-2.533Z" transform="translate(-81.106 -59.04)" fill="#bc2631"/>
  <path id="Path_633" data-name="Path 633" d="M81.51,196.734a1.388,1.388,0,0,0,1.377,1.422,1.305,1.305,0,0,0,1.4-1.333c0-.155.553-15.681,12.595-22.49a24.339,24.339,0,0,1,6.71-2.495,1.383,1.383,0,0,0,.221-2.638,18.17,18.17,0,1,1,13.668,0,1.388,1.388,0,0,0,.221,2.638,24.464,24.464,0,0,1,6.715,2.495c12.042,6.809,12.589,22.336,12.595,22.49l.111.5a1.659,1.659,0,0,0,.149.232,1.356,1.356,0,0,0,.144.2,1.237,1.237,0,0,0,.238.171c.066.039.122.094.194.127a1.658,1.658,0,0,0,.337.077.912.912,0,0,0,.177.039h.072a1.233,1.233,0,0,0,.238-.055,1.176,1.176,0,0,0,.277-.061.975.975,0,0,0,.221-.149,1.105,1.105,0,0,0,.21-.144,1.879,1.879,0,0,0,.149-.216,1.168,1.168,0,0,0,.144-.221,1.4,1.4,0,0,0,.055-.254,1.249,1.249,0,0,0,.055-.249c0-.094.343-9.448,7.556-13.524a14.719,14.719,0,0,1,4.027-1.493,1.388,1.388,0,0,0,.221-2.638,10.758,10.758,0,1,1,8.092,0,1.388,1.388,0,0,0,.221,2.638,14.675,14.675,0,0,1,4.027,1.493c7.191,4.077,7.55,13.43,7.55,13.524a1.355,1.355,0,0,0,1.422,1.35,1.388,1.388,0,0,0,1.355-1.422c0-.442-.365-11.007-8.966-15.869a15.187,15.187,0,0,0-1.621-.791,13.53,13.53,0,1,0-16.074,0,15.2,15.2,0,0,0-1.621.8,16.981,16.981,0,0,0-7.351,8.684c-1.5-5.614-4.923-13.181-12.838-17.656a25.267,25.267,0,0,0-4.01-1.8,20.776,20.776,0,0,0,9.359-13.557,25.627,25.627,0,0,0,17.313-7.661,34.487,34.487,0,0,0,9.613,1.372c17.7,0,32.082-13.2,32.082-29.438S175.758,91.39,158.058,91.39s-32.082,13.209-32.082,29.438a28.315,28.315,0,0,0,9.7,21.019,31.573,31.573,0,0,1-4.11,9.475A20.925,20.925,0,1,0,99.553,170.1a25.045,25.045,0,0,0-4.01,1.8C82.079,179.493,81.532,196.037,81.51,196.734Zm51.862-43.144a34.051,34.051,0,0,0,5.177-11.9,1.383,1.383,0,0,0-.454-1.377,25.343,25.343,0,0,1-9.365-19.492c0-14.7,13.154-26.661,29.316-26.661s29.316,11.959,29.316,26.661-13.154,26.667-29.316,26.667a31.91,31.91,0,0,1-9.63-1.5,1.576,1.576,0,0,0-.42-.061,1.4,1.4,0,0,0-1.045.47,22.38,22.38,0,0,1-13.579,7.185Z" transform="translate(-36.424 -40.839)" fill="#420d11"/>
  <path id="Path_634" data-name="Path 634" d="M82.982,198.185H82.8a1.444,1.444,0,0,1-1.007-.454,1.427,1.427,0,0,1-.4-1.04h0c0-.7.6-17.3,14.039-24.891a25.448,25.448,0,0,1,3.872-1.759,21.019,21.019,0,1,1,32.226-18.972,31.379,31.379,0,0,0,3.983-9.232,28.51,28.51,0,0,1-9.685-21.063c0-16.268,14.431-29.5,32.17-29.5s32.17,13.236,32.17,29.5S175.76,150.267,158,150.267a34.66,34.66,0,0,1-9.6-1.366,25.5,25.5,0,0,1-17.274,7.65,20.98,20.98,0,0,1-9.254,13.474,25.694,25.694,0,0,1,3.872,1.759c7.843,4.425,11.3,11.926,12.816,17.5a16.9,16.9,0,0,1,7.324-8.529,14.874,14.874,0,0,1,1.516-.752,13.6,13.6,0,1,1,16.351,0q.764.325,1.493.725c8.629,4.884,8.983,15.488,8.994,15.93a1.455,1.455,0,0,1-1.416,1.493,1.422,1.422,0,0,1-1.493-1.383c0-.094-.365-9.4-7.523-13.469a14.624,14.624,0,0,0-4-1.488,1.455,1.455,0,0,1-.232-2.766,10.692,10.692,0,1,0-8.037,0,1.455,1.455,0,0,1-.232,2.766,14.709,14.709,0,0,0-4.01,1.488c-7.135,4.032-7.489,13.364-7.489,13.469a.592.592,0,0,1-.039.183.409.409,0,0,1,0,.077.328.328,0,0,1,0,.077.79.79,0,0,1-.05.188.829.829,0,0,1-.105.183l-.044.055-.039.061a.625.625,0,0,1-.277.277l-.061.044-.061.044a.885.885,0,0,1-.177.111.919.919,0,0,1-.2.05h-.16a1.347,1.347,0,0,1-.171.033h-.072l-.127-.028H138.1a.912.912,0,0,1-.293-.072.624.624,0,0,1-.144-.088l-.061-.044-.061-.039a.917.917,0,0,1-.188-.138.946.946,0,0,1-.111-.149l-.039-.066-.044-.055a.885.885,0,0,1-.111-.188.747.747,0,0,1-.05-.183.426.426,0,0,0,0-.083v-.077a.885.885,0,0,1-.039-.183c0-.155-.514-15.626-12.556-22.43a24.261,24.261,0,0,0-6.693-2.489,1.455,1.455,0,0,1-.232-2.766,18.1,18.1,0,1,0-13.618,0,1.455,1.455,0,0,1-.232,2.766,24.417,24.417,0,0,0-6.693,2.489c-12.042,6.8-12.556,22.275-12.556,22.43a1.571,1.571,0,0,1-.553,1.106,1.2,1.2,0,0,1-.841.321Zm-1.455-1.5a1.3,1.3,0,0,0,.365.94,1.322,1.322,0,0,0,.918.409,1.106,1.106,0,0,0,.879-.254,1.4,1.4,0,0,0,.476-1.029c0-.16.52-15.709,12.628-22.551a24.382,24.382,0,0,1,6.732-2.5,1.316,1.316,0,0,0,.21-2.506,18.253,18.253,0,1,1,13.718,0,1.316,1.316,0,0,0,.21,2.506,24.3,24.3,0,0,1,6.732,2.5c12.091,6.848,12.645,22.391,12.645,22.568a.763.763,0,0,0,.033.144v.177a.593.593,0,0,0,.039.149.763.763,0,0,0,.094.16.421.421,0,0,1,.044.061.315.315,0,0,1,.044.072.51.51,0,0,0,.094.122.72.72,0,0,0,.16.122l.066.039.066.05a.663.663,0,0,0,.116.072.947.947,0,0,0,.26.066h.166a.293.293,0,0,0,.089,0h.055a1.021,1.021,0,0,0,.149-.028l.089-.028h.089a.912.912,0,0,0,.177-.039,1.06,1.06,0,0,0,.144-.094l.066-.05.066-.044a.806.806,0,0,0,.133-.094.884.884,0,0,0,.1-.138l.044-.066a.244.244,0,0,1,.044-.061,1.057,1.057,0,0,0,.089-.149.553.553,0,0,0,.039-.16v-.083a.551.551,0,0,1,.028-.089.73.73,0,0,0,.028-.144c0-.094.365-9.5,7.589-13.579a14.664,14.664,0,0,1,4.043-1.5,1.316,1.316,0,0,0,.21-2.506,10.825,10.825,0,1,1,8.142,0,1.316,1.316,0,0,0,.21,2.506,14.763,14.763,0,0,1,4.049,1.5c7.224,4.082,7.583,13.491,7.589,13.585a1.289,1.289,0,0,0,1.355,1.283,1.322,1.322,0,0,0,1.278-1.35c0-.448-.36-10.974-8.928-15.814a15.63,15.63,0,0,0-1.615-.785l-.111-.05.1-.072a13.463,13.463,0,1,0-15.991,0l.1.072-.116.05a14.6,14.6,0,0,0-1.615.791,16.754,16.754,0,0,0-7.318,8.651l-.083.194-.05-.2c-1.488-5.576-4.912-13.154-12.805-17.617a25.127,25.127,0,0,0-4-1.8l-.138-.044.122-.077A20.853,20.853,0,0,0,131,156.457V156.4h.05a25.444,25.444,0,0,0,17.269-7.644h.039a34.665,34.665,0,0,0,9.6,1.372c17.662,0,32.032-13.176,32.032-29.371S175.6,91.392,157.954,91.392s-31.977,13.176-31.977,29.366a28.381,28.381,0,0,0,9.669,20.991l.033.028v.039a31.59,31.59,0,0,1-4.126,9.492l-.116.171v-.21a20.853,20.853,0,1,0-31.9,18.718l.122.077-.138.044a24.89,24.89,0,0,0-4,1.8c-13.369,7.561-13.95,24.078-13.967,24.78Zm51.641-43.061.094-.127a34.117,34.117,0,0,0,5.166-11.876,1.316,1.316,0,0,0-.431-1.305,25.44,25.44,0,0,1-9.4-19.548c0-14.741,13.187-26.733,29.4-26.733s29.382,11.981,29.382,26.722-13.187,26.733-29.394,26.733a31.9,31.9,0,0,1-9.652-1.5,1.339,1.339,0,0,0-1.388.387,22.568,22.568,0,0,1-13.635,7.218ZM158,94.163c-16.135,0-29.261,11.931-29.261,26.595a25.292,25.292,0,0,0,9.342,19.443,1.444,1.444,0,0,1,.476,1.444,34.19,34.19,0,0,1-5.094,11.787,22.407,22.407,0,0,0,13.391-7.147,1.477,1.477,0,0,1,1.538-.431,31.76,31.76,0,0,0,9.608,1.5c16.129,0,29.255-11.931,29.255-26.595S174.133,94.163,158,94.163Z" transform="translate(-36.37 -40.785)" fill="#bc2631"/>
  <path id="Path_635" data-name="Path 635" d="M246.169,224.738l1.488-2.107a18.835,18.835,0,0,0,2.832-6.444,16,16,0,0,1-5.769-12.2c0-9.265,8.242-16.8,18.37-16.8s18.37,7.539,18.37,16.8-8.242,16.8-18.37,16.8a19.808,19.808,0,0,1-5.824-.88,14.381,14.381,0,0,1-8.518,4.458Zm16.92-35.345c-8.911,0-16.157,6.544-16.157,14.592a13.828,13.828,0,0,0,5.133,10.626,1.919,1.919,0,0,1,.631,1.908,22.856,22.856,0,0,1-1.814,5.039,11.859,11.859,0,0,0,4.857-3.252,1.953,1.953,0,0,1,2.03-.553,17.645,17.645,0,0,0,5.332.83c8.911,0,16.157-6.544,16.157-14.586S271.978,189.393,263.09,189.393Z" transform="translate(-109.357 -83.644)" fill="#420d11"/>
  <path id="Path_636" data-name="Path 636" d="M289,215.376a3.131,3.131,0,1,0,3.131-3.136A3.131,3.131,0,0,0,289,215.376Zm1.615,0a1.494,1.494,0,1,0,.044,0Z" transform="translate(-129.145 -94.843)" fill="#420d11"/>
  <path id="Path_637" data-name="Path 637" d="M292.107,218.513a3.192,3.192,0,1,1,3.186-3.186,3.192,3.192,0,0,1-3.186,3.186Zm0-6.267a3.081,3.081,0,1,0,3.075,3.081,3.081,3.081,0,0,0-3.075-3.081Zm0,4.652a1.571,1.571,0,1,1,1.571-1.571A1.571,1.571,0,0,1,292.107,216.9Zm0-3.031a1.46,1.46,0,1,0,1.46,1.46A1.46,1.46,0,0,0,292.107,213.867Z" transform="translate(-129.104 -94.794)" fill="#420d11"/>
  <path id="Path_638" data-name="Path 638" d="M292.125,218.52a3.175,3.175,0,1,1,3.175-3.175A3.175,3.175,0,0,1,292.125,218.52Zm0-6.267a3.092,3.092,0,1,0,3.092,3.092A3.092,3.092,0,0,0,292.125,212.253Zm0,4.646a1.554,1.554,0,1,1,1.554-1.554A1.554,1.554,0,0,1,292.125,216.9Zm0-3.031a1.477,1.477,0,1,0,1.477,1.477A1.477,1.477,0,0,0,292.125,213.868Z" transform="translate(-129.122 -94.812)" fill="#bc2631"/>
  <path id="Path_639" data-name="Path 639" d="M292.08,218.531a3.23,3.23,0,1,1,3.23-3.23A3.23,3.23,0,0,1,292.08,218.531Zm0-6.267a3.037,3.037,0,1,0,3.037,3.037,3.037,3.037,0,0,0-3.037-3.037Zm0,4.646a1.61,1.61,0,1,1,1.61-1.61,1.61,1.61,0,0,1-1.61,1.61Zm0-3.031A1.422,1.422,0,1,0,293.5,215.3,1.422,1.422,0,0,0,292.08,213.879Z" transform="translate(-129.077 -94.767)" fill="#420d11"/>
  <path id="Path_640" data-name="Path 640" d="M272.39,215.376a3.136,3.136,0,1,0,3.136-3.136,3.136,3.136,0,0,0-3.136,3.136Zm1.621,0a1.516,1.516,0,1,1,1.516,1.516A1.516,1.516,0,0,1,274.011,215.376Z" transform="translate(-121.722 -94.843)" fill="#420d11"/>
  <path id="Path_641" data-name="Path 641" d="M275.477,218.513a3.192,3.192,0,1,1,3.186-3.186,3.192,3.192,0,0,1-3.186,3.186Zm0-6.267a3.081,3.081,0,1,0,3.075,3.081,3.081,3.081,0,0,0-3.075-3.081Zm0,4.652a1.571,1.571,0,1,1,1.565-1.571A1.571,1.571,0,0,1,275.477,216.9Zm0-3.031a1.46,1.46,0,1,0,1.46,1.46A1.46,1.46,0,0,0,275.477,213.867Z" transform="translate(-121.673 -94.794)" fill="#420d11"/>
  <path id="Path_642" data-name="Path 642" d="M275.491,218.52a3.175,3.175,0,1,1,3.169-3.175,3.175,3.175,0,0,1-3.169,3.175Zm0-6.267a3.092,3.092,0,1,0,3.092,3.092A3.092,3.092,0,0,0,275.491,212.253Zm0,4.646a1.554,1.554,0,1,1,1.554-1.554A1.554,1.554,0,0,1,275.491,216.9Zm0-3.031a1.477,1.477,0,1,0,1.471,1.477A1.477,1.477,0,0,0,275.491,213.868Z" transform="translate(-121.686 -94.812)" fill="#bc2631"/>
  <path id="Path_643" data-name="Path 643" d="M275.446,218.531a3.23,3.23,0,1,1,3.225-3.23,3.23,3.23,0,0,1-3.225,3.23Zm0-6.267a3.037,3.037,0,1,0,3.037,3.037A3.037,3.037,0,0,0,275.446,212.264Zm0,4.646a1.61,1.61,0,1,1,1.61-1.61,1.61,1.61,0,0,1-1.61,1.61Zm0-3.031a1.422,1.422,0,1,0,1.416,1.422A1.422,1.422,0,0,0,275.446,213.879Z" transform="translate(-121.642 -94.767)" fill="#420d11"/>
  <path id="Path_644" data-name="Path 644" d="M258.891,218.5a3.136,3.136,0,1,0-3.131-3.131A3.136,3.136,0,0,0,258.891,218.5Zm-1.516-3.131a1.516,1.516,0,1,1,1.516,1.516,1.516,1.516,0,0,1-1.516-1.516Z" transform="translate(-114.291 -94.838)" fill="#420d11"/>
  <path id="Path_645" data-name="Path 645" d="M258.837,218.513a3.192,3.192,0,1,1,3.186-3.186,3.192,3.192,0,0,1-3.186,3.186Zm0-6.267a3.081,3.081,0,1,0,3.075,3.081,3.081,3.081,0,0,0-3.075-3.081Zm0,4.652a1.571,1.571,0,1,1,1.571-1.571A1.571,1.571,0,0,1,258.837,216.9Zm0-3.031a1.46,1.46,0,1,0,1.46,1.46A1.46,1.46,0,0,0,258.837,213.867Z" transform="translate(-114.237 -94.794)" fill="#420d11"/>
  <path id="Path_646" data-name="Path 646" d="M258.855,218.52a3.175,3.175,0,1,1,3.175-3.175A3.175,3.175,0,0,1,258.855,218.52Zm0-6.267a3.092,3.092,0,1,0,3.092,3.092A3.092,3.092,0,0,0,258.855,212.253Zm0,4.646a1.554,1.554,0,1,1,1.554-1.554A1.554,1.554,0,0,1,258.855,216.9Zm0-3.031a1.477,1.477,0,1,0,1.477,1.477A1.477,1.477,0,0,0,258.855,213.868Z" transform="translate(-114.255 -94.812)" fill="#bc2631"/>
  <path id="Path_647" data-name="Path 647" d="M258.806,218.531a3.23,3.23,0,1,1,3.225-3.23,3.23,3.23,0,0,1-3.225,3.23Zm0-6.267a3.037,3.037,0,1,0,3.037,3.037A3.037,3.037,0,0,0,258.806,212.264Zm0,4.646a1.61,1.61,0,1,1,1.61-1.61,1.61,1.61,0,0,1-1.61,1.61Zm0-3.031a1.422,1.422,0,1,0,1.422,1.422,1.422,1.422,0,0,0-1.422-1.422Z" transform="translate(-114.206 -94.767)" fill="#420d11"/>
</svg>
