<svg id="gruppezone_2" data-name="gruppezone 2" xmlns="http://www.w3.org/2000/svg" width="203" height="203" viewBox="0 0 203 203">
  <circle id="Ellipse_32" data-name="Ellipse 32" cx="101.5" cy="101.5" r="101.5" fill="#2e5599"/>
  <path id="Path_686" data-name="Path 686" d="M77.11,79.784a6.212,6.212,0,0,1-2.467.553,5.88,5.88,0,0,1-2.506-.553,7.677,7.677,0,0,1-2.345-1.659,8.552,8.552,0,0,1-1.151-1.493,6.893,6.893,0,0,1-.714-1.61,5.769,5.769,0,0,1-.249-1.659,6.112,6.112,0,0,1,.924-3.319,7.567,7.567,0,0,1,1.211-1.488,7.318,7.318,0,0,1,2.428-1.571,6.571,6.571,0,0,1,2.86-.465l-.2,2.1A4.978,4.978,0,0,0,71.3,70.1a4.193,4.193,0,0,0-.979,1.4,4,4,0,0,0-.332,1.61,4.364,4.364,0,0,0,.387,1.709,5.675,5.675,0,0,0,1.106,1.632,5.161,5.161,0,0,0,2.047,1.35,4.038,4.038,0,0,0,2.273.144,4.276,4.276,0,0,0,2.085-1.156,5.161,5.161,0,0,0,1.521-2.7l-1.565-1.615L75.5,74.745l-1.416-1.466,3.966-3.872,3.872,4.01a6.936,6.936,0,0,1-.785,2.5,9.287,9.287,0,0,1-1.787,2.351A7.406,7.406,0,0,1,77.11,79.784Z" transform="translate(-30.243 -29.72)" fill="#262b35"/>
  <path id="Path_687" data-name="Path 687" d="M100.968,60.984l-5.282-2.213-1.5.99L96.8,63.739,94.911,65,87.56,53.821l4.115-2.71a6.394,6.394,0,0,1,1.527-.752,3.916,3.916,0,0,1,1.4-.21,3.579,3.579,0,0,1,1.256.282,4.088,4.088,0,0,1,1.106.7,5.763,5.763,0,0,1,.913,1.106,4.209,4.209,0,0,1,.8,2.605,3.955,3.955,0,0,1-1.034,2.362v.033l5.6,2.229Zm-7.91-2.937,1.809-1.189a2.915,2.915,0,0,0,1.35-1.626,2.367,2.367,0,0,0-1.8-2.766,2.766,2.766,0,0,0-1.908.553L90.569,54.28Z" transform="translate(-39.127 -22.409)" fill="#262b35"/>
  <path id="Path_688" data-name="Path 688" d="M118.83,49.933a4.652,4.652,0,0,1-1.975-.343,4.829,4.829,0,0,1-1.7-1.206,6.9,6.9,0,0,1-1.294-2.047l-3.1-7.235,2.085-.9,3.026,7.075a4.69,4.69,0,0,0,1.106,1.6,2.943,2.943,0,0,0,1.482.774,2.727,2.727,0,0,0,1.659-.2,2.8,2.8,0,0,0,1.659-1.776,4,4,0,0,0-.277-2.8l-3.037-7.069,2.085-.9,3.092,7.241a5.786,5.786,0,0,1,.315,4.348,5.089,5.089,0,0,1-3,2.932A6.007,6.007,0,0,1,118.83,49.933Z" transform="translate(-49.495 -15.6)" fill="#262b35"/>
  <path id="Path_689" data-name="Path 689" d="M139.35,30.469l4.713-1.106a6.826,6.826,0,0,1,1.438-.183,4.74,4.74,0,0,1,1.233.149,3.817,3.817,0,0,1,1,.448,3.241,3.241,0,0,1,.791.714,4.52,4.52,0,0,1,.553.929,5.409,5.409,0,0,1,.387,1.139,5.139,5.139,0,0,1,.133,1.56,3.612,3.612,0,0,1-.354,1.311,3.767,3.767,0,0,1-.8,1.051,4.613,4.613,0,0,1-1.184.791,7.191,7.191,0,0,1-1.538.553l-2.246.525,1.073,4.641-2.213.514Zm5.719,5.4a2.921,2.921,0,0,0,1.831-1.056,2.1,2.1,0,0,0,.282-1.753,2.13,2.13,0,0,0-1.018-1.471,2.727,2.727,0,0,0-1.969-.149l-2.213.5,1.045,4.4Z" transform="translate(-62.271 -13.039)" fill="#262b35"/>
  <path id="Path_690" data-name="Path 690" d="M165.86,26.12l4.834-.293a6.439,6.439,0,0,1,1.444.061,4.547,4.547,0,0,1,1.189.348,3.651,3.651,0,0,1,.913.608,3.369,3.369,0,0,1,.669.835,4.979,4.979,0,0,1,.431,1,5.69,5.69,0,0,1,.194,1.184,5.294,5.294,0,0,1-.127,1.565,3.646,3.646,0,0,1-.553,1.228,3.789,3.789,0,0,1-.968.907,4.757,4.757,0,0,1-1.294.553,7.19,7.19,0,0,1-1.6.266l-2.3.138.288,4.757-2.262.138Zm4.746,6.273a2.932,2.932,0,0,0,1.969-.736A2.091,2.091,0,0,0,173.128,30a2.135,2.135,0,0,0-.763-1.621,2.716,2.716,0,0,0-1.914-.47l-2.213.133.271,4.5Z" transform="translate(-74.117 -11.534)" fill="#262b35"/>
  <path id="Path_691" data-name="Path 691" d="M191.666,25.69l8.358.857-.21,2.024-6.084-.625-.376,3.662,4.934.509-.227,2.041-4.934-.5-.36,3.546,6.494.664-.21,2.03-8.751-.913Z" transform="translate(-85.039 -11.48)" fill="#262b35"/>
  <path id="Path_692" data-name="Path 692" d="M221.215,42.495l-.553,1.964-9.232-2.517.465-1.715,8.85-7.445v-.033l-6.084-1.659.553-1.969,8.939,2.434-.459,1.693-8.939,7.462h0Z" transform="translate(-94.481 -13.013)" fill="#262b35"/>
  <path id="Path_693" data-name="Path 693" d="M237.849,51.433a6,6,0,0,1-1.311-2.213,6.267,6.267,0,0,1-.3-2.55,7.257,7.257,0,0,1,.73-2.661A7.479,7.479,0,0,1,238.6,41.8a6.56,6.56,0,0,1,2.179-1.355,6.306,6.306,0,0,1,2.544-.354,7.34,7.34,0,0,1,2.7.73,7.258,7.258,0,0,1,2.213,1.61,6.084,6.084,0,0,1,1.659,4.729,7.882,7.882,0,0,1-2.417,5.011,6.151,6.151,0,0,1-2.213,1.344,6.377,6.377,0,0,1-2.522.315,7.4,7.4,0,0,1-4.879-2.373Zm4.873.177a4.027,4.027,0,0,0,1.659-.277,4.6,4.6,0,0,0,1.477-.946,5.41,5.41,0,0,0,1.659-3.4,4.707,4.707,0,0,0-.177-1.737,4.126,4.126,0,0,0-.83-1.477,4.425,4.425,0,0,0-1.4-1.068,4.353,4.353,0,0,0-1.764-.443,4.16,4.16,0,0,0-1.687.3,4.536,4.536,0,0,0-1.455.962,5.117,5.117,0,0,0-1.106,1.51,5.028,5.028,0,0,0-.5,1.8,4.652,4.652,0,0,0,.149,1.742,4.054,4.054,0,0,0,.824,1.51,4.342,4.342,0,0,0,1.444,1.106,4.171,4.171,0,0,0,1.72.42Z" transform="translate(-105.556 -17.908)" fill="#262b35"/>
  <path id="Path_694" data-name="Path 694" d="M276.4,59.759l-8.148,10.581L266.4,68.93l.647-11.428h-.028l-5.758,7.462-1.792-1.383L267.618,53l1.787,1.372-.686,11.572h.033l5.852-7.595Z" transform="translate(-115.948 -23.684)" fill="#262b35"/>
  <path id="Path_695" data-name="Path 695" d="M290.576,73.37l5.647,6.223-1.51,1.366-4.121-4.541-2.727,2.473,3.319,3.673-1.477,1.372-3.319-3.673-2.638,2.39,4.381,4.84-1.5,1.366-5.946-6.516Z" transform="translate(-125.427 -32.787)" fill="#262b35"/>
  <path id="Path_696" data-name="Path 696" d="M102.584,317.817l-2.384-1.632a1.338,1.338,0,0,0-.149.94,1.178,1.178,0,0,0,.514.747,1.234,1.234,0,0,0,.553.221,1.432,1.432,0,0,0,.592-.05l.144.553a1.759,1.759,0,0,1-.83.083,1.9,1.9,0,0,1-.835-.337,1.864,1.864,0,0,1-.553-.553,1.7,1.7,0,0,1-.266-.669,1.787,1.787,0,0,1,.033-.741,2.345,2.345,0,0,1,.332-.747,2.279,2.279,0,0,1,.553-.581,1.864,1.864,0,0,1,.669-.3,1.754,1.754,0,0,1,1.366.266,1.714,1.714,0,0,1,.614.725,1.66,1.66,0,0,1,.122.913,2.152,2.152,0,0,1-.382.935,1.734,1.734,0,0,1-.094.232Zm-1.294-2.472a1.316,1.316,0,0,0-.774.409l1.875,1.278a1.344,1.344,0,0,0,.133-.835,1,1,0,0,0-.443-.653A1.106,1.106,0,0,0,101.29,315.344Z" transform="translate(-44.395 -140.632)" fill="#262b35"/>
  <path id="Path_697" data-name="Path 697" d="M109.547,319.889a1.776,1.776,0,0,1-.321,1.228l-1.189,1.969-.553-.321,1.106-1.82a2.378,2.378,0,0,0,.243-.52.957.957,0,0,0,.028-.426.73.73,0,0,0-.138-.321,1.107,1.107,0,0,0-.293-.249,1.068,1.068,0,0,0-.924-.122,1.532,1.532,0,0,0-.808.708l-1,1.659-.553-.326,2-3.319.553.321-.343.553h0a1.659,1.659,0,0,1,.774-.155,1.7,1.7,0,0,1,.763.249,1.267,1.267,0,0,1,.653.891Z" transform="translate(-46.988 -142.117)" fill="#262b35"/>
  <path id="Path_698" data-name="Path 698" d="M117.739,323.4l-3.186,2.7-.553-.282.465-4.143.592.315-.409,3.241h0l2.434-2.168Z" transform="translate(-50.943 -143.748)" fill="#262b35"/>
  <path id="Path_699" data-name="Path 699" d="M120.759,324.322l.553.271-1.659,3.485-.553-.271Zm.371-.769a.459.459,0,0,1,.277-.553.415.415,0,0,1,.343,0,.42.42,0,0,1,.177.149.5.5,0,0,1,.072.221.47.47,0,0,1-.044.232.459.459,0,0,1-.254.232.454.454,0,0,1-.553-.277Z" transform="translate(-53.222 -144.321)" fill="#262b35"/>
  <path id="Path_700" data-name="Path 700" d="M125.747,327.628l-.288.647a2.107,2.107,0,0,0-.227-.111,1,1,0,0,0-.625-.089,1.067,1.067,0,0,0-.553.277,1.6,1.6,0,0,0-.4.553l-.758,1.7-.553-.254,1.571-3.535.553.254-.271.614h0a1.5,1.5,0,0,1,.725-.216,1.273,1.273,0,0,1,.708.111A.969.969,0,0,1,125.747,327.628Z" transform="translate(-54.669 -146.045)" fill="#262b35"/>
  <path id="Path_701" data-name="Path 701" d="M128.063,332.953a1.82,1.82,0,0,1-.42-.614,1.848,1.848,0,0,1-.133-.73,2.163,2.163,0,0,1,.149-.774,2.29,2.29,0,0,1,.415-.68,1.792,1.792,0,0,1,1.322-.614,2.035,2.035,0,0,1,.8.149,1.936,1.936,0,0,1,.83.592,1.792,1.792,0,0,1,.393.907,2.152,2.152,0,0,1-.144,1.056,2.124,2.124,0,0,1-.608.868,1.787,1.787,0,0,1-.9.4,1.959,1.959,0,0,1-1.012-.127,2.052,2.052,0,0,1-.686-.437Zm1.576-.044a1.251,1.251,0,0,0,.62-.288,1.482,1.482,0,0,0,.42-.608,1.449,1.449,0,0,0,.1-.741,1.189,1.189,0,0,0-.254-.625,1.289,1.289,0,0,0-.553-.4,1.261,1.261,0,0,0-.708-.077,1.239,1.239,0,0,0-.614.3,1.521,1.521,0,0,0-.409.6,1.488,1.488,0,0,0-.094.708,1.289,1.289,0,0,0,.243.642,1.338,1.338,0,0,0,.553.42A1.283,1.283,0,0,0,129.639,332.908Z" transform="translate(-56.979 -147.26)" fill="#262b35"/>
  <path id="Path_702" data-name="Path 702" d="M138.963,333a1.792,1.792,0,0,1-.033,1.267l-.708,2.213-.6-.194.653-2.019a2.213,2.213,0,0,0,.116-.553.974.974,0,0,0-.066-.42.819.819,0,0,0-.21-.282,1.107,1.107,0,0,0-.343-.172,1.068,1.068,0,0,0-.929.089,1.532,1.532,0,0,0-.62.874l-.6,1.842-.6-.194,1.195-3.684.6.194-.2.631h0a1.577,1.577,0,0,1,.719-.326,1.709,1.709,0,0,1,.8.066A1.25,1.25,0,0,1,138.963,333Z" transform="translate(-60.34 -148.257)" fill="#262b35"/>
  <path id="Path_703" data-name="Path 703" d="M149.25,335.857a1.919,1.919,0,0,1,0,1.289l-.553,2.213-.608-.149.5-2.036a1.659,1.659,0,0,0,0-.957.78.78,0,0,0-.553-.448.918.918,0,0,0-.824.194,1.6,1.6,0,0,0-.553.918l-.459,1.864-.6-.144.5-2.041a2.063,2.063,0,0,0,.066-.7.774.774,0,0,0-.194-.465.913.913,0,0,0-.448-.238.963.963,0,0,0-.846.183,1.56,1.56,0,0,0-.553.924l-.459,1.864-.6-.149.924-3.756.6.149-.155.636h0a1.659,1.659,0,0,1,.675-.376,1.532,1.532,0,0,1,.725,0,1.162,1.162,0,0,1,.974,1.018h0a1.626,1.626,0,0,1,.7-.4,1.577,1.577,0,0,1,.8,0A1.223,1.223,0,0,1,149.25,335.857Z" transform="translate(-63.929 -149.352)" fill="#262b35"/>
  <path id="Path_704" data-name="Path 704" d="M159.34,339.786l-2.849-.481a1.339,1.339,0,0,0,.254.918,1.184,1.184,0,0,0,.78.465,1.216,1.216,0,0,0,.619-.044,1.328,1.328,0,0,0,.514-.293l.365.454a1.786,1.786,0,0,1-.714.415,1.908,1.908,0,0,1-.907.05,1.809,1.809,0,0,1-.7-.271,1.7,1.7,0,0,1-.52-.492,1.815,1.815,0,0,1-.282-.686,2.29,2.29,0,0,1,0-.824,2.356,2.356,0,0,1,.271-.769,1.953,1.953,0,0,1,.481-.553,1.66,1.66,0,0,1,.631-.3,1.693,1.693,0,0,1,2.08,1.15,2.13,2.13,0,0,1,.044,1.012A1.431,1.431,0,0,1,159.34,339.786Zm-2.213-1.7a1.327,1.327,0,0,0-.553.7l2.24.376a1.36,1.36,0,0,0-.227-.819,1.029,1.029,0,0,0-.675-.4,1.106,1.106,0,0,0-.78.149Z" transform="translate(-69.65 -150.731)" fill="#262b35"/>
  <path id="Path_705" data-name="Path 705" d="M167.043,338.935a1.781,1.781,0,0,1,.221,1.25l-.254,2.284-.625-.072.238-2.107a2.213,2.213,0,0,0,0-.553,1,1,0,0,0-.149-.4.747.747,0,0,0-.26-.232,1.046,1.046,0,0,0-.365-.105,1.106,1.106,0,0,0-.9.277,1.538,1.538,0,0,0-.437.974l-.216,1.925-.62-.072.431-3.844.625.072-.077.658h0a1.66,1.66,0,0,1,.647-.465,1.8,1.8,0,0,1,.791-.094,1.25,1.25,0,0,1,.946.5Z" transform="translate(-73.143 -151.157)" fill="#262b35"/>
  <path id="Path_706" data-name="Path 706" d="M172.057,340.72l.144-2.157-.481-.033.039-.553.481.033.089-1.322.631-.028-.094,1.394,1.239.083-.039.553-1.239-.083-.138,2.058a1.012,1.012,0,0,0,.066.553.382.382,0,0,0,.343.194,1.289,1.289,0,0,0,.647-.155l.127.553a2.1,2.1,0,0,1-.238.105,1.364,1.364,0,0,1-.293.066,2.293,2.293,0,0,1-.393,0C172.3,341.92,172,341.5,172.057,340.72Z" transform="translate(-76.736 -150.442)" fill="#262b35"/>
  <path id="Path_707" data-name="Path 707" d="M177.419,338.3h-.459v-.553h.459v-.785a1.361,1.361,0,0,1,.3-.924,1,1,0,0,1,.791-.293,1.615,1.615,0,0,1,.863.277l-.155.553a1.477,1.477,0,0,0-.653-.216c-.343,0-.52.216-.553.691l-.028.719,1.068.039v.553l-1.062-.039-.116,3.319h-.62Z" transform="translate(-79.078 -150.033)" fill="#262b35"/>
  <path id="Path_708" data-name="Path 708" d="M182.8,343.192a1.621,1.621,0,0,1-.62-.409,1.959,1.959,0,0,1-.4-.631,2.213,2.213,0,0,1-.149-.774,2.318,2.318,0,0,1,.133-.785,1.941,1.941,0,0,1,.387-.636,1.8,1.8,0,0,1,.608-.426,2.109,2.109,0,0,1,.8-.16,2.008,2.008,0,0,1,1,.238,1.847,1.847,0,0,1,.7.7,2.213,2.213,0,0,1,.26,1.034,2.113,2.113,0,0,1-.238,1.034,1.759,1.759,0,0,1-.686.708,1.986,1.986,0,0,1-.99.26A1.892,1.892,0,0,1,182.8,343.192Zm1.444-.625a1.222,1.222,0,0,0,.465-.5,1.422,1.422,0,0,0,.166-.719,1.46,1.46,0,0,0-.183-.73,1.233,1.233,0,0,0-1.106-.653,1.3,1.3,0,0,0-.686.188,1.278,1.278,0,0,0-.454.514,1.571,1.571,0,0,0,0,1.394,1.217,1.217,0,0,0,.47.5,1.3,1.3,0,0,0,.686.183,1.333,1.333,0,0,0,.642-.183Z" transform="translate(-81.165 -151.653)" fill="#262b35"/>
  <path id="Path_709" data-name="Path 709" d="M192.3,339.05l.039.708h-.249a1.074,1.074,0,0,0-.968.708,1.66,1.66,0,0,0-.094.7l.105,1.864-.625.033-.221-3.872.625-.033.039.675h0a1.659,1.659,0,0,1,.5-.553,1.311,1.311,0,0,1,.68-.221Z" transform="translate(-85.034 -151.51)" fill="#262b35"/>
  <path id="Path_710" data-name="Path 710" d="M195.05,335.365l.62-.055.5,5.841-.6.072Z" transform="translate(-87.161 -149.839)" fill="#262b35"/>
  <path id="Path_711" data-name="Path 711" d="M202.215,340.224l-2.86.36a1.322,1.322,0,0,0,.5.8,1.206,1.206,0,0,0,.885.221,1.272,1.272,0,0,0,.581-.216,1.5,1.5,0,0,0,.4-.431l.481.326a1.8,1.8,0,0,1-.553.608,1.936,1.936,0,0,1-.852.3,1.9,1.9,0,0,1-1.394-.376,1.848,1.848,0,0,1-.465-.553,2.291,2.291,0,0,1-.243-.785,2.213,2.213,0,0,1,.039-.819,1.892,1.892,0,0,1,.3-.669,1.659,1.659,0,0,1,.514-.47,1.764,1.764,0,0,1,1.626-.1,1.659,1.659,0,0,1,.7.6,2.212,2.212,0,0,1,.337.957A1.5,1.5,0,0,1,202.215,340.224Zm-2.605-1a1.316,1.316,0,0,0-.31.819l2.251-.282a1.339,1.339,0,0,0-.454-.719,1.04,1.04,0,0,0-.763-.194A1.106,1.106,0,0,0,199.61,339.229Z" transform="translate(-88.784 -151.163)" fill="#262b35"/>
  <path id="Path_712" data-name="Path 712" d="M209.859,336.57l.68,3.811-.586.105-.111-.6h0a1.571,1.571,0,0,1-1.178.891,1.83,1.83,0,0,1-.736,0,1.659,1.659,0,0,1-.642-.282,1.748,1.748,0,0,1-.5-.553,2.213,2.213,0,0,1-.282-.763,2.163,2.163,0,0,1,.055-1.051,1.715,1.715,0,0,1,.514-.824,1.77,1.77,0,0,1,.885-.426,1.659,1.659,0,0,1,.741.028,1.543,1.543,0,0,1,.636.354h0l-.105-.553Zm-.791,3.424a1.146,1.146,0,0,0,.348-.343,1.267,1.267,0,0,0,.194-.476,1.61,1.61,0,0,0,0-.553,1.559,1.559,0,0,0-.188-.553,1.416,1.416,0,0,0-.343-.4,1.183,1.183,0,0,0-.448-.227,1.106,1.106,0,0,0-.5,0,1.167,1.167,0,0,0-.824.553,1.4,1.4,0,0,0-.177,1.073,1.366,1.366,0,0,0,.514.9,1.167,1.167,0,0,0,.968.221,1.207,1.207,0,0,0,.459-.2Z" transform="translate(-92.263 -150.402)" fill="#262b35"/>
  <path id="Path_713" data-name="Path 713" d="M216.49,335.25l.16.691a1.109,1.109,0,0,0-.249.044,1.067,1.067,0,0,0-.553.3,1.106,1.106,0,0,0-.282.553,1.814,1.814,0,0,0,0,.708l.42,1.82-.608.138-.868-3.772.614-.144.149.664h0a1.62,1.62,0,0,1,.4-.642,1.3,1.3,0,0,1,.636-.332Z" transform="translate(-95.857 -149.812)" fill="#262b35"/>
  <path id="Path_714" data-name="Path 714" d="M222.387,334.039a1.8,1.8,0,0,1,.669,1.073l.614,2.213-.608.171-.553-2.047a2.169,2.169,0,0,0-.21-.553.979.979,0,0,0-.288-.31.835.835,0,0,0-.332-.122,1.029,1.029,0,0,0-.376.044,1.067,1.067,0,0,0-.73.586,1.51,1.51,0,0,0-.039,1.068l.514,1.864-.6.166-1.045-3.712.608-.166.177.642h0a1.548,1.548,0,0,1,.426-.669,1.593,1.593,0,0,1,.7-.382,1.244,1.244,0,0,1,1.079.133Z" transform="translate(-98.042 -149.181)" fill="#262b35"/>
  <path id="Path_715" data-name="Path 715" d="M226.578,330.6a.47.47,0,0,1-.194-.608.415.415,0,0,1,.26-.221.42.42,0,0,1,.232,0,.553.553,0,0,1,.2.111.476.476,0,0,1,.127.2.437.437,0,0,1,0,.343.4.4,0,0,1-.26.221.415.415,0,0,1-.371-.044Zm.26.813.592-.194,1.184,3.689-.6.188Z" transform="translate(-101.144 -147.354)" fill="#262b35"/>
  <path id="Path_716" data-name="Path 716" d="M233.377,330.4a1.77,1.77,0,0,1,.752,1.018l.78,2.163-.586.21L233.6,331.8a2.47,2.47,0,0,0-.254-.514.935.935,0,0,0-.31-.288.758.758,0,0,0-.337-.094,1.051,1.051,0,0,0-.376.072,1.067,1.067,0,0,0-.68.636,1.51,1.51,0,0,0,.044,1.073l.658,1.814-.592.216-1.316-3.64.592-.21.227.625h0a1.571,1.571,0,0,1,.371-.7,1.736,1.736,0,0,1,.669-.437,1.25,1.25,0,0,1,1.079.05Z" transform="translate(-102.976 -147.578)" fill="#262b35"/>
  <path id="Path_717" data-name="Path 717" d="M241.477,326.48l1.4,3.291a2.766,2.766,0,0,1,.2.752,1.73,1.73,0,0,1-.066.68,1.4,1.4,0,0,1-.376.592,2.213,2.213,0,0,1-.719.459,2.843,2.843,0,0,1-1.571.216l-.094-.608a3.03,3.03,0,0,0,.73.028,2.246,2.246,0,0,0,.669-.183,1.555,1.555,0,0,0,.476-.3,1.051,1.051,0,0,0,.277-.382,1.068,1.068,0,0,0,.072-.42,1.25,1.25,0,0,0-.1-.437l-.21-.5h0a1.554,1.554,0,0,1-.94,1.045,1.814,1.814,0,0,1-.7.144,1.588,1.588,0,0,1-.68-.127,1.659,1.659,0,0,1-.6-.4,2.173,2.173,0,0,1-.443-.669,2.09,2.09,0,0,1-.166-.99,1.7,1.7,0,0,1,1.056-1.477,1.825,1.825,0,0,1,.725-.149,1.621,1.621,0,0,1,.7.171h0l-.21-.492Zm.232,2.959a1.394,1.394,0,0,0-.055-1.018,1.3,1.3,0,0,0-.7-.725,1.228,1.228,0,0,0-.968,0,1.162,1.162,0,0,0-.669.691,1.333,1.333,0,0,0,.05,1,1.66,1.66,0,0,0,.238.393,1.184,1.184,0,0,0,.3.277,1.337,1.337,0,0,0,.354.149,1.244,1.244,0,0,0,.382.028,1.51,1.51,0,0,0,.376-.1A1.156,1.156,0,0,0,241.709,329.439Z" transform="translate(-106.64 -145.893)" fill="#262b35"/>
  <path id="Path_718" data-name="Path 718" d="M248.186,331.134a.459.459,0,0,1-.254-.232.448.448,0,0,1,0-.349.443.443,0,0,1,.553-.271.448.448,0,0,1,.254.238.432.432,0,0,1-.033.443.415.415,0,0,1-.171.155A.448.448,0,0,1,248.186,331.134Z" transform="translate(-110.776 -147.582)" fill="#262b35"/>
  <path id="Path_719" data-name="Path 719" d="M250.858,326.465a1.659,1.659,0,0,1-.913-.321,2.085,2.085,0,0,1-.686-.8,2.157,2.157,0,0,1-.26-1.034,1.659,1.659,0,0,1,.271-.929,1.847,1.847,0,0,1,.747-.675,2.042,2.042,0,0,1,.83-.227,1.781,1.781,0,0,1,.835.149l-.2.553a1.394,1.394,0,0,0-.553-.111,1.438,1.438,0,0,0-.592.16,1.184,1.184,0,0,0-.636.769,1.416,1.416,0,0,0,.138,1.056,1.444,1.444,0,0,0,.78.73,1.189,1.189,0,0,0,1-.077,1.449,1.449,0,0,0,.481-.393,1.273,1.273,0,0,0,.26-.509l.553.16a1.909,1.909,0,0,1-.365.725,2.274,2.274,0,0,1-.714.553A1.775,1.775,0,0,1,250.858,326.465Z" transform="translate(-111.27 -144.103)" fill="#262b35"/>
  <path id="Path_720" data-name="Path 720" d="M257.729,322.765a1.742,1.742,0,0,1-.741-.05,1.826,1.826,0,0,1-.653-.348,2.074,2.074,0,0,1-.514-.6,2.124,2.124,0,0,1-.271-.752,1.853,1.853,0,0,1,0-.741,1.8,1.8,0,0,1,.321-.675,2.03,2.03,0,0,1,.608-.553,2,2,0,0,1,.979-.288,1.792,1.792,0,0,1,.957.26,2.273,2.273,0,0,1,1.04,1.781,1.842,1.842,0,0,1-.243.957,2.08,2.08,0,0,1-1.5.985Zm.946-1.261a1.238,1.238,0,0,0,.155-.664,1.593,1.593,0,0,0-.725-1.25,1.234,1.234,0,0,0-.664-.144,1.35,1.35,0,0,0-1.156.686,1.234,1.234,0,0,0-.144.675,1.444,1.444,0,0,0,.216.686,1.482,1.482,0,0,0,.492.52,1.261,1.261,0,0,0,1.333,0,1.339,1.339,0,0,0,.492-.492Z" transform="translate(-114.18 -142.443)" fill="#262b35"/>
  <path id="Path_721" data-name="Path 721" d="M266.558,311.757a1.93,1.93,0,0,1,.974.846l1.283,1.87-.514.354-1.184-1.731a1.693,1.693,0,0,0-.7-.658.763.763,0,0,0-.719.133.913.913,0,0,0-.4.741,1.593,1.593,0,0,0,.326,1.018l1.106,1.587-.514.348-1.189-1.737a2.108,2.108,0,0,0-.476-.52.829.829,0,0,0-.476-.166,1.012,1.012,0,0,0-.907.935,1.576,1.576,0,0,0,.321,1.018l1.106,1.588-.514.354-2.185-3.2.514-.354.376.553h0a1.693,1.693,0,0,1,.171-.752,1.427,1.427,0,0,1,.476-.553,1.156,1.156,0,0,1,1.4-.044h0a1.6,1.6,0,0,1,.7-1.394A1.228,1.228,0,0,1,266.558,311.757Z" transform="translate(-117.03 -139.301)" fill="#262b35"/>
  <path id="Path_722" data-name="Path 722" d="M184.072,157.391a11.356,11.356,0,0,0,.68-17.617v-5.338a17.075,17.075,0,0,0-10.216-15.62,11.383,11.383,0,1,0-13.69,0,16.993,16.993,0,0,0-6.5,5.011H121.877a16.992,16.992,0,0,0-6.5-5.011,11.372,11.372,0,1,0-13.69,0,17.075,17.075,0,0,0-10.216,15.62v5.338a11.356,11.356,0,0,0,.68,17.617A17.086,17.086,0,0,0,81.93,173.017v6.925a1.864,1.864,0,0,0,3.728,0v-6.925a13.331,13.331,0,0,1,26.661,0v7a.476.476,0,0,0,0,.089.822.822,0,0,0,0,.116.326.326,0,0,1,0,.072l.033.138a.17.17,0,0,1,0,.044,1.6,1.6,0,0,0,.155.36h0a.969.969,0,0,0,.1.16.1.1,0,0,0,.028.039.863.863,0,0,0,.088.111h0l.033.033.083.089.055.05.094.077.055.044.1.066.061.033.116.061h.05l.133.05h.05l.144.039h.039l.16.028h14.868a12.92,12.92,0,0,0,2.118,1.881,18.989,18.989,0,0,0-11.738,17.534v7.8a1.864,1.864,0,1,0,3.728,0v-7.8a15.243,15.243,0,1,1,30.486,0l0,7.8a1.864,1.864,0,0,0,3.723,0v-7.8A18.989,18.989,0,0,0,145.341,183.6a12.723,12.723,0,0,0,2.118-1.881h14.813l.16-.028h.039l.149-.039h.044l.133-.05h.055l.111-.061.061-.033.1-.066.061-.044.089-.077.055-.05.083-.089.033-.033h0a.862.862,0,0,0,.089-.111.1.1,0,0,0,.028-.039.967.967,0,0,0,.1-.16h0a1.6,1.6,0,0,0,.155-.36.171.171,0,0,1,0-.044l.033-.138v-.282a.364.364,0,0,0,0-.077v-6.92a13.331,13.331,0,1,1,26.661,0v6.925a1.864,1.864,0,0,0,3.728,0v-6.925a17.088,17.088,0,0,0-10.17-15.627Zm-6.837-1.433a7.655,7.655,0,1,1,4.536-13.828l.077.061a7.65,7.65,0,0,1-4.613,13.756Zm-17.191-46.236a7.655,7.655,0,1,1,7.661,7.655,7.655,7.655,0,0,1-7.661-7.655Zm-59.185,0a7.649,7.649,0,1,0,.017,0ZM91.333,148.3a7.639,7.639,0,0,1,3.042-6.084l.089-.066a7.65,7.65,0,1,1-3.131,6.167Zm14.492,9.088A11.372,11.372,0,0,0,95.2,137.578v-3.142a13.331,13.331,0,0,1,24.426-7.39L114.3,165.505A17.18,17.18,0,0,0,105.825,157.391Zm25.494,21.677a1.842,1.842,0,0,0-.382-.492,8.85,8.85,0,1,1,14.348,0,1.842,1.842,0,0,0-.382.492,8.85,8.85,0,0,1-13.585,0Zm18.464-.99a12.573,12.573,0,1,0-23.342,0H116.324l7-50.54h29.587l7,50.54Zm12.169-12.573-5.327-38.459a13.336,13.336,0,0,1,24.432,7.39v3.142a11.372,11.372,0,0,0-10.631,19.813,17.18,17.18,0,0,0-8.5,8.114Z" transform="translate(-36.612 -43.943)" fill="#262b35"/>
  <path id="Path_723" data-name="Path 723" d="M155.027,210.927a2.135,2.135,0,0,1-2.135-2.135v-7.8a14.966,14.966,0,1,0-29.933,0l0,7.8a2.141,2.141,0,0,1-4.281,0v-7.8a19.194,19.194,0,0,1,11.461-17.6,13.1,13.1,0,0,1-1.687-1.538H114a1.512,1.512,0,0,1-.227,0l-.221-.033a1.213,1.213,0,0,1-.216-.061h-.061l-.144-.061-.061-.028-.133-.066-.05-.033-.127-.127-.066-.05-.105-.083-.061-.061-.1-.1-.039-.039a1.7,1.7,0,0,1-.111-.144l-.039-.05a1.455,1.455,0,0,1-.111-.183,1.781,1.781,0,0,1-.171-.409.7.7,0,0,0-.055-.216v-7.323a13.054,13.054,0,1,0-26.108,0v6.925a2.141,2.141,0,0,1-4.281,0v-6.925A17.357,17.357,0,0,1,91.466,157.1a11.616,11.616,0,0,1-.426-17.7v-5.194A17.346,17.346,0,0,1,101,118.521a11.655,11.655,0,1,1,14.741,0,17.263,17.263,0,0,1,6.084,4.8h32.2a17.357,17.357,0,0,1,6.084-4.8,11.66,11.66,0,1,1,14.741,0,17.346,17.346,0,0,1,9.956,15.687v5.2a11.677,11.677,0,0,1,3.872,8.657,11.56,11.56,0,0,1-4.265,9.044,17.357,17.357,0,0,1,9.956,15.687v6.925a2.141,2.141,0,0,1-4.281,0v-6.931a13.054,13.054,0,0,0-26.108,0V179.9a1.1,1.1,0,0,1,0,.133v.083a.9.9,0,0,1-.039.166,2.019,2.019,0,0,1-.188.459,1.455,1.455,0,0,1-.111.183l-.039.05a.719.719,0,0,1-.1.127l-.044.05-.105.105-.061.061-.105.083-.072.055-.111.072-.066.044-.133.066-.171-.221.111.249-.149.061h-.061l-.166.044-.227.039a1.706,1.706,0,0,1-.266,0H147.394a13.1,13.1,0,0,1-1.687,1.538,19.194,19.194,0,0,1,11.461,17.6v7.8a2.135,2.135,0,0,1-2.141,2.179Zm-17.1-25.444A15.537,15.537,0,0,1,153.445,201v7.8a1.587,1.587,0,0,0,3.169,0V201a18.652,18.652,0,0,0-11.566-17.28l-.465-.194.409-.288a12.423,12.423,0,0,0,2.058-1.853l.083-.089h14.874l.166-.028.155-.039.149-.061.149-.072.194.2-.144-.238.083-.055.05-.039.077-.061.044-.044.077-.077.243.138-.21-.177.077-.094a.951.951,0,0,0,.105-.171,1.659,1.659,0,0,0,.133-.3.484.484,0,0,1,.039-.16h.282l-.277-.044v-.194l.282-.077h-.277v-6.92a13.607,13.607,0,0,1,27.214,0v6.925a1.587,1.587,0,1,0,3.175,0v-6.925a16.8,16.8,0,0,0-10.056-15.372l-.431-.188.376-.288a11.063,11.063,0,0,0,.664-17.191l-.094-.083v-5.459a16.8,16.8,0,0,0-10.05-15.372l-.431-.188.376-.282a11.107,11.107,0,1,0-13.353,0l.376.288-.437.188a16.8,16.8,0,0,0-6.394,4.928l-.083.105h-32.7l-.083-.105a16.8,16.8,0,0,0-6.394-4.928l-.431-.188.376-.288a11.1,11.1,0,1,0-13.331.022l.376.282-.431.188A16.8,16.8,0,0,0,91.56,134.208v5.459l-.094.083a11.063,11.063,0,0,0,.664,17.191l.376.288-.431.188a16.8,16.8,0,0,0-10.056,15.372v6.925a1.587,1.587,0,0,0,3.175,0v-6.925a13.607,13.607,0,1,1,27.214,0v6.925l-.271.077h.277v.171l-.266.116.271-.055.033.122a1.709,1.709,0,0,0,.133.343.791.791,0,0,0,.088.133l.1.133-.166.227.2-.188a.476.476,0,0,0,.072.077l.044.044.077.061.05.039.089.055-.089.271.138-.238.1.05c.077.039.116.05.155.066l.16.05.171.028h14.9l.083.089a12.646,12.646,0,0,0,2.074,1.842l.409.288-.459.194a18.646,18.646,0,0,0-11.572,17.28v7.8a1.587,1.587,0,1,0,3.175,0v-7.8a15.538,15.538,0,0,1,15.532-15.515Zm0-3.169a9.1,9.1,0,0,1-7-3.286l-.033-.05a1.565,1.565,0,0,0-.326-.415,9.127,9.127,0,1,1,14.758-.044,1.937,1.937,0,0,0-.36.459l-.028.05a9.127,9.127,0,0,1-7.008,3.275Zm-6.56-3.634a8.557,8.557,0,0,0,13.126,0,2.168,2.168,0,0,1,.42-.553,8.579,8.579,0,1,0-13.933.044A1.942,1.942,0,0,1,131.364,178.68Zm28.669-.553H149.186l.155-.382a12.3,12.3,0,1,0-22.828,0l.149.382H115.815l.044-.315,7.03-50.778h30.068ZM150,177.573h9.4l-6.92-49.987H123.371l-6.92,49.987h9.4a12.855,12.855,0,1,1,24.15,0Zm-35.738-11.361-.4-.808a16.86,16.86,0,0,0-8.336-7.982l-.431-.188.376-.288A11.1,11.1,0,0,0,95.1,137.615l-.365.133v-3.54a13.6,13.6,0,0,1,24.93-7.523l.061.083v.105Zm-8.092-9.1a17.413,17.413,0,0,1,7.788,7.285l5.194-37.5a13.054,13.054,0,0,0-23.862,7.323v2.766a11.655,11.655,0,0,1,10.88,20.129Zm55.418,9.11-5.465-39.461.061-.089a13.613,13.613,0,0,1,24.935,7.545v3.535l-.371-.133a11.1,11.1,0,0,0-10.371,19.332l.376.288-.431.188a16.859,16.859,0,0,0-8.336,7.982ZM156.7,126.89l5.194,37.5a17.44,17.44,0,0,1,7.788-7.285,11.655,11.655,0,0,1,10.886-20.14V134.2a13.059,13.059,0,0,0-23.868-7.324ZM177.047,156a7.932,7.932,0,0,1,0-15.858,7.832,7.832,0,0,1,4.7,1.543l.083.061A7.926,7.926,0,0,1,177.047,156Zm0-15.305a7.384,7.384,0,1,0,4.425,1.493l-.055-.039a7.329,7.329,0,0,0-4.37-1.449ZM98.8,156a7.926,7.926,0,0,1-4.785-14.249l.089-.066A7.926,7.926,0,1,1,98.8,156Zm0-15.305a7.318,7.318,0,0,0-4.359,1.427l-.1.077a7.373,7.373,0,1,0,4.458-1.5Zm68.716-23.27a7.932,7.932,0,1,1,7.926-7.93,7.932,7.932,0,0,1-7.926,7.93Zm0-15.305a7.379,7.379,0,1,0,7.373,7.373,7.379,7.379,0,0,0-7.373-7.373Zm-59.185,15.305a7.932,7.932,0,1,1,7.926-7.93,7.932,7.932,0,0,1-7.926,7.93Zm0-15.305a7.379,7.379,0,1,0,7.373,7.373,7.379,7.379,0,0,0-7.373-7.373Z" transform="translate(-36.424 -43.715)" fill="#2e5599"/>
</svg>
