<svg id="It" xmlns="http://www.w3.org/2000/svg" width="200" height="197" viewBox="0 0 200 197">
  <g id="Layer_1" data-name="Layer 1" transform="translate(0.334 -0.27)">
    <path id="Exclusion_5" data-name="Exclusion 5" d="M100,197a102.209,102.209,0,0,1-20.153-2,100.258,100.258,0,0,1-50.557-26.848,99.584,99.584,0,0,1-12.211-14.578,98.172,98.172,0,0,1-9.221-16.732,97.295,97.295,0,0,1,0-76.681,98.163,98.163,0,0,1,9.221-16.732,100.106,100.106,0,0,1,44-35.687A100.62,100.62,0,0,1,79.846,2a102.457,102.457,0,0,1,40.306,0A100.272,100.272,0,0,1,170.71,28.85a99.571,99.571,0,0,1,12.211,14.578,98.168,98.168,0,0,1,9.221,16.732,97.291,97.291,0,0,1,0,76.681,98.187,98.187,0,0,1-9.221,16.732,100.116,100.116,0,0,1-44,35.687A100.618,100.618,0,0,1,120.153,195,102.217,102.217,0,0,1,100,197Zm2.184-51.571v.957h2.544v7.545h1.047v-7.545h2.577v-.957h-6.168Zm-2.568,0v8.5h1.048v-8.5H99.616Zm16.816-68.168v37.295c0,2.731,2.67,4.953,5.952,4.953h22.608c3.22,0,5.976-2.112,6.144-4.708V77.261ZM63.879,114.556a2.8,2.8,0,0,0-2.975,2.471,2.763,2.763,0,0,0,2.975,2.474H95.608a2.8,2.8,0,0,0,2.976-2.474,2.762,2.762,0,0,0-2.976-2.471H89.064v-4.45H70.4v4.45Zm-8.327-52.8c-3.281,0-5.951,2.218-5.951,4.945v33.5c0,2.731,2.67,4.953,5.951,4.953h48.192c3.277,0,5.943-2.222,5.943-4.953V66.7c0-2.727-2.666-4.945-5.943-4.945Zm66.848.025c-3.281,0-5.951,2.222-5.951,4.953v5.582h34.688V66.734c0-2.685-2.814-4.953-6.144-4.953Zm11.261,47.187a3.133,3.133,0,0,1-2.82-1.782,2.108,2.108,0,0,1,.122-1.715,2.863,2.863,0,0,1,1.862-1.372,3.548,3.548,0,0,1,.909-.119,2.845,2.845,0,0,1,2.867,2.009c.288,1.269-.535,2.413-2.047,2.848A3.1,3.1,0,0,1,133.66,108.967Zm0-10.56a3.134,3.134,0,0,1-2.82-1.782,2.11,2.11,0,0,1,.122-1.715,2.864,2.864,0,0,1,1.862-1.371,3.54,3.54,0,0,1,.909-.12,2.846,2.846,0,0,1,2.867,2.009c.288,1.27-.535,2.414-2.047,2.848A3.106,3.106,0,0,1,133.66,98.407Z" transform="translate(-0.333 0.27)" fill="#fff"/>
  </g>
</svg>
