<svg id="Kollaboration" xmlns="http://www.w3.org/2000/svg" width="200" height="198" viewBox="0 0 200 198">
  <g id="Layer_1" data-name="Layer 1" transform="translate(-0.323 0.083)">
    <path id="Exclusion_9" data-name="Exclusion 9" d="M100,198a101.691,101.691,0,0,1-20.153-2.011,100.105,100.105,0,0,1-62.769-41.636,98.76,98.76,0,0,1-9.22-16.817A97.84,97.84,0,0,1,0,99,97.91,97.91,0,0,1,17.078,43.649,100.086,100.086,0,0,1,79.847,2.011a101.963,101.963,0,0,1,40.306,0,100.1,100.1,0,0,1,62.769,41.637,98.121,98.121,0,0,1,0,110.7,100.074,100.074,0,0,1-62.769,41.636A101.684,101.684,0,0,1,100,198Zm35.94-51.09a4.636,4.636,0,0,0-1.708.325,3.845,3.845,0,0,0-1.351.9,4.284,4.284,0,0,0-.873,1.388,4.871,4.871,0,0,0,0,3.43,4.25,4.25,0,0,0,.873,1.379,3.893,3.893,0,0,0,1.351.922v.04a4.6,4.6,0,0,0,3.417,0,3.882,3.882,0,0,0,1.352-.883,3.987,3.987,0,0,0,.9-1.378,4.8,4.8,0,0,0,.328-1.772,4.693,4.693,0,0,0-.328-1.771,3.936,3.936,0,0,0-2.248-2.26A4.635,4.635,0,0,0,135.94,146.91Zm-35.344,0a4.632,4.632,0,0,0-1.709.325,3.831,3.831,0,0,0-1.351.9,4.283,4.283,0,0,0-.872,1.388,4.855,4.855,0,0,0,0,3.43,4.235,4.235,0,0,0,.872,1.379,3.9,3.9,0,0,0,1.351.922v.04a4.6,4.6,0,0,0,3.417,0,3.878,3.878,0,0,0,1.352-.883,3.981,3.981,0,0,0,.9-1.378,4.812,4.812,0,0,0,.328-1.772,4.7,4.7,0,0,0-.328-1.771,3.938,3.938,0,0,0-2.248-2.26A4.631,4.631,0,0,0,100.6,146.91Zm-39.2,0a4.637,4.637,0,0,0-1.708.325,3.862,3.862,0,0,0-1.352.9,4.3,4.3,0,0,0-.873,1.388,4.871,4.871,0,0,0,0,3.43,4.256,4.256,0,0,0,.873,1.379,3.923,3.923,0,0,0,1.352.922v.04a4.6,4.6,0,0,0,3.416,0,3.892,3.892,0,0,0,1.353-.883,3.977,3.977,0,0,0,.9-1.378,4.787,4.787,0,0,0,.328-1.772,4.724,4.724,0,0,0-.328-1.771,3.934,3.934,0,0,0-2.248-2.26A4.631,4.631,0,0,0,61.4,146.91Zm81.66,1.871v0l4.8,6.732h1.064v-8.546h-1.073v6.806l-4.8-6.806h-1.032v8.546h1.041v-6.734ZM128.8,146.969h0v8.546h1.048v-8.546Zm-7.688,0h0v.962h2.544v7.584H124.7v-7.584h2.576v-.962Zm-5.567,6.47h3.8l.759,2.076h1.1l-3.312-8.546h-1.047l-3.2,8.546h1.1l.8-2.075Zm-6.232-1.18,2.168,3.256,1.272-.081-2.272-3.342a2.307,2.307,0,0,0,2.032-2.5,3.126,3.126,0,0,0-.168-1.058,2.288,2.288,0,0,0-.5-.8,2.226,2.226,0,0,0-.88-.561,3.77,3.77,0,0,0-1.217-.2h-3.071v8.546h1.04V152.26Zm-27.175,1.18h3.807l.761,2.076h1.1l-3.272-8.546H83.488l-3.2,8.546h1.1l.753-2.075Zm-7.921-6.47h0v8.546H79.48v-.963H75.256v-7.583Zm-6.744,0h0v8.546h5.263v-.963H68.512v-7.583Zm-14.921,4.737h.016l2.768,3.808h1.312l-3.392-4.65,3.3-3.9H55.2l-3.872,4.7v-4.7H50.28v8.546h1.048v-2.366l1.223-1.443Zm39.767,3.776h.067a4.278,4.278,0,0,0,1.19-.169,2.315,2.315,0,0,0,.888-.481,2.061,2.061,0,0,0,.528-.729,2.511,2.511,0,0,0,.176-.938,2.338,2.338,0,0,0-.143-.8,2.2,2.2,0,0,0-.384-.649,2.351,2.351,0,0,0-.567-.441,2.387,2.387,0,0,0-.681-.273,1.9,1.9,0,0,0,1.016-.754,2.18,2.18,0,0,0,.344-1.194,2.124,2.124,0,0,0-.192-.93,1.675,1.675,0,0,0-.559-.657,2.483,2.483,0,0,0-.865-.368,4.47,4.47,0,0,0-1.073-.129H89.208v8.513ZM125.768,84.29v.04a9.553,9.553,0,1,0,0,19.079c-8.315,0-15.08,6.42-15.08,14.309v4.9h30.337v-4.9c0-7.89-6.844-14.309-15.257-14.309a9.572,9.572,0,1,0,0-19.119Zm-55.312,0v.04a9.537,9.537,0,1,0-.639,19.06c-8.059.32-14.616,6.733-14.616,14.3v4.93H85.544v-4.93c0-7.7-6.348-13.976-14.451-14.3a9.557,9.557,0,1,0-.637-19.1ZM94.4,101.566l-8.167,7.375,6.455,9.868L96.96,116.3l-2.4-3.616a35.146,35.146,0,0,0,3.528.241h.044a34.061,34.061,0,0,0,11.909-2.14l-1.849-4.44a29.085,29.085,0,0,1-13.6,1.6l3.2-2.926Zm26.233-28.722h0l-2.183,4.3,10.592,4.81,6.9-10.317-4.24-2.557-2.4,3.583a31.056,31.056,0,0,0-9.6-14.036l-3.32,3.582a26.255,26.255,0,0,1,8.272,12.458l-4.024-1.819Zm-50.44-7.022h0a29.761,29.761,0,0,0-4.759,16.094h5.024A25.215,25.215,0,0,1,74.841,67.81l1.215,4.1L80.9,70.623,77.7,59.881l-12.72,1.908.8,4.706,4.414-.672Zm27.919-24.6A10.046,10.046,0,0,0,88.056,50.9a9.818,9.818,0,0,0,10.056,9.538c-8.32,0-15.088,6.42-15.088,14.309v4.81H113.2v-4.81c0-7.89-6.769-14.309-15.089-14.309a10.277,10.277,0,0,0,7.108-2.8,9.235,9.235,0,0,0,2.947-6.74A10.046,10.046,0,0,0,98.112,41.221ZM61.455,154.593h-.038a3.2,3.2,0,0,1-1.281-.265,3.008,3.008,0,0,1-1.016-.713,3.467,3.467,0,0,1-.648-1.067,3.712,3.712,0,0,1-.232-1.306,3.55,3.55,0,0,1,.152-1.057,3.351,3.351,0,0,1,.424-.923,3.585,3.585,0,0,1,.672-.721,3.143,3.143,0,0,1,.888-.482,3.341,3.341,0,0,1,1.046-.168h.021a3.174,3.174,0,0,1,2.236.93,3.361,3.361,0,0,1,.673,1.066,3.834,3.834,0,0,1,.24,1.354,3.741,3.741,0,0,1-.24,1.347,3.275,3.275,0,0,1-.673,1.067,3.12,3.12,0,0,1-2.225.939Zm30.69-.021c-.048,0-.1,0-.145,0H90.256v-2.973H92.14a2.926,2.926,0,0,1,1.028.186,1.445,1.445,0,0,1,.672.529,1.427,1.427,0,0,1,.233.8,1.21,1.21,0,0,1-.553,1.075A2.631,2.631,0,0,1,92.145,154.572Zm43.953-.017h0l-.121,0h-.03a3.176,3.176,0,0,1-1.266-.263,3.025,3.025,0,0,1-1.017-.714,3.5,3.5,0,0,1-.648-1.067,3.564,3.564,0,0,1-.232-1.306,3.816,3.816,0,0,1,.144-1.059,3.654,3.654,0,0,1,.433-.922,3.4,3.4,0,0,1,.672-.722,3.151,3.151,0,0,1,.888-.48,3.242,3.242,0,0,1,3.3.8,3.359,3.359,0,0,1,.672,1.066,3.775,3.775,0,0,1,.24,1.354,3.707,3.707,0,0,1-.24,1.347,3.254,3.254,0,0,1-.672,1.067,2.876,2.876,0,0,1-2.127.9Zm-35.344,0-.121,0h-.03a3.185,3.185,0,0,1-1.267-.263,3.013,3.013,0,0,1-1.015-.714,3.5,3.5,0,0,1-.649-1.066,3.556,3.556,0,0,1-.232-1.306,3.9,3.9,0,0,1,.143-1.059,3.672,3.672,0,0,1,.432-.922,3.4,3.4,0,0,1,.673-.722,3.159,3.159,0,0,1,.887-.48,3.242,3.242,0,0,1,3.3.8,3.326,3.326,0,0,1,.671,1.066,3.763,3.763,0,0,1,.241,1.354,3.692,3.692,0,0,1-.241,1.347,3.239,3.239,0,0,1-.671,1.067,3.113,3.113,0,0,1-1.008.689A3.076,3.076,0,0,1,100.754,154.555Zm18.255-2.038H115.9l1.552-4.264,1.552,4.263Zm-33.4,0H82.456l1.552-4.264,1.6,4.263Zm23.975-1.22c-.055,0-.111,0-.166-.006h-1.7v-3.359h1.848c.041,0,.083,0,.123,0a2.029,2.029,0,0,1,1.253.436,1.558,1.558,0,0,1,.5,1.236,1.61,1.61,0,0,1-.5,1.235A2.2,2.2,0,0,1,109.582,151.3Zm-17.338-.647c-.081,0-.164,0-.244-.009H90.256l.016-2.67h1.58a3.4,3.4,0,0,1,.8.1,1.586,1.586,0,0,1,.592.273,1.128,1.128,0,0,1,.328.409,1.349,1.349,0,0,1,.112.553,1.46,1.46,0,0,1-.1.537,1.042,1.042,0,0,1-.265.393,1.769,1.769,0,0,1-.839.409C92.407,150.647,92.325,150.65,92.244,150.65Z" transform="translate(0.323 -0.083)" fill="#fff"/>
  </g>
</svg>
