<svg id="Kommunikation" xmlns="http://www.w3.org/2000/svg" width="200" height="197" viewBox="0 0 200 197">
  <g id="Layer_1" data-name="Layer 1" transform="translate(0.333 -0.271)">
    <path id="Exclusion_7" data-name="Exclusion 7" d="M100,197a102.178,102.178,0,0,1-20.153-2A100.266,100.266,0,0,1,29.289,168.15a99.557,99.557,0,0,1-12.211-14.578,98.1,98.1,0,0,1-9.219-16.731,97.282,97.282,0,0,1,0-76.682,98.1,98.1,0,0,1,9.219-16.731,100.1,100.1,0,0,1,44-35.687A100.614,100.614,0,0,1,79.847,2a102.472,102.472,0,0,1,40.306,0,100.046,100.046,0,0,1,62.769,41.427,98.1,98.1,0,0,1,9.219,16.731,97.289,97.289,0,0,1,0,76.682,98.091,98.091,0,0,1-9.219,16.731,99.823,99.823,0,0,1-27.011,26.606A100.249,100.249,0,0,1,120.153,195,102.183,102.183,0,0,1,100,197ZM61.532,146.167a4.663,4.663,0,0,0-1.708.323,3.923,3.923,0,0,0-1.36.9,4.127,4.127,0,0,0-.864,1.38,4.825,4.825,0,0,0,0,3.414,4.079,4.079,0,0,0,.9,1.371,3.97,3.97,0,0,0,1.36.917l-.032.041a4.635,4.635,0,0,0,3.416,0,4,4,0,0,0,1.353-.878,4.1,4.1,0,0,0,.9-1.371,4.754,4.754,0,0,0,.328-1.763,4.622,4.622,0,0,0-.328-1.763,4.03,4.03,0,0,0-.9-1.372,4.1,4.1,0,0,0-1.353-.877A4.657,4.657,0,0,0,61.532,146.167ZM91.9,154.808h0c.04,0,.08,0,.121,0a3.229,3.229,0,0,0,2.28-.952,3.644,3.644,0,0,0,.9-2.592v-5.04H94.127V151.2a2.778,2.778,0,0,1-.624,1.915,2.094,2.094,0,0,1-1.566.7h-.117a2.041,2.041,0,0,1-1.557-.718,2.824,2.824,0,0,1-.616-1.9v-4.968h-1.04v5.04a4.339,4.339,0,0,0,.239,1.5,3.059,3.059,0,0,0,.672,1.117,2.965,2.965,0,0,0,1.04.678,3.676,3.676,0,0,0,1.327.247Zm47.072-8.654a4.434,4.434,0,0,0-1.7.336,3.853,3.853,0,0,0-1.361.9,4.088,4.088,0,0,0-.863,1.38,4.812,4.812,0,0,0,0,3.414,4.029,4.029,0,0,0,.863,1.371,3.852,3.852,0,0,0,1.361.917,4.432,4.432,0,0,0,1.7.336h.043a4.5,4.5,0,0,0,1.674-.32,4.055,4.055,0,0,0,1.352-.877,3.958,3.958,0,0,0,.887-1.371,4.567,4.567,0,0,0,.329-1.763,4.5,4.5,0,0,0-.329-1.763,3.929,3.929,0,0,0-.887-1.371,4.182,4.182,0,0,0-1.352-.878,4.525,4.525,0,0,0-1.655-.311h-.058Zm7.121,1.875v0l4.8,6.7h1.056v-8.5H150.88V153l-4.8-6.771h-1.024v8.5h1.04v-6.7Zm-27.5,4.634H122.4l.744,2.066h1.1l-3.256-8.5h-1.048l-3.2,8.5h1.1l.751-2.065Zm-6.665-1.712h0l2.768,3.777H116l-3.384-4.626,3.3-3.875h-1.337l-3.871,4.674v-4.674h-1.048v8.5h1.048v-2.353l1.215-1.424ZM98.3,148.029v0l4.8,6.7h1.063v-8.5H103.1V153l-4.8-6.771H97.264v8.5H98.3v-6.7Zm-45.591,2.911h.015l2.776,3.788h1.3L53.423,150.1l3.3-3.875H55.36L51.488,150.9v-4.674H50.449v8.5h1.039v-2.353l1.225-1.435Zm79.12-4.714v8.5h1.048v-8.5Zm-5.136.956v7.546h1.039v-7.546h2.577v-.956h-6.169v.956Zm-20.3-.956v8.5h1.048v-8.5Zm-20.872,1.986v6.516h1.039v-8.5H85.448l-3.121,5.5-3.127-5.5h-.976v8.5h1.041v-6.516L82.04,153h.7l2.783-4.782Zm-10.553,0v6.516H76v-8.5H74.976l-3.128,5.5-3.127-5.5H67.673v8.5h1.039v-6.516L71.488,153H72.2l2.774-4.782Zm47.337-33.035h0q4.223.843,6.682,1.338l.149.03,1.394.279.06.012.392.079.056.011c2.953.592,3.485.7,3.656.716h.13a2.218,2.218,0,0,0,2.176-2.182V115l-2.432-12.116a26.091,26.091,0,0,0,1.1-2.72h-.08A25.741,25.741,0,0,0,132.4,77.23a25.213,25.213,0,0,0-19.689-11.071c-.4-.019-.8-.028-1.208-.028a25.758,25.758,0,0,0-.017,51.511h.016a25.084,25.084,0,0,0,10.81-2.464h0Zm-34.1-67.89a25.853,25.853,0,0,0-23.128,36.76l-2.4,12.108c-.016.078-.027.145-.033.2v.483a2.2,2.2,0,0,0,2.592,1.914l12.089-2.392A24.684,24.684,0,0,0,82.4,98.1,30.383,30.383,0,0,1,92.922,68.324a29.773,29.773,0,0,1,5.359-3.484A29.064,29.064,0,0,1,111.032,61.7l.008.016V61.7h-.007A25.529,25.529,0,0,0,88.216,47.288Zm50.769,106.564a3.184,3.184,0,0,1-1.272-.263,3.1,3.1,0,0,1-1.016-.71,3.294,3.294,0,0,1-.64-1.061,3.689,3.689,0,0,1-.089-2.392,3.114,3.114,0,0,1,.432-.917,3.317,3.317,0,0,1,.664-.718,3.152,3.152,0,0,1,.888-.478,3.335,3.335,0,0,1,1.043-.167h.021a3.184,3.184,0,0,1,1.232.247,3,3,0,0,1,1.68,1.739,3.574,3.574,0,0,1,.249,1.347,3.531,3.531,0,0,1-.249,1.34,3.008,3.008,0,0,1-.671,1.061,2.976,2.976,0,0,1-1.009.686,3.067,3.067,0,0,1-1.24.287Zm-77.264-.078-.12,0h-.03a3.2,3.2,0,0,1-1.275-.263,2.989,2.989,0,0,1-1.008-.71,3.183,3.183,0,0,1-.647-1.061,3.52,3.52,0,0,1-.24-1.3,3.787,3.787,0,0,1,.152-1.053,3.247,3.247,0,0,1,1.1-1.6,3.385,3.385,0,0,1,.889-.478,3.341,3.341,0,0,1,1.044-.167h.02a3.18,3.18,0,0,1,1.232.247,3.007,3.007,0,0,1,1.679,1.739,3.574,3.574,0,0,1,.248,1.347,3.526,3.526,0,0,1-.248,1.34,3.049,3.049,0,0,1-1.679,1.747A3.067,3.067,0,0,1,61.721,153.774Zm60.342-2.028h-3.112L120.5,147.5l1.559,4.242Z" transform="translate(-0.333 0.271)" fill="#fff"/>
  </g>
</svg>
