<svg xmlns="http://www.w3.org/2000/svg" width="210" height="287.107" viewBox="0 0 210 287.107">
  <g id="Group_501" data-name="Group 501" transform="translate(-3081 -167.5)">
    <path id="Path_585" data-name="Path 585" d="M366.309,123.182a41.109,41.109,0,1,1,41.372-41.114C407.464,102.843,389.427,123.836,366.309,123.182Z" transform="translate(2845.709 245.528)" fill="#2b4d96"/>
    <path id="Path_586" data-name="Path 586" d="M342.053,18.775c21.288-1.426,41.114,17.892,41.259,40.5a41.261,41.261,0,1,1-82.523,0C300.939,36.408,321.06,17.341,342.053,18.775Z" transform="translate(2780.211 186.492)" fill="#dcb12d"/>
    <path id="Path_587" data-name="Path 587" d="M300.867,105.047c-.513-21.91,19.354-40.86,41.409-40.605a41.2,41.2,0,1,1-41.409,40.605Z" transform="translate(2780.392 307.773)" fill="#a9cb6b"/>
    <path id="Path_588" data-name="Path 588" d="M376.687,90.549A41.087,41.087,0,1,1,417.95,49.435C417.7,70.228,399.8,91.2,376.687,90.549Z" transform="translate(2873.05 159.124)" fill="#c41a2d"/>
  </g>
</svg>
