<svg xmlns="http://www.w3.org/2000/svg" width="492.496" height="154.867" viewBox="0 0 492.496 154.867">
  <g id="Group_498" data-name="Group 498" transform="translate(-2541 -344)">
    <g id="logo" transform="translate(2541 344)">
      <path id="Path_4" data-name="Path 4" d="M199.6,51.83H396.288a.838.838,0,0,1,.782.727.854.854,0,0,1-.645.879,4.422,4.422,0,0,1-1.111.15H5.55a27.077,27.077,0,0,1-2.747-.15.8.8,0,0,1-.673-.825.782.782,0,0,1,.727-.782H199.6Z" transform="translate(0.794 19.339)" fill="#fff"/>
      <path id="Path_5" data-name="Path 5" d="M177.149,17.7c2.966-4.874,7.072-7.84,12.921-7.9s10.2,2.049,11.9,7.951a2.17,2.17,0,0,0,1.168-1.127A15.97,15.97,0,0,1,220.7,10.286a9.612,9.612,0,0,1,7.112,6.783,19.226,19.226,0,0,1,1.024,5.96V47.614c0,.683.384,1.661-.934,1.716-.727,0-1.209-.15-1.209-1.024V24.636a21.259,21.259,0,0,0-.591-5.8,8.5,8.5,0,0,0-7.415-6.865,14.02,14.02,0,0,0-15.1,8.1,11.37,11.37,0,0,0-.92,4.78c0,7.264,0,14.486,0,21.751v1.854c0,.591-.439.727-.975.727s-1.127,0-1.168-.768,0-1.277,0-1.854v-22.9a20.119,20.119,0,0,0-.536-5.122,8.239,8.239,0,0,0-6.865-6.44,12.577,12.577,0,0,0-14.184,6.262,15.613,15.613,0,0,0-2.486,8.83c.15,6.783,0,13.566,0,20.351,0,.879,0,1.707-1.277,1.648-.92,0-1.263-.33-1.222-1.263a12.152,12.152,0,0,0,0-1.366V11.413c0-.975.536-1.127,1.366-1.127s1.127.341,1.127,1.127v5.8a1.634,1.634,0,0,0,.683.48Z" transform="translate(64.908 3.609)" fill="#fff"/>
      <path id="Path_6" data-name="Path 6" d="M269.495,121.233c1.366-1.366,1.47-1.366,2.747,0a13.146,13.146,0,0,0,12.292,4.243,10.807,10.807,0,0,0,9.323-7.812,27.186,27.186,0,0,0,.825-9.941c-1.127-.207-1.456.727-1.991,1.168a15.406,15.406,0,0,1-15.707,3.172c-4.888-1.607-7.415-5.617-8.733-10.3a33.291,33.291,0,0,1,0-18.042c1.47-5.315,4.49-9.516,10.3-10.739a14.512,14.512,0,0,1,14.143,4.12c.5.48.825,1.111,1.511,1.456.838-.384.536-1.168.591-1.8s0-1.716.1-2.581.782-.934,1.456-.838.782.439.782.975v35.8a32.555,32.555,0,0,1-.439,5.794,13.732,13.732,0,0,1-13.8,11.864,14.981,14.981,0,0,1-13.388-6.535ZM294.72,93.475V90.248a25.554,25.554,0,0,0-.15-5.8,12.359,12.359,0,0,0-11.562-9.612c-6.1-.3-9.955,2.049-12.043,7.9a29.22,29.22,0,0,0-.1,19.951,10.638,10.638,0,0,0,6.488,7.278,13.855,13.855,0,0,0,14.363-2.774,8.5,8.5,0,0,0,3.073-7.031,59.535,59.535,0,0,1-.068-6.633Z" transform="translate(99.632 27.065)" fill="#fff"/>
      <path id="Path_7" data-name="Path 7" d="M3.656,52.5a5.163,5.163,0,0,1-.193-2.293V3.2C3.465.313,3.122.6,6.142.6H34.675c.577,0,.683.536.683,1.024s0,.975-.683,1.024-1.263,0-1.854,0H8.244c-2.54,0-2.54,0-2.54,2.527V22.846c0,2.059,0,2.059,2.1,2.059H30.969c.577,0,.879.536.838,1.168s-.3.879-.838.879H6.828A.989.989,0,0,0,5.7,28.078V47.3c0,3.756-.439,3.309,3.415,3.309H34.634c.591,0,.727.632.727,1.222s-.248.879-.825.879H5.514A4.7,4.7,0,0,1,3.656,52.5Z" transform="translate(1.273 0.223)" fill="#fff"/>
      <path id="Path_8" data-name="Path 8" d="M168.894,106.258a15.1,15.1,0,0,1-5.9,4.78,18.167,18.167,0,0,1-14.088.975,9.612,9.612,0,0,1-6.592-8.335,9.777,9.777,0,0,1,4.243-9.612,18.456,18.456,0,0,1,8.239-3.227,35.7,35.7,0,0,1,6.535-.48h6.535c1.024,0,1.607-.3,1.566-1.47,0-1.707,0-3.415-.109-5.122a8.733,8.733,0,0,0-6.865-8.39A15.956,15.956,0,0,0,150.4,76.505a8.43,8.43,0,0,0-4.833,6.488c-.1.879-.384,1.263-1.366,1.127s-.975-.838-.825-1.607a9.9,9.9,0,0,1,2.979-5.713c4.874-4.78,14.584-5.754,20.24-1.95a10.353,10.353,0,0,1,4.78,8.878c.1,6.249,0,12.5.1,18.688a33.781,33.781,0,0,0,.741,8.335c.1.5.439,1.181-.5,1.222-.727,0-1.661.341-1.9-.782-.15-.825-.3-1.707-.4-2.527s-.1-1.511-.15-2.293C169.176,106.451,169.046,106.354,168.894,106.258Zm-6.535-13.511c-1.566,0-3.117-.1-4.683,0a17.851,17.851,0,0,0-10.257,3.461,7.978,7.978,0,0,0,0,12.359,11.589,11.589,0,0,0,8.142,2.088,15.1,15.1,0,0,0,12.934-7.512,5.149,5.149,0,0,0,.825-2.636v-6.29c0-1.07-.289-1.566-1.47-1.511C166.12,92.842,164.268,92.747,162.359,92.747Z" transform="translate(53.059 27.059)" fill="#fff"/>
      <path id="Path_9" data-name="Path 9" d="M222.609,28.8a17.192,17.192,0,0,0,7.374,17.124c4.874,2.979,13.209,2.747,17.453-2.088.15-.207.341-.341.5-.536.536-.645,1.07-.5,1.607,0s.193.92-.137,1.366a14.512,14.512,0,0,1-9.13,5.176c-9.269,1.441-17.26-4.051-19.463-13.487a25.732,25.732,0,0,1,1.552-17.37A15.406,15.406,0,0,1,240.8,10.362a13.952,13.952,0,0,1,9.419,9.337,23.673,23.673,0,0,1,1.084,7.608c0,1.168-.4,1.456-1.525,1.366h-18.23C228.513,28.8,225.506,28.8,222.609,28.8Zm13.073-2.219H246.9c2.293,0,2.293,0,2-2.445a17.415,17.415,0,0,0-1.566-5.122,12.275,12.275,0,0,0-19.087-4.256,16.765,16.765,0,0,0-5.617,9.764c-.384,1.95-.384,1.991,1.566,1.991,3.831.06,7.676.06,11.48.06Z" transform="translate(82.077 3.632)" fill="#fff"/>
      <path id="Path_10" data-name="Path 10" d="M143.478,106.645c-5.081,7.662-17.713,8.637-24.634,1.222a18.167,18.167,0,0,1-4.792-9.219c-1.209-6.976-.825-13.732,3.515-19.649a15.1,15.1,0,0,1,16.479-5.755,13.966,13.966,0,0,1,9.363,9.049,22.642,22.642,0,0,1,1.168,8.06c0,1.209-.5,1.366-1.566,1.366H117.375c-1.661,0-1.707,0-1.707,1.648.1,6.976,2.636,12.634,9.021,15.956a14.061,14.061,0,0,0,16-2.581C141.666,105.959,142.3,105.136,143.478,106.645ZM129.087,89.48H140.54c2,0,2.156-.15,1.909-2.2a26.762,26.762,0,0,0-.632-3.227,12.516,12.516,0,0,0-20.6-6,16.89,16.89,0,0,0-5.163,9.462c-.341,1.757-.248,1.909,1.552,1.909,3.817.055,7.683.055,11.48.055Z" transform="translate(42.335 27.113)" fill="#fff"/>
      <path id="Path_11" data-name="Path 11" d="M147.939,30.036A23.048,23.048,0,0,1,145,42.189a16.5,16.5,0,0,1-27.943.384,20.253,20.253,0,0,1-3.02-9.021,27.586,27.586,0,0,1,1.511-13.361,16.561,16.561,0,0,1,26.085-6.59,18.565,18.565,0,0,1,6.146,12.482,34.677,34.677,0,0,1,.159,3.954ZM116.081,29.9v2.337a17.146,17.146,0,0,0,5.8,12.359,13.938,13.938,0,0,0,21.655-4.531,21.435,21.435,0,0,0-.632-21.283,13.9,13.9,0,0,0-22.536-2.156,19.719,19.719,0,0,0-4.3,13.277Z" transform="translate(42.461 3.619)" fill="#fff"/>
      <path id="Path_12" data-name="Path 12" d="M19.194,93.014a21.512,21.512,0,0,1,2.747-12.1,15.736,15.736,0,0,1,15.668-8.239,15.1,15.1,0,0,1,13.609,9.612,25.925,25.925,0,0,1,.137,20.735,15.915,15.915,0,0,1-15.572,9.955,16.34,16.34,0,0,1-14.968-10.532,21.971,21.971,0,0,1-1.62-9.433Zm31.755-.1a18.154,18.154,0,0,0-.92-7.553c-1.909-5.231-5.176-9.076-10.889-10.244A13.58,13.58,0,0,0,23.582,82.77a22.877,22.877,0,0,0-.913,18.188,14.486,14.486,0,0,0,5.492,7.36c7.606,5.335,17.849,2.011,21.469-6.858a20.226,20.226,0,0,0,1.325-8.541Z" transform="translate(7.144 27.08)" fill="#fff"/>
      <path id="Path_13" data-name="Path 13" d="M147.857,17.891a19.621,19.621,0,0,1,5.315-5.767,14.829,14.829,0,0,1,13.223-1.511,9.39,9.39,0,0,1,6.1,6.633,22.161,22.161,0,0,1,.975,6.249v24.1c0,.838.193,1.813-1.168,1.757-.683,0-1.024-.289-1.024-.975V46.527c0-8.239.109-16.39-.137-24.585-.193-7.662-4.888-10.834-12.359-9.819a9.832,9.832,0,0,0-5.067,2.252,15.536,15.536,0,0,0-6.192,12.536V48.477c0,.727-.439.879-1.07.879s-1.127,0-1.084-.825V11.554c0-.632.207-1.024.934-1.024s1.222.248,1.222,1.024V15.31a4.915,4.915,0,0,0,.341,2.6Z" transform="translate(54.241 3.621)" fill="#fff"/>
      <path id="Path_14" data-name="Path 14" d="M35.719,17.736c.673-.92,1.222-1.661,1.8-2.347a14.761,14.761,0,0,1,17.274-4.531c3.611,1.47,5.217,4.49,6,8.1a25.637,25.637,0,0,1,.536,5.8v22.92c0,.536.341,1.277-.536,1.566a1.228,1.228,0,0,1-1.729-1.222V24.175a19.463,19.463,0,0,0-.975-6.687,7.8,7.8,0,0,0-6.29-5.315,12.852,12.852,0,0,0-14.157,6.344,16.176,16.176,0,0,0-2.431,8.637c.137,6.769,0,13.552,0,20.337,0,.782.3,1.854-1.111,1.813-.645,0-1.084-.15-1.024-.879V11.639c0-.683.1-1.263.975-1.222s1.168.4,1.168,1.127v4.439A2.843,2.843,0,0,0,35.719,17.736Z" transform="translate(12.342 3.631)" fill="#fff"/>
      <path id="Path_15" data-name="Path 15" d="M251.391,17.766a10.574,10.574,0,0,0,2.156-2.445,14.432,14.432,0,0,1,14.184-5.245c5.081.727,8.1,3.9,9.173,9.269a33.188,33.188,0,0,1,.5,5.356V47.563c0,1.607-.248,1.909-1.366,1.757a.8.8,0,0,1-.879-.879v-23.9a22.411,22.411,0,0,0-.768-6.488,8.006,8.006,0,0,0-6.592-5.9c-6.488-1.222-12,1.707-15.024,8.1a14.341,14.341,0,0,0-1.47,6.535c.1,6.865,0,13.9,0,20.829,0,.879,0,1.8-1.277,1.661-.536,0-.866-.207-.92-.782V11.444c0-.632.193-1.024.92-1.07A1.057,1.057,0,0,1,251.3,11.4v3.527a19.367,19.367,0,0,0,.1,2.843Z" transform="translate(92.952 3.655)" fill="#fff"/>
      <path id="Path_16" data-name="Path 16" d="M196.436,80.723a20.062,20.062,0,0,1,4-4.724,14.584,14.584,0,0,1,15.1-2.252c3.363,1.366,4.874,4.2,5.8,7.469a18.878,18.878,0,0,1,.577,4.381v25.034c0,.481.248,1.127-.425,1.366a1.154,1.154,0,0,1-1.661-.934V87.218a20.231,20.231,0,0,0-.879-6.44,8.005,8.005,0,0,0-6.633-5.8c-7.031-1.222-12.1,2-15.324,9.076a11.52,11.52,0,0,0-1.024,4.972v21.512c0,.632.289,1.511-.838,1.552-.782,0-1.366-.1-1.366-1.111a11.317,11.317,0,0,0,0-1.181V74.256c0-.782.591-1.024,1.366-.975s.879.536.838,1.111v4.669a2.018,2.018,0,0,0,.452,1.661Z" transform="translate(72.3 27.082)" fill="#fff"/>
      <path id="Path_17" data-name="Path 17" d="M240.185,80.625a20.724,20.724,0,0,1,3.756-4.531,14.693,14.693,0,0,1,15.1-2.39,8.6,8.6,0,0,1,5.081,4.951,16.12,16.12,0,0,1,1.475,6.58v25.5c0,.683.137,1.47-.975,1.366-.782,0-1.181-.248-1.127-1.084V87.5a22.41,22.41,0,0,0-.782-6.249A8.115,8.115,0,0,0,255.646,75c-6.687-.975-11.466,1.963-14.638,8.349a12.152,12.152,0,0,0-1.366,5.849c.1,7.072,0,14.2,0,21.325,0,.536.341,1.263-.481,1.607A1.168,1.168,0,0,1,237.445,111c0-.48,0-.92,0-1.366V74.522c0-.768.439-1.111,1.181-1.168s1.07.439,1.024,1.168V79.7C239.746,79.932,239.581,80.33,240.185,80.625Z" transform="translate(88.599 27.091)" fill="#fff"/>
      <path id="Path_18" data-name="Path 18" d="M87.2,89.417v-24.1c0-.782-.384-1.854,1.024-1.909.727,0,1.209.1,1.168.975v47.03c0,2.049,0,2.049,2.1,2.049h23.659a.961.961,0,0,1,.975,1.07c0,.683-.3,1.024-.975,1.024H87.978a.825.825,0,0,1-.838-.879v-1.661C87.2,105.166,87.2,97.313,87.2,89.417Z" transform="translate(32.514 23.661)" fill="#fff"/>
      <path id="Path_19" data-name="Path 19" d="M74.7,44.754c.975-.439.975-1.209,1.222-1.854,4.038-10.38,8.087-20.721,12.139-31.115a6.472,6.472,0,0,1,.5-1.024,1.366,1.366,0,0,1,1.707-.341c.727.3.384.879.193,1.366C89,15.541,87.531,19.352,86.062,23.113,82.848,31.352,79.622,39.5,76.45,47.7c-.248.632-.3,1.366-1.277,1.47a1.688,1.688,0,0,1-1.9-1.366c-1.127-2.979-2.293-5.96-3.474-8.926C66.454,30.34,63.1,21.7,59.78,13.061a8.459,8.459,0,0,1-.4-1.07c-.1-.5-.683-.975,0-1.47a1.675,1.675,0,0,1,2.049.591,29.586,29.586,0,0,1,1.127,2.829c3.8,9.708,7.553,19.463,11.355,29.179C74.082,43.546,74.4,44.082,74.7,44.754Z" transform="translate(22.038 3.828)" fill="#fff"/>
      <path id="Path_20" data-name="Path 20" d="M6.728,98.144V82c0-2.1,0-2.1-2.049-2.1H.92c-.727,0-.92-.439-.92-.975s.1-1.111.879-1.111H5.318c.975,0,1.366-.4,1.366-1.366v-4.69a13.073,13.073,0,0,1,1.757-6.564,8.444,8.444,0,0,1,5.03-3.913,16.574,16.574,0,0,1,6.865-.193c.825.15,1.263.536,1.127,1.366-.15,1.127-.879.782-1.566.683a17.415,17.415,0,0,0-3.268-.193,7.251,7.251,0,0,0-7.41,5.917,32.438,32.438,0,0,0-.384,7.9c0,.934.632.934,1.366.934H17.67c.536,0,1.127-.1,1.366.632a1.07,1.07,0,0,1-1.127,1.511H11.823c-3.268,0-2.925-.341-2.925,3.073v32.78c0,.782-.5.879-1.07.879s-1.127-.1-1.07-.879v-1.593C6.728,108.765,6.728,103.459,6.728,98.144Z" transform="translate(0 22.691)" fill="#fff"/>
      <path id="Path_21" data-name="Path 21" d="M281.949,30.684V17.132c0-1.813,0-1.813-1.8-1.854h-4.01c-.825,0-1.366-.3-1.366-1.222s.645-.975,1.366-.975h4.449c1.024,0,1.366-.4,1.366-1.366,0-2.2-.1-4.395,0-6.535,0-.879-.879-2.5,1.07-2.445,1.707,0,.975,1.47,1.024,2.347.109,1.991,0,4.038,0,6.1s0,1.9,1.95,1.95h5.369c.782,0,1.456.137,1.366,1.111s-.727,1.084-1.511,1.084h-5.617c-1.111,0-1.707.193-1.707,1.511V43.757a10.9,10.9,0,0,0,.782,3.415,4.545,4.545,0,0,0,4.586,3.309,18.61,18.61,0,0,0,3.268-.137c.934-.1,1.366.289,1.366,1.127s-.536.975-1.168,1.07a16.847,16.847,0,0,1-5.122,0,6.028,6.028,0,0,1-5.177-4.724,18.268,18.268,0,0,1-.512-5.176Z" transform="translate(102.53 1.021)" fill="#fff"/>
      <path id="Path_22" data-name="Path 22" d="M176.709,79.365c.934-.3,1.07-.975,1.366-1.47a12.8,12.8,0,0,1,12.1-5.163,2.6,2.6,0,0,1,.683.1c.632.193.782.673.782,1.263s-.439.92-1.07.879a16.791,16.791,0,0,0-2.347-.1,10.834,10.834,0,0,0-8.774,4.627,14.281,14.281,0,0,0-2.952,8.76v22.48c0,1.366-.248,1.661-1.366,1.566-.632,0-1.024-.289-1.024-.975V74.468c.1-.92.683-1.111,1.47-1.07s.782.591.825,1.168A41.586,41.586,0,0,0,176.709,79.365Z" transform="translate(64.963 27.082)" fill="#fff"/>
      <path id="Path_23" data-name="Path 23" d="M55.277,79.072l1.366-1.707a12.907,12.907,0,0,1,11.85-4.683c.838,0,1.366.384,1.277,1.366s-.782.92-1.47.92c-8.239-.137-13.658,5.217-13.658,13.416v22.258c0,.879.109,1.757-1.263,1.62-.782-.109-1.127-.4-1.07-1.181V76.147a11.822,11.822,0,0,1,0-1.854c.109-.782.741-.92,1.366-.92s.879.536.838,1.111v3.034C54.645,78,54.5,78.66,55.277,79.072Z" transform="translate(19.505 27.073)" fill="#fff"/>
      <path id="Path_24" data-name="Path 24" d="M100.84,16.722a3.244,3.244,0,0,0,1.716-1.747,12.706,12.706,0,0,1,12.1-5.122c.673,0,1.456.1,1.366,1.168s-.591,1.111-1.456,1.024c-9.076-1.07-13.732,7.072-13.732,13.416V48.438c0,.673-.341.975-1.024.975s-1.127-.1-1.127-.838V11.561c0-.782.5-1.07,1.277-1.024s.879.5.92,1.127Z" transform="translate(36.817 3.613)" fill="#fff"/>
      <path id="Path_25" data-name="Path 25" d="M227.316,92.447v18c0,.683.193,1.47-.934,1.525-.782,0-1.366-.109-1.366-1.127a8.222,8.222,0,0,0,0-1.168v-33.9a11.552,11.552,0,0,1,.1-1.854c.109-.683.683-.782,1.277-.741a.768.768,0,0,1,.879.838c0,.536,0,1.07,0,1.648C227.316,81.174,227.316,86.843,227.316,92.447Z" transform="translate(83.962 27.305)" fill="#fff"/>
      <path id="Path_26" data-name="Path 26" d="M88.009,29.682V12.64a15.711,15.711,0,0,1,0-1.607c0-.591.481-.683,1.024-.727a.825.825,0,0,1,1.024.727,15.7,15.7,0,0,1,0,1.607v35.7c0,.782-.55.838-1.127.782S88,48.974,88,48.343V46.7C88.009,41.044,88.009,35.338,88.009,29.682Z" transform="translate(32.832 3.837)" fill="#fff"/>
      <path id="Path_27" data-name="Path 27" d="M228.487,65.033a1.991,1.991,0,0,1-2.143,1.95,2.073,2.073,0,0,1-2-2.1A1.977,1.977,0,0,1,226.491,63a1.922,1.922,0,0,1,1.991,2.032Z" transform="translate(83.711 23.506)" fill="#fff"/>
      <path id="Path_28" data-name="Path 28" d="M89.4,0a2.293,2.293,0,0,1,2.1,2.1A2.115,2.115,0,0,1,89.4,4.12a1.909,1.909,0,0,1-2-2.049A2.073,2.073,0,0,1,89.4,0Z" transform="translate(32.608)" fill="#fff"/>
    </g>
    <g id="Group_497" data-name="Group 497" transform="translate(-126.476 192.516)">
      <path id="Path_585" data-name="Path 585" d="M340.823,71.883a15.459,15.459,0,1,1,15.558-15.461C356.3,64.234,349.517,72.128,340.823,71.883Z" transform="translate(2789.447 171.284)" fill="#2b4d96"/>
      <path id="Path_586" data-name="Path 586" d="M316.306,18.728c8.005-.536,15.461,6.728,15.516,15.229a15.517,15.517,0,1,1-31.033,0C300.845,25.359,308.412,18.188,316.306,18.728Z" transform="translate(2780.211 162.975)" fill="#dcb12d"/>
      <path id="Path_587" data-name="Path 587" d="M300.861,79.71c-.193-8.239,7.278-15.365,15.572-15.27a15.492,15.492,0,1,1-15.572,15.27Z" transform="translate(2780.237 180.044)" fill="#a9cb6b"/>
      <path id="Path_588" data-name="Path 588" d="M351.161,39.278a15.451,15.451,0,1,1,15.517-15.461C366.583,31.636,359.855,39.523,351.161,39.278Z" transform="translate(2793.293 159.124)" fill="#c41a2d"/>
    </g>
  </g>
</svg>
