<svg id="Problemløsning" xmlns="http://www.w3.org/2000/svg" width="200" height="196" viewBox="0 0 200 196">
  <g id="Layer_1" data-name="Layer 1" transform="translate(0 -0.329)">
    <path id="Exclusion_3" data-name="Exclusion 3" d="M100,196a102.7,102.7,0,0,1-20.152-1.991A100.385,100.385,0,0,1,29.29,167.3a99.315,99.315,0,0,1-12.211-14.5,97.617,97.617,0,0,1-9.22-16.647,96.361,96.361,0,0,1,0-76.292,97.671,97.671,0,0,1,9.22-16.647A99.264,99.264,0,0,1,29.29,28.7,100.474,100.474,0,0,1,79.847,1.992a102.964,102.964,0,0,1,40.306,0A100.384,100.384,0,0,1,170.711,28.7a99.2,99.2,0,0,1,12.209,14.5,97.4,97.4,0,0,1,9.22,16.647,96.346,96.346,0,0,1,0,76.292,97.328,97.328,0,0,1-9.22,16.647,99.128,99.128,0,0,1-12.209,14.5,100.469,100.469,0,0,1-50.558,26.713A102.713,102.713,0,0,1,100,196Zm17.529-50.571a4.456,4.456,0,0,0-1.7.334,3.838,3.838,0,0,0-1.346.9,3.95,3.95,0,0,0-.869,1.373,4.856,4.856,0,0,0,0,3.3,3.979,3.979,0,0,0,.8,1.325l-.971,1.039.629.579.972-1.047a4.19,4.19,0,0,0,2.461.794l.121,0h.014a4.427,4.427,0,0,0,1.651-.318,3.875,3.875,0,0,0,1.348-.872,4.139,4.139,0,0,0,.893-1.365,4.756,4.756,0,0,0,.326-1.754,4.324,4.324,0,0,0-.948-2.816l.948-1.071-.613-.555-.989,1.055a4.212,4.212,0,0,0-2.594-.9h-.132Zm6.169,6.49h0l-.661.794a4.145,4.145,0,0,0,1.394.984,4.228,4.228,0,0,0,1.562.373,3.728,3.728,0,0,0,.853-.1,2.807,2.807,0,0,0,.8-.293,2.735,2.735,0,0,0,.631-.477,2.009,2.009,0,0,0,.421-.674,2.282,2.282,0,0,0,.16-.85,2.01,2.01,0,0,0-1.244-1.928,12.784,12.784,0,0,0-1.386-.587A6.629,6.629,0,0,1,125,148.6a1.094,1.094,0,0,1-.343-1.587,1.276,1.276,0,0,1,.559-.412,1.8,1.8,0,0,1,.706-.143h.026a2.751,2.751,0,0,1,1.029.215,3.537,3.537,0,0,1,1.035.61l.63-.794a4.954,4.954,0,0,0-1.3-.738,3.83,3.83,0,0,0-1.356-.247h-.071a2.917,2.917,0,0,0-1.274.294,2.2,2.2,0,0,0-.932.794,2.071,2.071,0,0,0-.263,1.706,2.458,2.458,0,0,0,.191.476,2.1,2.1,0,0,0,.327.389,4.106,4.106,0,0,0,.406.317,3.217,3.217,0,0,0,.479.27c.186.093.362.172.51.23l.543.206h.175a5.438,5.438,0,0,1,1.2.548,1.177,1.177,0,0,1,.526,1.016,1.118,1.118,0,0,1-.47.944,2.107,2.107,0,0,1-1.168.352l-.1,0a2.969,2.969,0,0,1-1.275-.293,3,3,0,0,1-1.083-.834ZM69.3,145.414a4.394,4.394,0,0,0-1.687.334,3.81,3.81,0,0,0-1.355.9,4.086,4.086,0,0,0-.86,1.374,4.668,4.668,0,0,0,0,3.4,4.026,4.026,0,0,0,.86,1.365,3.892,3.892,0,0,0,1.355.913,4.437,4.437,0,0,0,1.691.334h.044a4.5,4.5,0,0,0,1.667-.318,3.951,3.951,0,0,0,1.338-.872,3.829,3.829,0,0,0,.893-1.365,4.735,4.735,0,0,0,.327-1.754,4.634,4.634,0,0,0-.327-1.753,3.774,3.774,0,0,0-.893-1.365,4.029,4.029,0,0,0-1.338-.873,4.528,4.528,0,0,0-1.646-.309H69.3Zm86.424,0a4.519,4.519,0,0,0-1.666.318,3.752,3.752,0,0,0-1.33.9,3.953,3.953,0,0,0-.845,1.373,4.868,4.868,0,0,0-.3,1.73,4.709,4.709,0,0,0,.327,1.769,3.922,3.922,0,0,0,.885,1.357,3.848,3.848,0,0,0,1.338.849,4.666,4.666,0,0,0,1.655.3h.081a5.8,5.8,0,0,0,1.8-.285,4.357,4.357,0,0,0,1.465-.794v-3.341h-3.505v.952h2.461v1.85a3.657,3.657,0,0,1-2.091.654c-.056,0-.114,0-.171,0h-.065a3.15,3.15,0,0,1-1.585-.429,2.91,2.91,0,0,1-1.116-1.183,3.711,3.711,0,0,1-.382-1.7,4,4,0,0,1,.231-1.373,2.984,2.984,0,0,1,.653-1.055,2.8,2.8,0,0,1,.98-.667,3.208,3.208,0,0,1,1.216-.238h.122a3.427,3.427,0,0,1,2.406.978l.742-.635a4,4,0,0,0-1.483-1,4.7,4.7,0,0,0-1.724-.326h-.092Zm-77.234,8.531h.065a4.3,4.3,0,0,0,1.192-.169,2.351,2.351,0,0,0,.884-.476,1.917,1.917,0,0,0,.518-.722,2.566,2.566,0,0,0,0-1.753,2.126,2.126,0,0,0-.383-.643,2.346,2.346,0,0,0-.565-.436,2.407,2.407,0,0,0-.685-.269,1.863,1.863,0,0,0,1-.746,2.224,2.224,0,0,0,.159-2.1,1.71,1.71,0,0,0-.557-.651,2.494,2.494,0,0,0-.861-.365,4.43,4.43,0,0,0-1.056-.127H75.363v8.459Zm65.473-6.666,0,0,4.779,6.664H149.8v-8.459h-1.067v6.736l-4.781-6.736h-1.02v8.459h1.035v-6.666Zm-4.3-1.793v8.459h1.043v-8.459h-1.043Zm-8.056,1.793v0l4.779,6.664h1.06v-8.459h-1.068v6.736l-4.782-6.736h-1.027v8.459h1.035v-6.666Zm-24.239-1.793v8.459h5.243v-.953h-4.207v-7.506H107.37Zm-3.194,1.976v6.483h1.043v-8.459h-1.043l-3.116,5.475-3.115-5.475H96.9v8.459h1.036v-6.483l2.765,4.76h.709l2.764-4.758Zm-14.454-1.976v8.459h5.442v-.953h-4.4v-2.77h3.41v-.951h-3.41v-2.834h4.152v-.951h-5.2Zm-6.717,0v8.459h5.244v-.953H84.04v-7.506H83Zm-24.988,0v8.459h1.035v-3.221h1.595l2.167,3.222h1.25L61.809,150.6a2.4,2.4,0,0,0,2.024-2.516,3.07,3.07,0,0,0-.167-1.048,2.252,2.252,0,0,0-1.378-1.349,3.814,3.814,0,0,0-1.211-.2H58.016Zm-7.378,0v8.459h1.036v-3.277h1.792a4.416,4.416,0,0,0,1.18-.16,2.676,2.676,0,0,0,.939-.476,2.117,2.117,0,0,0,.614-.794,2.886,2.886,0,0,0,.215-1.158,3.286,3.286,0,0,0-.159-1.048,2.465,2.465,0,0,0-.494-.794,2.255,2.255,0,0,0-.884-.555,3.806,3.806,0,0,0-1.211-.2H50.638Zm27.809-31.439h0l7.8,7.219a2.873,2.873,0,0,0,3.847,0l9.626-8.912a6.521,6.521,0,0,0,6.52,4.881,6.653,6.653,0,0,0,4.54-1.762,5.648,5.648,0,0,0,1.67-5.827,6.353,6.353,0,0,0-5.04-4.417l9.72-9.015-7.609-7.039a8.964,8.964,0,0,1-12.621.635,7.51,7.51,0,0,1-.486-10.641A8.042,8.042,0,0,1,97.6,78.114l-7.562-7.046-9.831,9.078a6.336,6.336,0,0,1,5.161,4.367,5.648,5.648,0,0,1-1.656,5.9,6.668,6.668,0,0,1-4.545,1.769,7.1,7.1,0,0,1-4.186-1.363,5.847,5.847,0,0,1-2.352-3.659l-9.681,8.959a2.376,2.376,0,0,0-.183,3.388,2.038,2.038,0,0,0,.183.183l7.8,7.221a6.369,6.369,0,0,0-5.027,4.438,5.642,5.642,0,0,0,1.672,5.806,6.655,6.655,0,0,0,4.536,1.758,6.52,6.52,0,0,0,6.517-4.866Zm30.392-31.12a2.579,2.579,0,0,1,.652.084,2.626,2.626,0,0,1,1.1.6l10.073,9.332,9.64-8.935a6.787,6.787,0,0,1-3.71-1.329,6.209,6.209,0,0,1-2.119-2.859,5.564,5.564,0,0,1,1.567-6.128,6.69,6.69,0,0,1,4.541-1.752,7.131,7.131,0,0,1,4.444,1.558,5.8,5.8,0,0,1,2.169,4.162l9.419-8.737a2.373,2.373,0,0,0,.183-3.388,1.9,1.9,0,0,0-.183-.182l-7.879-7.3a6.378,6.378,0,0,0,5.213-4.387,5.632,5.632,0,0,0-1.645-5.888,6.652,6.652,0,0,0-4.537-1.757,6.463,6.463,0,0,0-6.562,5.057l-7.889-7.3a2.883,2.883,0,0,0-3.856,0L110.3,52.27a6.49,6.49,0,0,0-6.6-5.275,6.7,6.7,0,0,0-4.553,1.761,5.6,5.6,0,0,0-1.628,5.966,6.406,6.406,0,0,0,5.419,4.349L93.506,67.8l10.079,9.332a2.268,2.268,0,0,1-1.306,3.912,3.464,3.464,0,0,0-2.727,2.386,2.967,2.967,0,0,0,.878,3.113,3.482,3.482,0,0,0,2.406.934,3.547,3.547,0,0,0,3.531-2.648A2.555,2.555,0,0,1,108.839,82.927Zm8.727,70.121a3.071,3.071,0,0,1-1.813-.588l4.414-4.761a3.368,3.368,0,0,1,.606,2.032,3.479,3.479,0,0,1-.159,1.087,2.843,2.843,0,0,1-.447.921,3.13,3.13,0,0,1-.677.7,2.738,2.738,0,0,1-.869.453,3.194,3.194,0,0,1-1,.159Zm-48.193-.016h-.047a3.19,3.19,0,0,1-1.27-.262,3.072,3.072,0,0,1-1.012-.707,3.425,3.425,0,0,1-.645-1.056,3.684,3.684,0,0,1-.231-1.293,3.512,3.512,0,0,1,.151-1.047,3.3,3.3,0,0,1,.423-.913,3.542,3.542,0,0,1,.67-.714,3.14,3.14,0,0,1,.884-.477,3.328,3.328,0,0,1,1.043-.167h.008a3.2,3.2,0,0,1,1.235.246,3.051,3.051,0,0,1,1,.675,3.269,3.269,0,0,1,.67,1.056,3.7,3.7,0,0,1,.247,1.34,3.631,3.631,0,0,1-.247,1.333,3.24,3.24,0,0,1-.67,1.056,2.921,2.921,0,0,1-1,.682A3.066,3.066,0,0,1,69.373,153.032Zm8.935-.021c-.047,0-.094,0-.141,0h-1.76v-2.944h1.867a2.993,2.993,0,0,1,1.034.184,1.5,1.5,0,0,1,.669.523,1.39,1.39,0,0,1,.223.794,1.184,1.184,0,0,1-.541,1.063h.023A2.646,2.646,0,0,1,78.308,153.011Zm36.839-1.154h0a3.632,3.632,0,0,1-.469-3.42,2.986,2.986,0,0,1,.645-1.055,2.867,2.867,0,0,1,1-.714,3.225,3.225,0,0,1,1.278-.262h.07a3.016,3.016,0,0,1,1.919.69l-4.446,4.76Zm-54.228-2.089c-.057,0-.114,0-.17-.007H59.06v-3.325H60.9c.04,0,.081,0,.12,0a2.034,2.034,0,0,1,1.251.432,1.52,1.52,0,0,1,.486,1.223,1.58,1.58,0,0,1-.494,1.222A2.207,2.207,0,0,1,60.919,149.768Zm-7.533-.006H51.674v-3.325H53.5c.04,0,.079,0,.118,0a1.964,1.964,0,0,1,1.228.432,1.533,1.533,0,0,1,.494,1.223,1.741,1.741,0,0,1-.119.666,1.481,1.481,0,0,1-.351.532,1.655,1.655,0,0,1-.621.357A3.166,3.166,0,0,1,53.386,149.762Zm24.984-.634c-.081,0-.163,0-.243-.009H76.406v-2.642h1.576a3.415,3.415,0,0,1,.8.1,1.587,1.587,0,0,1,.59.269,1.145,1.145,0,0,1,.326.405,1.339,1.339,0,0,1,.112.547,1.451,1.451,0,0,1-.095.531,1.152,1.152,0,0,1-.264.389,1.882,1.882,0,0,1-.382.255,1.842,1.842,0,0,1-.455.15C78.533,149.125,78.451,149.128,78.371,149.128Z" transform="translate(0 0.329)" fill="#fff"/>
    <g id="Group_78" data-name="Group 78" transform="translate(50.108 35.605)">
      <rect id="Rectangle_44" data-name="Rectangle 44" width="107" height="99.51" fill="none"/>
    </g>
  </g>
</svg>
