<svg id="Selvevaluering" xmlns="http://www.w3.org/2000/svg" width="200" height="196.812" viewBox="0 0 200 196.812">
  <g id="Layer_1" data-name="Layer 1" transform="translate(0 0)">
    <path id="Exclusion_15" data-name="Exclusion 15" d="M100,196.812a102.337,102.337,0,0,1-20.153-2A100.285,100.285,0,0,1,29.289,167.99a99.476,99.476,0,0,1-12.211-14.564,98,98,0,0,1-9.22-16.716,97.114,97.114,0,0,1,0-76.609,98,98,0,0,1,9.22-16.715A99.765,99.765,0,0,1,44.09,16.805,100.336,100.336,0,0,1,79.847,2a102.608,102.608,0,0,1,40.306,0A100.28,100.28,0,0,1,170.71,28.822a99.518,99.518,0,0,1,12.212,14.564,98.041,98.041,0,0,1,9.22,16.715,97.118,97.118,0,0,1,0,76.609,97.988,97.988,0,0,1-9.22,16.716,100.093,100.093,0,0,1-44,35.653,100.634,100.634,0,0,1-18.771,5.734A102.358,102.358,0,0,1,100,196.812Zm7.427-49.928v5.036a4.4,4.4,0,0,0,.239,1.5,3.065,3.065,0,0,0,.669,1.116,2.922,2.922,0,0,0,1.037.677,3.553,3.553,0,0,0,1.274.247c.04,0,.081,0,.12,0a3.208,3.208,0,0,0,2.271-.949,3.615,3.615,0,0,0,.892-2.59v-5.036h-1.036v4.964a2.745,2.745,0,0,1-.63,1.913,2.061,2.061,0,0,1-1.549.7h-.093a2.019,2.019,0,0,1-1.546-.718,2.826,2.826,0,0,1-.614-1.9v-4.964Zm-56.574,6.462h0l-.653.8a4.04,4.04,0,0,0,1.394.987,4.133,4.133,0,0,0,1.578.327,3.676,3.676,0,0,0,.853-.1,2.813,2.813,0,0,0,.8-.295,2.563,2.563,0,0,0,.629-.478,2.008,2.008,0,0,0,.407-.63,2.3,2.3,0,0,0,.159-.852,2.015,2.015,0,0,0-1.243-1.937,12.909,12.909,0,0,0-1.386-.589,6.566,6.566,0,0,1-1.227-.558,1.1,1.1,0,0,1-.343-1.593,1.371,1.371,0,0,1,.558-.415,1.848,1.848,0,0,1,.713-.144h.021a2.8,2.8,0,0,1,1.036.216,3.76,3.76,0,0,1,1.035.613l.622-.8a4.9,4.9,0,0,0-1.3-.741,3.788,3.788,0,0,0-1.342-.247h-.093a2.892,2.892,0,0,0-1.267.294,2.2,2.2,0,0,0-.932.8,1.969,1.969,0,0,0-.343,1.14,1.991,1.991,0,0,0,.079.574,2.089,2.089,0,0,0,.2.478,1.581,1.581,0,0,0,.327.391,3.308,3.308,0,0,0,.876.59c.19.094.366.174.51.23l.542.207h.167a5.466,5.466,0,0,1,1.2.55,1.181,1.181,0,0,1,.526,1.02,1.1,1.1,0,0,1-.471.949,2.1,2.1,0,0,1-1.171.353l-.1,0a2.98,2.98,0,0,1-1.276-.295,3.019,3.019,0,0,1-1.083-.837Zm96.125-6.533a4.516,4.516,0,0,0-1.67.319,3.835,3.835,0,0,0-1.332.9,4.084,4.084,0,0,0-.8,1.378,5.14,5.14,0,0,0,0,3.514,3.954,3.954,0,0,0,.885,1.362,3.822,3.822,0,0,0,1.346.853,4.655,4.655,0,0,0,1.654.3h.068a5.777,5.777,0,0,0,1.8-.287,4.235,4.235,0,0,0,1.466-.8V151h-3.522v.956h2.462v1.857a3.69,3.69,0,0,1-2.105.656c-.052,0-.105,0-.158,0h-.062a3.179,3.179,0,0,1-1.595-.431,2.878,2.878,0,0,1-1.107-1.187,3.618,3.618,0,0,1-.391-1.7,3.845,3.845,0,0,1,.24-1.379,3.081,3.081,0,0,1,.645-1.059,2.92,2.92,0,0,1,.988-.671,3.18,3.18,0,0,1,1.214-.239h.114a3.438,3.438,0,0,1,2.417.982l.741-.637a4.075,4.075,0,0,0-1.489-1,4.681,4.681,0,0,0-1.718-.326h-.095Zm-11.743,1.872,0,0,4.78,6.691h1.06v-8.494h-1.068v6.766l-4.781-6.766H134.2v8.494h1.036v-6.693Zm-4.295-1.8v8.494h1.043v-8.494Zm-6.733,5.26H125.8l2.158,3.234h1.276l-2.263-3.4a2.564,2.564,0,0,0,1.49-.8,2.527,2.527,0,0,0,.535-1.689,3.088,3.088,0,0,0-.168-1.051,2.252,2.252,0,0,0-1.378-1.355,3.734,3.734,0,0,0-1.208-.2h-3.063v8.494h1.028v-3.234Zm-8.2-5.26v8.494h5.45v-.956h-4.4v-2.781h3.4v-.957h-3.4v-2.843H121.2v-.957Zm-14.948,0v8.494H106.3v-.956h-4.2v-7.538Zm-7.043,6.431h3.793l.756,2.063h1.1l-3.26-8.494H95.362l-3.187,8.494h1.091l.749-2.063Zm-8.972-6.431h0l3.188,8.494h.94l3.188-8.494H91.243l-2.55,7-2.526-7Zm-6.486,0v8.494h5.465v-.956H79.618v-2.781h3.41v-.957h-3.41v-2.843h4.135v-.957Zm-8.725,0h0l3.187,8.494h.949l3.188-8.494H76.031l-2.551,7-2.525-7Zm-4.957,0v8.494h5.235v-.956h-4.2v-7.538Zm-7.147,0v8.494h5.442v-.956h-4.4v-2.781h3.411v-.957H58.772v-2.843h4.151v-.957Zm42.24-85.92c-14.485,0-28.264,8.17-38.8,23a3.51,3.51,0,0,0-.615,1.773v.437a3.5,3.5,0,0,0,.615,1.773c10.137,14.338,23.428,22.508,37.423,23h2.747c13.964-.5,27.254-8.659,37.423-22.988a3.457,3.457,0,0,0,.621-1.756v-.473a3.462,3.462,0,0,0-.621-1.756C128.476,69.425,114.975,61.25,100.75,60.963ZM97.474,152.4h-3.1l1.545-4.239,1.554,4.238Zm28.594-1.212c-.054,0-.109,0-.164-.006h-1.7v-3.338h1.841c.042,0,.085,0,.126,0a2.014,2.014,0,0,1,1.245.434,1.54,1.54,0,0,1,.494,1.227,1.6,1.6,0,0,1-.5,1.227A2.2,2.2,0,0,1,126.068,151.185Zm-26.09-47.564a16,16,0,0,1-11.713-5.15,17.69,17.69,0,0,1-3.754-6.107,18.612,18.612,0,0,1-1.086-7.527A18.11,18.11,0,0,1,88.24,73.517a15.973,15.973,0,0,1,10.652-5.135c.363-.023.716-.034,1.049-.034a16.026,16.026,0,0,1,11.731,5.158,17.7,17.7,0,0,1,3.757,6.1,18.557,18.557,0,0,1,1.09,7.51,18.111,18.111,0,0,1-4.844,11.3,16.127,16.127,0,0,1-10.623,5.149v.023C100.7,103.609,100.338,103.621,99.979,103.621Zm0-27.147c-.192,0-.385.007-.575.02a9.309,9.309,0,0,0-8.334,8.852,9.808,9.808,0,0,0,2.579,7.32,8.623,8.623,0,0,0,6.328,2.788c.18,0,.373-.007.574-.021v.017a9.235,9.235,0,0,0,8.335-8.869A9.815,9.815,0,0,0,106.3,79.26,8.623,8.623,0,0,0,99.978,76.474Z" transform="translate(0 0)" fill="#fff"/>
  </g>
</svg>
