<svg id="stillezone_2" data-name="stillezone 2" xmlns="http://www.w3.org/2000/svg" width="203" height="203" viewBox="0 0 203 203">
  <circle id="Ellipse_33" data-name="Ellipse 33" cx="101.5" cy="101.5" r="101.5" fill="#dcb12d"/>
  <path id="Path_724" data-name="Path 724" d="M189.924,157.95V143.817A2.921,2.921,0,0,0,187,140.9a80.759,80.759,0,0,0-11.118.824,38,38,0,0,0-16.113-15.327,24.957,24.957,0,1,0-28.21,0,38.218,38.218,0,0,0-16.113,15.327,80.76,80.76,0,0,0-11.124-.824,2.921,2.921,0,0,0-2.921,2.921V157.95a7.473,7.473,0,0,0-5.891,7.285v7.052a7.473,7.473,0,0,0,5.891,7.285v11.317a2.921,2.921,0,0,0,2.921,2.921c25.383,0,39.272,12.114,39.4,12.235a2.926,2.926,0,0,0,3.872,0c.133-.122,14.16-12.235,39.394-12.235a2.921,2.921,0,0,0,2.926-2.921V179.572a7.467,7.467,0,0,0,5.885-7.285v-7.052A7.467,7.467,0,0,0,189.924,157.95Zm-54.666-29.969a1.46,1.46,0,0,0,.166-2.661,22.031,22.031,0,1,1,20.466,0,1.46,1.46,0,0,0,.166,2.661,34.275,34.275,0,0,1,16.694,14.182c-14.1,2.511-23.315,8.164-27.1,10.913-3.778-2.766-12.993-8.408-27.1-10.913a34.392,34.392,0,0,1,16.716-14.182Zm-32.286,48.842a4.536,4.536,0,0,1-4.53-4.536v-7.052a4.536,4.536,0,0,1,4.53-4.536h3.186a4.536,4.536,0,0,1,4.53,4.536v7.052a4.536,4.536,0,0,1-4.53,4.536Zm84.043,14.066c-26.788,0-41.341,12.971-41.341,12.971s-14.553-12.971-41.347-12.971V179.743h1.831a7.467,7.467,0,0,0,7.456-7.456v-7.052a7.467,7.467,0,0,0-7.456-7.456h-1.831V143.817c26.794,0,41.347,12.977,41.347,12.977s14.553-12.977,41.341-12.977v13.961H185.19a7.467,7.467,0,0,0-7.456,7.456v7.052a7.467,7.467,0,0,0,7.456,7.456h1.825Zm5.891-18.6a4.536,4.536,0,0,1-4.536,4.536H185.19a4.536,4.536,0,0,1-4.53-4.536v-7.052a4.536,4.536,0,0,1,4.53-4.536h3.18a4.536,4.536,0,0,1,4.536,4.536Z" transform="translate(-42.68 -36.128)" fill="#937325"/>
  <path id="Path_725" data-name="Path 725" d="M84.456,73.648a7,7,0,0,1-2.766.266l-.039-2.273a4.89,4.89,0,0,0,2.085-.05,3.955,3.955,0,0,0,1.659-.8,2.649,2.649,0,0,0,.985-1.4,1.416,1.416,0,0,0-.332-1.278,1.626,1.626,0,0,0-.337-.315,2,2,0,0,0-.36-.183,1.278,1.278,0,0,0-.409-.061,2.91,2.91,0,0,0-.448,0,3.782,3.782,0,0,0-.553.122l-.553.188-.647.277c-.332.122-.614.227-.868.31s-.553.16-.857.238a5.3,5.3,0,0,1-.868.149,5.231,5.231,0,0,1-.835,0,2.948,2.948,0,0,1-.819-.171,3.694,3.694,0,0,1-.747-.4,3.451,3.451,0,0,1-.7-.642,3.319,3.319,0,0,1-.785-1.814,3.872,3.872,0,0,1,.31-2.03,4.619,4.619,0,0,1,1.294-1.731,7.025,7.025,0,0,1,4.425-1.587l.116,2.213a4.978,4.978,0,0,0-3.236.929,2.069,2.069,0,0,0-.747,1.167,1.4,1.4,0,0,0,.321,1.228,1.272,1.272,0,0,0,1.228.431,11.615,11.615,0,0,0,1.93-.553,21.541,21.541,0,0,1,2.351-.686,3.407,3.407,0,0,1,2.4.271,4.149,4.149,0,0,1,1.8,2.213,3.4,3.4,0,0,1,.166,1.328,4.347,4.347,0,0,1-.3,1.278,5.072,5.072,0,0,1-.653,1.162,5.608,5.608,0,0,1-.9.94A6.593,6.593,0,0,1,84.456,73.648Z" transform="translate(-34.065 -27.013)" fill="#937325"/>
  <path id="Path_726" data-name="Path 726" d="M96.4,49.175l-3.252,1.964L92.09,49.4l8.463-5.116,1.051,1.742L98.34,48l5.869,9.691-1.941,1.173Z" transform="translate(-41.152 -19.787)" fill="#937325"/>
  <path id="Path_727" data-name="Path 727" d="M115.63,39.7l2.085-.924,5.432,12.2-2.08.929Z" transform="translate(-51.671 -17.329)" fill="#937325"/>
  <path id="Path_728" data-name="Path 728" d="M129.43,34.174l2.168-.664,3.319,10.825,5.891-1.814.6,1.947-8.059,2.478Z" transform="translate(-57.838 -14.974)" fill="#937325"/>
  <path id="Path_729" data-name="Path 729" d="M153.42,28l2.246-.326,1.626,11.206,6.129-.891.277,2.036-8.374,1.211Z" transform="translate(-68.558 -12.365)" fill="#937325"/>
  <path id="Path_730" data-name="Path 730" d="M178.027,25.52l8.4.105-.028,2.036-6.134-.077-.044,3.684,4.978.061v2.041l-4.978-.061-.077,3.54,6.527.083-.028,2.036-8.795-.111Z" transform="translate(-79.475 -11.404)" fill="#937325"/>
  <path id="Path_731" data-name="Path 731" d="M208.912,39.432l-.354,2.008L199.11,39.78l.315-1.753,8.131-8.214v-.039l-6.19-1.106.354-2.008,9.127,1.615-.3,1.731-8.231,8.225v.028Z" transform="translate(-88.976 -11.913)" fill="#937325"/>
  <path id="Path_732" data-name="Path 732" d="M225.838,46.592a6.118,6.118,0,0,1-1.5-2.085A6.455,6.455,0,0,1,223.78,42a7.744,7.744,0,0,1,1.908-5.094,6.554,6.554,0,0,1,2.085-1.549,6.333,6.333,0,0,1,2.5-.553,7.351,7.351,0,0,1,2.766.481,7.152,7.152,0,0,1,2.334,1.4,6.084,6.084,0,0,1,2.074,4.563,7.451,7.451,0,0,1-.5,2.766,7.351,7.351,0,0,1-1.449,2.428,6.239,6.239,0,0,1-2.074,1.538,6.416,6.416,0,0,1-2.489.553,7.058,7.058,0,0,1-2.688-.47,7.191,7.191,0,0,1-2.406-1.471Zm4.879-.266a4.1,4.1,0,0,0,1.659-.426,4.7,4.7,0,0,0,1.388-1.079,5.1,5.1,0,0,0,.974-1.659,5.155,5.155,0,0,0,.348-1.892,4.69,4.69,0,0,0-.337-1.715,4.243,4.243,0,0,0-.957-1.394,4.375,4.375,0,0,0-1.5-.935,4.314,4.314,0,0,0-1.8-.282,4.154,4.154,0,0,0-1.659.448A4.674,4.674,0,0,0,227.48,38.5a5.155,5.155,0,0,0-.957,1.61,5.078,5.078,0,0,0-.332,1.836,4.614,4.614,0,0,0,.3,1.72,4.16,4.16,0,0,0,.957,1.427,4.276,4.276,0,0,0,1.543.968,4.215,4.215,0,0,0,1.72.266Z" transform="translate(-100 -15.55)" fill="#937325"/>
  <path id="Path_733" data-name="Path 733" d="M265.318,51.339l-7.191,11.278-1.953-1.245-.382-11.444h-.033L250.7,57.91l-1.914-1.217,7.191-11.273,1.9,1.206.354,11.616h.039l5.144-8.092Z" transform="translate(-111.176 -20.297)" fill="#937325"/>
  <path id="Path_734" data-name="Path 734" d="M280.349,63.35l6.245,5.62-1.361,1.516-4.563-4.1-2.461,2.766,3.684,3.319-1.361,1.516-3.689-3.319-2.384,2.65,4.857,4.364-1.366,1.516-6.538-5.913Z" transform="translate(-121.284 -28.309)" fill="#937325"/>
  <path id="Path_735" data-name="Path 735" d="M102.584,317.816l-2.384-1.632a1.339,1.339,0,0,0-.149.94,1.178,1.178,0,0,0,.514.747,1.233,1.233,0,0,0,.553.221,1.344,1.344,0,0,0,.592-.055l.144.553a1.759,1.759,0,0,1-.83.083,1.9,1.9,0,0,1-.835-.337,1.864,1.864,0,0,1-.553-.553,1.7,1.7,0,0,1-.266-.669,1.787,1.787,0,0,1,.033-.741,2.344,2.344,0,0,1,.332-.747,2.278,2.278,0,0,1,.553-.581,1.864,1.864,0,0,1,.669-.3,1.66,1.66,0,0,1,.7,0,1.776,1.776,0,0,1,1.283,1,1.66,1.66,0,0,1,.122.913,2.152,2.152,0,0,1-.382.935A1.738,1.738,0,0,1,102.584,317.816Zm-1.294-2.473a1.317,1.317,0,0,0-.774.409l1.875,1.278a1.344,1.344,0,0,0,.133-.835,1,1,0,0,0-.443-.653A1.106,1.106,0,0,0,101.29,315.343Z" transform="translate(-44.395 -140.63)" fill="#937325"/>
  <path id="Path_736" data-name="Path 736" d="M109.547,319.893a1.776,1.776,0,0,1-.321,1.228l-1.189,1.969-.553-.321,1.106-1.82a2.3,2.3,0,0,0,.243-.525.935.935,0,0,0,.028-.42.73.73,0,0,0-.138-.321,1.012,1.012,0,0,0-.293-.249,1.045,1.045,0,0,0-.924-.122,1.532,1.532,0,0,0-.808.708l-1,1.659-.553-.321,2-3.319.553.321-.343.553h0a1.582,1.582,0,0,1,.774-.155,1.7,1.7,0,0,1,.763.249A1.267,1.267,0,0,1,109.547,319.893Z" transform="translate(-46.988 -142.121)" fill="#937325"/>
  <path id="Path_737" data-name="Path 737" d="M117.739,323.4l-3.186,2.7-.553-.282.465-4.143.592.315-.409,3.241h0l2.434-2.168Z" transform="translate(-50.943 -143.748)" fill="#937325"/>
  <path id="Path_738" data-name="Path 738" d="M120.759,324.3l.553.266-1.659,3.49-.553-.271Zm.371-.769a.437.437,0,0,1,0-.343.42.42,0,0,1,.254-.232.415.415,0,0,1,.343,0,.42.42,0,0,1,.177.149.5.5,0,0,1,.072.221.47.47,0,0,1-.044.232.459.459,0,0,1-.254.232.454.454,0,0,1-.553-.277Z" transform="translate(-53.222 -144.303)" fill="#937325"/>
  <path id="Path_739" data-name="Path 739" d="M125.747,327.622l-.288.653a2.112,2.112,0,0,0-.227-.111,1,1,0,0,0-.625-.089,1.067,1.067,0,0,0-.553.277,1.6,1.6,0,0,0-.4.553l-.758,1.7-.553-.254,1.571-3.535.553.254-.271.614h0a1.554,1.554,0,0,1,.725-.216,1.272,1.272,0,0,1,.708.111Z" transform="translate(-54.669 -146.045)" fill="#937325"/>
  <path id="Path_740" data-name="Path 740" d="M128.063,332.953a1.82,1.82,0,0,1-.42-.614,1.848,1.848,0,0,1-.133-.73,2.163,2.163,0,0,1,.149-.774,2.29,2.29,0,0,1,.415-.68,1.792,1.792,0,0,1,1.322-.614,2.035,2.035,0,0,1,.8.149,1.936,1.936,0,0,1,.83.592,1.77,1.77,0,0,1,.393.907,2.152,2.152,0,0,1-.144,1.056,2.124,2.124,0,0,1-.608.868,1.787,1.787,0,0,1-.9.4,1.959,1.959,0,0,1-1.012-.127,2.052,2.052,0,0,1-.686-.437Zm1.576-.044a1.251,1.251,0,0,0,.62-.288,1.482,1.482,0,0,0,.42-.608,1.449,1.449,0,0,0,.1-.741,1.189,1.189,0,0,0-.254-.625,1.289,1.289,0,0,0-.553-.4,1.261,1.261,0,0,0-.708-.077,1.239,1.239,0,0,0-.614.3,1.549,1.549,0,0,0-.5,1.305,1.25,1.25,0,0,0,.243.636,1.305,1.305,0,0,0,.553.426A1.283,1.283,0,0,0,129.639,332.908Z" transform="translate(-56.979 -147.26)" fill="#937325"/>
  <path id="Path_741" data-name="Path 741" d="M138.963,333a1.792,1.792,0,0,1-.033,1.267l-.708,2.213-.6-.194.653-2.019a2.213,2.213,0,0,0,.116-.553.974.974,0,0,0-.066-.42.769.769,0,0,0-.21-.282,1.106,1.106,0,0,0-.343-.171,1.067,1.067,0,0,0-.929.088,1.532,1.532,0,0,0-.62.874l-.6,1.842-.6-.194,1.195-3.684.6.188-.2.636h0a1.577,1.577,0,0,1,.719-.326,1.709,1.709,0,0,1,.8.066A1.25,1.25,0,0,1,138.963,333Z" transform="translate(-60.34 -148.257)" fill="#937325"/>
  <path id="Path_742" data-name="Path 742" d="M149.25,335.857a1.919,1.919,0,0,1,0,1.289l-.553,2.213-.608-.149.5-2.036a1.659,1.659,0,0,0,0-.957.763.763,0,0,0-.553-.448.918.918,0,0,0-.824.194,1.6,1.6,0,0,0-.553.918l-.459,1.864-.6-.144.5-2.041a2.063,2.063,0,0,0,.066-.7.774.774,0,0,0-.194-.465.913.913,0,0,0-.448-.238.963.963,0,0,0-.846.183,1.56,1.56,0,0,0-.553.924l-.459,1.864-.6-.149.924-3.756.6.149-.155.636h0a1.659,1.659,0,0,1,.675-.376,1.532,1.532,0,0,1,.725,0,1.162,1.162,0,0,1,.974,1.018h0a1.626,1.626,0,0,1,.7-.4,1.577,1.577,0,0,1,.8,0A1.223,1.223,0,0,1,149.25,335.857Z" transform="translate(-63.929 -149.352)" fill="#937325"/>
  <path id="Path_743" data-name="Path 743" d="M159.34,339.786l-2.849-.481a1.339,1.339,0,0,0,.254.918,1.184,1.184,0,0,0,.78.465,1.283,1.283,0,0,0,.62-.044,1.327,1.327,0,0,0,.514-.293l.365.454a1.786,1.786,0,0,1-.714.415,1.908,1.908,0,0,1-.907.05,1.809,1.809,0,0,1-.7-.271,1.77,1.77,0,0,1-.52-.492,1.853,1.853,0,0,1-.282-.686,2.291,2.291,0,0,1,0-.824,2.357,2.357,0,0,1,.271-.769,1.881,1.881,0,0,1,.481-.553,1.659,1.659,0,0,1,.631-.3,1.693,1.693,0,0,1,2.08,1.15,2.13,2.13,0,0,1,.044,1.012A1.431,1.431,0,0,1,159.34,339.786Zm-2.213-1.7a1.327,1.327,0,0,0-.553.7l2.24.376a1.35,1.35,0,0,0-.227-.819,1.029,1.029,0,0,0-.675-.4,1.106,1.106,0,0,0-.78.149Z" transform="translate(-69.65 -150.731)" fill="#937325"/>
  <path id="Path_744" data-name="Path 744" d="M167.043,338.935a1.781,1.781,0,0,1,.221,1.25l-.254,2.284-.625-.072.238-2.107a2.213,2.213,0,0,0,0-.553,1,1,0,0,0-.149-.4.747.747,0,0,0-.26-.232,1.046,1.046,0,0,0-.365-.105,1.106,1.106,0,0,0-.9.277,1.538,1.538,0,0,0-.437.974l-.216,1.925-.62-.072.431-3.844.625.072-.077.658h0a1.66,1.66,0,0,1,.647-.465,1.8,1.8,0,0,1,.791-.094,1.25,1.25,0,0,1,.946.5Z" transform="translate(-73.143 -151.157)" fill="#937325"/>
  <path id="Path_745" data-name="Path 745" d="M172.057,340.72l.144-2.157-.481-.033.039-.553.481.033.089-1.322.631-.028-.094,1.394,1.239.083-.039.553-1.239-.083-.138,2.058a1.012,1.012,0,0,0,.066.553.382.382,0,0,0,.343.194,1.289,1.289,0,0,0,.647-.155l.127.553a2.1,2.1,0,0,1-.238.105,1.364,1.364,0,0,1-.293.066,2.293,2.293,0,0,1-.393,0C172.3,341.92,172,341.5,172.057,340.72Z" transform="translate(-76.736 -150.442)" fill="#937325"/>
  <path id="Path_746" data-name="Path 746" d="M177.419,338.3h-.459v-.553h.459v-.785a1.361,1.361,0,0,1,.3-.924.979.979,0,0,1,.791-.293,1.615,1.615,0,0,1,.863.277l-.155.553a1.477,1.477,0,0,0-.653-.216c-.343,0-.52.216-.553.691l-.028.719,1.068.039v.553l-1.062-.039-.116,3.319h-.62Z" transform="translate(-79.078 -150.032)" fill="#937325"/>
  <path id="Path_747" data-name="Path 747" d="M182.8,343.192a1.759,1.759,0,0,1-.62-.409,1.959,1.959,0,0,1-.4-.631,2.212,2.212,0,0,1-.149-.774,2.3,2.3,0,0,1,.133-.785,1.942,1.942,0,0,1,.387-.636,1.8,1.8,0,0,1,.608-.426,2.108,2.108,0,0,1,.8-.16,2.008,2.008,0,0,1,1,.238,1.847,1.847,0,0,1,.7.7,2.213,2.213,0,0,1,.26,1.034,2.113,2.113,0,0,1-.238,1.034,1.759,1.759,0,0,1-.686.708,1.986,1.986,0,0,1-.99.26A1.892,1.892,0,0,1,182.8,343.192Zm1.444-.625a1.222,1.222,0,0,0,.465-.5,1.433,1.433,0,0,0,.166-.725,1.455,1.455,0,0,0-.183-.725,1.233,1.233,0,0,0-1.106-.653,1.3,1.3,0,0,0-.686.188,1.278,1.278,0,0,0-.454.514,1.571,1.571,0,0,0,0,1.394,1.217,1.217,0,0,0,.47.5,1.244,1.244,0,0,0,.686.177A1.272,1.272,0,0,0,184.246,342.567Z" transform="translate(-81.165 -151.653)" fill="#937325"/>
  <path id="Path_748" data-name="Path 748" d="M192.3,339.05l.039.708h-.249a1.074,1.074,0,0,0-.968.708,1.66,1.66,0,0,0-.094.7l.105,1.864-.625.033-.221-3.872.625-.033.039.669h0a1.66,1.66,0,0,1,.5-.553,1.311,1.311,0,0,1,.68-.221Z" transform="translate(-85.034 -151.51)" fill="#937325"/>
  <path id="Path_749" data-name="Path 749" d="M195.05,335.365l.62-.055.5,5.836-.6.077Z" transform="translate(-87.161 -149.839)" fill="#937325"/>
  <path id="Path_750" data-name="Path 750" d="M202.217,340.207l-2.86.36a1.322,1.322,0,0,0,.5.8,1.283,1.283,0,0,0,1.466,0,1.416,1.416,0,0,0,.4-.426l.481.326a1.8,1.8,0,0,1-.553.608,1.936,1.936,0,0,1-.852.3,1.77,1.77,0,0,1-1.859-.957,2.351,2.351,0,0,1-.2-1.6,1.892,1.892,0,0,1,.3-.669,1.66,1.66,0,0,1,.514-.47,1.765,1.765,0,0,1,1.626-.1,1.659,1.659,0,0,1,.7.6,2.212,2.212,0,0,1,.337.957A1.5,1.5,0,0,1,202.217,340.207Zm-2.605-1a1.316,1.316,0,0,0-.31.819l2.251-.282a1.339,1.339,0,0,0-.454-.719,1.04,1.04,0,0,0-.763-.194A1.106,1.106,0,0,0,199.612,339.211Z" transform="translate(-88.786 -151.146)" fill="#937325"/>
  <path id="Path_751" data-name="Path 751" d="M209.859,336.57l.68,3.811-.586.105-.111-.6h0a1.616,1.616,0,0,1-.47.581,1.587,1.587,0,0,1-.708.31,1.831,1.831,0,0,1-.736,0,1.659,1.659,0,0,1-.642-.282,1.748,1.748,0,0,1-.5-.553,2.213,2.213,0,0,1-.282-.763,2.163,2.163,0,0,1,.055-1.051,1.753,1.753,0,0,1,1.4-1.25,1.66,1.66,0,0,1,.741.028,1.483,1.483,0,0,1,.636.354h0l-.105-.553Zm-.791,3.424a1.211,1.211,0,0,0,.348-.343,1.266,1.266,0,0,0,.194-.476,1.61,1.61,0,0,0,0-.553,1.559,1.559,0,0,0-.188-.553,1.416,1.416,0,0,0-.343-.4,1.183,1.183,0,0,0-.448-.227,1.106,1.106,0,0,0-.5,0,1.167,1.167,0,0,0-.824.553,1.4,1.4,0,0,0-.177,1.073,1.366,1.366,0,0,0,.514.9,1.167,1.167,0,0,0,.968.221,1.207,1.207,0,0,0,.459-.2Z" transform="translate(-92.263 -150.402)" fill="#937325"/>
  <path id="Path_752" data-name="Path 752" d="M216.49,335.25l.16.691a1.109,1.109,0,0,0-.249.044,1.067,1.067,0,0,0-.553.3,1.106,1.106,0,0,0-.282.553,1.814,1.814,0,0,0,0,.708l.42,1.82-.608.138-.868-3.772.614-.144.149.658h0a1.62,1.62,0,0,1,.4-.642,1.305,1.305,0,0,1,.636-.332Z" transform="translate(-95.857 -149.812)" fill="#937325"/>
  <path id="Path_753" data-name="Path 753" d="M222.387,334.039a1.8,1.8,0,0,1,.669,1.073l.614,2.213-.608.166-.553-2.041a2.169,2.169,0,0,0-.21-.553.979.979,0,0,0-.288-.31.758.758,0,0,0-.332-.122,1.029,1.029,0,0,0-.376.044,1.067,1.067,0,0,0-.73.586,1.51,1.51,0,0,0-.039,1.068l.514,1.864-.6.166-1.045-3.712.608-.166.177.642h0a1.548,1.548,0,0,1,.426-.669,1.593,1.593,0,0,1,.7-.382,1.244,1.244,0,0,1,1.079.133Z" transform="translate(-98.042 -149.181)" fill="#937325"/>
  <path id="Path_754" data-name="Path 754" d="M226.578,330.6a.47.47,0,0,1-.194-.608.415.415,0,0,1,.26-.221.42.42,0,0,1,.232,0,.493.493,0,0,1,.2.111.476.476,0,0,1,.127.2.437.437,0,0,1,0,.343.4.4,0,0,1-.26.221.415.415,0,0,1-.371-.044Zm.26.813.592-.194,1.184,3.689-.6.188Z" transform="translate(-101.144 -147.354)" fill="#937325"/>
  <path id="Path_755" data-name="Path 755" d="M233.377,330.4a1.753,1.753,0,0,1,.752,1.018l.78,2.163-.586.21L233.6,331.8a2.47,2.47,0,0,0-.254-.514.934.934,0,0,0-.31-.288.758.758,0,0,0-.337-.094,1.05,1.05,0,0,0-.376.072,1.067,1.067,0,0,0-.68.636,1.51,1.51,0,0,0,.044,1.073l.658,1.814-.592.216-1.316-3.64.592-.21.227.625h0a1.577,1.577,0,0,1,.371-.7,1.736,1.736,0,0,1,.669-.437,1.25,1.25,0,0,1,1.079.044Z" transform="translate(-102.976 -147.581)" fill="#937325"/>
  <path id="Path_756" data-name="Path 756" d="M241.477,326.48l1.4,3.291a2.766,2.766,0,0,1,.2.752,1.731,1.731,0,0,1-.066.68,1.4,1.4,0,0,1-.376.592,2.213,2.213,0,0,1-.719.459,2.843,2.843,0,0,1-1.571.216l-.094-.608a3.03,3.03,0,0,0,.73.028,2.247,2.247,0,0,0,.669-.183,1.554,1.554,0,0,0,.476-.3,1.051,1.051,0,0,0,.277-.382,1.068,1.068,0,0,0,.072-.42,1.312,1.312,0,0,0-.1-.443l-.21-.492h0a1.532,1.532,0,0,1-.94,1.04,1.726,1.726,0,0,1-.7.149,1.588,1.588,0,0,1-.68-.127,1.659,1.659,0,0,1-.6-.4,2.174,2.174,0,0,1-.443-.669,2.108,2.108,0,0,1-.166-1,1.731,1.731,0,0,1,.315-.885,1.776,1.776,0,0,1,.741-.592,1.925,1.925,0,0,1,.725-.144,1.621,1.621,0,0,1,.7.171h0l-.21-.492Zm.232,2.959a1.394,1.394,0,0,0-.055-1.018,1.3,1.3,0,0,0-.7-.725,1.228,1.228,0,0,0-.968,0,1.162,1.162,0,0,0-.669.691,1.333,1.333,0,0,0,.05,1,1.659,1.659,0,0,0,.238.393,1.184,1.184,0,0,0,.3.277,1.162,1.162,0,0,0,.354.144,1.107,1.107,0,0,0,.382.033,1.508,1.508,0,0,0,.376-.1A1.156,1.156,0,0,0,241.709,329.439Z" transform="translate(-106.64 -145.893)" fill="#937325"/>
  <path id="Path_757" data-name="Path 757" d="M248.186,331.134a.459.459,0,0,1-.254-.232.448.448,0,0,1,0-.349.443.443,0,0,1,.553-.271.448.448,0,0,1,.254.238.432.432,0,0,1-.033.443.415.415,0,0,1-.171.155A.448.448,0,0,1,248.186,331.134Z" transform="translate(-110.776 -147.582)" fill="#937325"/>
  <path id="Path_758" data-name="Path 758" d="M250.858,326.465a1.659,1.659,0,0,1-.913-.321,2.129,2.129,0,0,1-.686-.8,2.157,2.157,0,0,1-.26-1.034,1.693,1.693,0,0,1,.271-.935,1.837,1.837,0,0,1,.747-.669,2.042,2.042,0,0,1,.83-.227,1.781,1.781,0,0,1,.835.149l-.2.553a1.311,1.311,0,0,0-.553-.111,1.439,1.439,0,0,0-.592.16,1.184,1.184,0,0,0-.636.769,1.416,1.416,0,0,0,.138,1.056,1.444,1.444,0,0,0,.78.73,1.189,1.189,0,0,0,1-.077,1.45,1.45,0,0,0,.481-.393,1.272,1.272,0,0,0,.26-.509l.553.16a1.909,1.909,0,0,1-.365.725,2.274,2.274,0,0,1-.714.553A1.775,1.775,0,0,1,250.858,326.465Z" transform="translate(-111.27 -144.103)" fill="#937325"/>
  <path id="Path_759" data-name="Path 759" d="M257.729,322.765a1.742,1.742,0,0,1-.741-.05,1.826,1.826,0,0,1-.653-.348,2.074,2.074,0,0,1-.514-.6,2.124,2.124,0,0,1-.271-.752,1.853,1.853,0,0,1,0-.741,1.8,1.8,0,0,1,.321-.675,2.03,2.03,0,0,1,.608-.553,2,2,0,0,1,.979-.288,1.792,1.792,0,0,1,.957.26,2.273,2.273,0,0,1,1.04,1.781,1.842,1.842,0,0,1-.243.957,2.08,2.08,0,0,1-1.5.985Zm.946-1.261a1.238,1.238,0,0,0,.155-.664,1.593,1.593,0,0,0-.725-1.25,1.234,1.234,0,0,0-.664-.144,1.35,1.35,0,0,0-1.156.686,1.234,1.234,0,0,0-.144.675,1.444,1.444,0,0,0,.216.686,1.482,1.482,0,0,0,.492.52,1.261,1.261,0,0,0,1.333,0,1.339,1.339,0,0,0,.492-.492Z" transform="translate(-114.18 -142.443)" fill="#937325"/>
  <path id="Path_760" data-name="Path 760" d="M266.558,311.758a1.93,1.93,0,0,1,.974.846l1.283,1.87-.514.354-1.184-1.731a1.693,1.693,0,0,0-.7-.658.763.763,0,0,0-.719.133.913.913,0,0,0-.4.741,1.593,1.593,0,0,0,.326,1.018l1.106,1.587-.514.349-1.189-1.737a2.108,2.108,0,0,0-.476-.52.829.829,0,0,0-.476-.166,1.012,1.012,0,0,0-.907.935,1.587,1.587,0,0,0,.321,1.018l1.106,1.588-.514.354-2.185-3.2.514-.354.376.553h0a1.66,1.66,0,0,1,.171-.747,1.427,1.427,0,0,1,.476-.553,1.151,1.151,0,0,1,1.4-.044h0a1.6,1.6,0,0,1,.7-1.394A1.228,1.228,0,0,1,266.558,311.758Z" transform="translate(-117.03 -139.302)" fill="#937325"/>
</svg>
