<svg id="Videnskontruktion" xmlns="http://www.w3.org/2000/svg" width="200" height="197" viewBox="0 0 200 197">
  <g id="Layer_1" data-name="Layer 1" transform="translate(0 0.318)">
    <path id="Exclusion_13" data-name="Exclusion 13" d="M100,197a102.254,102.254,0,0,1-20.153-2,100.052,100.052,0,0,1-62.769-41.426,98.171,98.171,0,0,1-9.22-16.732,97.3,97.3,0,0,1,0-76.681,98.136,98.136,0,0,1,9.22-16.732,100.108,100.108,0,0,1,44-35.687A100.6,100.6,0,0,1,79.847,2a102.455,102.455,0,0,1,40.307,0A100.251,100.251,0,0,1,170.71,28.851a99.514,99.514,0,0,1,12.21,14.577,98.035,98.035,0,0,1,9.22,16.732,97.282,97.282,0,0,1,0,76.681,98.04,98.04,0,0,1-9.22,16.732,100.111,100.111,0,0,1-44,35.686A100.58,100.58,0,0,1,120.153,195,102.26,102.26,0,0,1,100,197Zm3.379-45.1h0l-.661.8a4.149,4.149,0,0,0,1.394.989,4.213,4.213,0,0,0,1.563.375,3.691,3.691,0,0,0,.851-.1,2.809,2.809,0,0,0,.8-.295,2.713,2.713,0,0,0,.629-.479,2.172,2.172,0,0,0,.422-.677,2.284,2.284,0,0,0,.159-.854,2.016,2.016,0,0,0-1.242-1.938,13.115,13.115,0,0,0-1.387-.59,6.533,6.533,0,0,1-1.227-.558,1.1,1.1,0,0,1-.343-1.6,1.283,1.283,0,0,1,.55-.414,1.866,1.866,0,0,1,.721-.144h.02a2.748,2.748,0,0,1,1.028.215,3.557,3.557,0,0,1,1.036.614l.628-.8a4.914,4.914,0,0,0-1.3-.742,3.814,3.814,0,0,0-1.356-.248h-.071a2.907,2.907,0,0,0-1.273.3,2.278,2.278,0,0,0-.94.8,2.016,2.016,0,0,0-.335,1.139,1.979,1.979,0,0,0,.079.575,2.057,2.057,0,0,0,.191.479,1.827,1.827,0,0,0,.327.391,4.218,4.218,0,0,0,.406.319,3.252,3.252,0,0,0,.478.272,5.363,5.363,0,0,0,.511.231l.541.207h.176a5.383,5.383,0,0,1,1.194.551,1.178,1.178,0,0,1,.527,1.021,1.122,1.122,0,0,1-.47.949,2.106,2.106,0,0,1-1.168.353l-.1,0a2.954,2.954,0,0,1-1.275-.295,2.986,2.986,0,0,1-1.083-.838Zm51.453-6.527a4.635,4.635,0,0,0-1.7.323,3.8,3.8,0,0,0-1.346.9,3.985,3.985,0,0,0-.869,1.38,4.857,4.857,0,0,0,0,3.414,3.98,3.98,0,0,0,.869,1.372,3.864,3.864,0,0,0,1.346.917v.04a4.591,4.591,0,0,0,3.4,0,3.955,3.955,0,0,0,1.347-.877,4.105,4.105,0,0,0,.892-1.372,4.794,4.794,0,0,0,.327-1.762,4.7,4.7,0,0,0-.327-1.763,4.042,4.042,0,0,0-.892-1.372,4.1,4.1,0,0,0-1.347-.878A4.633,4.633,0,0,0,154.832,145.37ZM70.239,151.9h0l-.66.8a4.076,4.076,0,0,0,1.395.989,4.139,4.139,0,0,0,1.61.358,3.813,3.813,0,0,0,.86-.1,2.826,2.826,0,0,0,1.4-.8,2.184,2.184,0,0,0,.423-.678,2.3,2.3,0,0,0,.152-.853,2.1,2.1,0,0,0-.16-.87,2.191,2.191,0,0,0-1.115-1.013,13.787,13.787,0,0,0-1.386-.59,6.567,6.567,0,0,1-1.227-.558,1.068,1.068,0,0,1-.55-.941,1.1,1.1,0,0,1,.214-.671,1.288,1.288,0,0,1,.55-.414,1.847,1.847,0,0,1,.715-.144h.027a2.746,2.746,0,0,1,1.028.215,3.789,3.789,0,0,1,1.036.614l.621-.8a4.873,4.873,0,0,0-1.291-.742,3.861,3.861,0,0,0-1.364-.248H72.44a2.857,2.857,0,0,0-1.26.3,2.3,2.3,0,0,0-.941.8,2.032,2.032,0,0,0-.342,1.139,2.241,2.241,0,0,0,.08.575,2.426,2.426,0,0,0,.2.479,1.829,1.829,0,0,0,.327.391,3.337,3.337,0,0,0,.4.319,2.893,2.893,0,0,0,.486.272c.2.1.364.177.5.231l.542.207h.184a5.294,5.294,0,0,1,1.188.551,1.18,1.18,0,0,1,.534,1.021,1.116,1.116,0,0,1-.479.949,2.078,2.078,0,0,1-1.16.353l-.1,0a2.979,2.979,0,0,1-1.283-.295,2.93,2.93,0,0,1-1.076-.838Zm57.395,2.114h0l.12,0a3.2,3.2,0,0,0,2.27-.952,3.609,3.609,0,0,0,.893-2.592v-5.041H129.88V150.4a2.756,2.756,0,0,1-.629,1.915,2.064,2.064,0,0,1-1.553.7l-.08,0h-.046a2.028,2.028,0,0,1-1.549-.718,2.838,2.838,0,0,1-.613-1.9v-4.969h-1.037v5.041a4.449,4.449,0,0,0,.239,1.5,3.037,3.037,0,0,0,.669,1.117,2.877,2.877,0,0,0,1.036.677,3.521,3.521,0,0,0,1.3.248Zm-39.459-8.654a4.392,4.392,0,0,0-1.687.335,3.822,3.822,0,0,0-1.355.9,4.123,4.123,0,0,0-.861,1.38,4.844,4.844,0,0,0,0,3.414,4.063,4.063,0,0,0,.861,1.372,3.837,3.837,0,0,0,1.355.917,4.416,4.416,0,0,0,1.691.335h.043a4.481,4.481,0,0,0,1.667-.32,3.886,3.886,0,0,0,2.232-2.249,4.933,4.933,0,0,0,0-3.525,3.894,3.894,0,0,0-.885-1.372,4.066,4.066,0,0,0-1.346-.878,4.464,4.464,0,0,0-1.638-.311h-.077Zm-42.954.071v8.5h2.59c.073,0,.148.006.221.006A4.307,4.307,0,0,0,51,152.759a4.1,4.1,0,0,0,1.163-3.063,4.63,4.63,0,0,0-.31-1.723,3.8,3.8,0,0,0-2.271-2.225,5,5,0,0,0-1.759-.319h-2.6Zm116.7,1.8,0,0,4.779,6.7h1.051v-8.5h-1.059V152.2l-4.781-6.771h-1.028v8.5h1.036v-6.7Zm-14.207-1.8v8.5h1.043v-8.5Zm-7.626,0v.957h2.543v7.545h1.035v-7.545h2.574v-.957Zm-4.84,4.719h0l2.761,3.782h1.3l-3.371-4.626,3.282-3.876h-1.331l-3.857,4.674v-4.674h-1.043v8.5h1.043v-2.353l1.214-1.43Zm-15.645.545,2.167,3.238,1.251-.08-2.255-3.325a2.593,2.593,0,0,0,1.49-.8,2.528,2.528,0,0,0,.533-1.691,3.085,3.085,0,0,0-.167-1.052,2.262,2.262,0,0,0-1.378-1.356,3.8,3.8,0,0,0-1.218-.2h-3.052v8.5h1.036v-3.237Zm-10.223-5.264v.957h2.543l.015,7.545h1.035v-7.545h2.565v-.957Zm-14.1,1.8v0l4.779,6.7h1.052v-8.5h-1.068V152.2l-4.781-6.771H94.23v8.5h1.044v-6.7Zm-15.9,2.912h.015l2.766,3.788h1.275l-3.371-4.626,3.283-3.876H82.008L78.151,150.1v-4.674H77.115v8.5h1.036v-2.353l1.219-1.435Zm-17.219-2.912v0l4.779,6.7h1.036v-8.5H66.932V152.2l-4.781-6.771H61.115v8.5h1.036v-6.7Zm-8.2-1.8v8.5h5.427v-.957h-4.4v-2.784h3.4v-.957h-3.4v-2.847h4.159v-.957Zm-12,0v8.5h1.076v-8.5Zm-8.8,0h0l3.188,8.5h.948l3.187-8.5H39.331l-2.542,7-2.525-7H33.156ZM114.574,58a2.974,2.974,0,0,0-1.675.514c-.669.436-15.12,10.243-17.529,12.052-3.983,2.922-4.562,5.951-4.622,8.263v36.816c0,5.592,6.4,8.933,12.591,8.933.09,0,.193,0,.335,0a13.021,13.021,0,0,0,6.477-1.727c3.332-2.019,19.06-14.184,20.843-15.565l.026-.02a2.963,2.963,0,0,0,1.386-2.512v-38.9a2.936,2.936,0,0,0-1.65-2.283,3,3,0,0,0-3.139.327c-5.461,4.268-17.664,13.638-20.526,15.361A15.076,15.076,0,0,1,99.936,81.6a3.65,3.65,0,0,1-2.478-.738,2.647,2.647,0,0,1-.733-2.01c.03-1.071.217-2.077,2.208-3.549,1.438-1.053,7.813-5.421,12.909-8.9a2.98,2.98,0,0,0,5.713-1.164V60.974a2.978,2.978,0,0,0-2.98-2.97ZM90.7,47.463a2.964,2.964,0,0,0-1.564.479c-5.691,3.676-15.414,9.9-17.275,10.966a10.065,10.065,0,0,0-4.934,8.216v.928l0,.062,0,.031,0,.047v36.314c0,5.595,6.7,8.143,12.917,8.143.1,0,.2,0,.293,0a17.7,17.7,0,0,0,5.587-.9,2.981,2.981,0,0,0,1.992-2.8V80.555c0-6.755,1.518-10.123,5.8-12.873,1.1-.67,13.642-9.056,13.753-9.131a2.98,2.98,0,0,0,1.323-2.473v-.334a2.979,2.979,0,0,0-4.628-2.481c-.121.084-18.347,12.2-22.073,14.435A14.883,14.883,0,0,1,75.157,70.1a2.2,2.2,0,0,1-1.668-.539A3.288,3.288,0,0,1,72.9,67.4a4.057,4.057,0,0,1,1.92-3.334c1.557-.9,7.809-4.877,13.142-8.3a2.979,2.979,0,0,0,5.768-1.021V50.439a2.974,2.974,0,0,0-2.922-2.975ZM88.242,153.015H88.2a3.171,3.171,0,0,1-1.271-.264,3.08,3.08,0,0,1-1.012-.71,3.473,3.473,0,0,1-.646-1.061,3.68,3.68,0,0,1-.231-1.3,3.508,3.508,0,0,1,.152-1.052,3.09,3.09,0,0,1,.43-.917,3.322,3.322,0,0,1,.661-.718,3.153,3.153,0,0,1,.884-.479,3.324,3.324,0,0,1,1.044-.168h.009a3.184,3.184,0,0,1,1.234.247,3.007,3.007,0,0,1,1.674,1.739,3.591,3.591,0,0,1,.247,1.348,3.518,3.518,0,0,1-.247,1.34,2.988,2.988,0,0,1-.67,1.061,2.934,2.934,0,0,1-1,.685A3.041,3.041,0,0,1,88.242,153.015Zm66.706-.024h-.113a3.169,3.169,0,0,1-1.267-.263,2.962,2.962,0,0,1-1-.71,3.19,3.19,0,0,1-.646-1.06,3.528,3.528,0,0,1-.239-1.3,3.851,3.851,0,0,1,.151-1.053,3.246,3.246,0,0,1,1.091-1.595,3.383,3.383,0,0,1,.885-.479,3.319,3.319,0,0,1,1.042-.168h.017a3.212,3.212,0,0,1,1.235.248,3.031,3.031,0,0,1,1.666,1.739,3.576,3.576,0,0,1,.247,1.331,3.517,3.517,0,0,1-.247,1.34,2.971,2.971,0,0,1-2.821,1.97Zm-107.174-.008H47.73l-1.475-.008v-6.6h1.557a3.513,3.513,0,0,1,1.67.423,2.977,2.977,0,0,1,1.172,1.18,3.568,3.568,0,0,1,.414,1.715,3.783,3.783,0,0,1-.111.909,3.124,3.124,0,0,1-.311.8,3,3,0,0,1-.494.661,2.923,2.923,0,0,1-.669.5,3.366,3.366,0,0,1-.8.311A3.753,3.753,0,0,1,47.774,152.983Zm72.1-3.248c-.056,0-.114,0-.17-.007h-1.69v-3.342h1.841c.041,0,.082,0,.123,0a2.015,2.015,0,0,1,1.248.435,1.534,1.534,0,0,1,.486,1.228,1.6,1.6,0,0,1-.493,1.229A2.2,2.2,0,0,1,119.875,149.735Zm-8.322-52.781V91l14.9-11.518v5.935l-14.9,11.532Z" transform="translate(0 -0.318)" fill="#fff"/>
  </g>
</svg>
