<svg xmlns="http://www.w3.org/2000/svg" width="288.177" height="90.711" viewBox="0 0 288.177 90.711"><g transform="translate(0)"><path d="M334.46,59.074a9.055,9.055,0,1,1,9.113-9.056C343.525,54.594,339.552,59.218,334.46,59.074Z" transform="translate(-63.68 -8.017)" fill="#2b4d96"/><path d="M309.878,18.716c4.689-.314,9.056,3.941,9.088,8.92a9.088,9.088,0,1,1-18.177,0C300.822,22.6,305.254,18.4,309.878,18.716Z" transform="translate(-58.868 -3.66)" fill="#dcb12d"/><path d="M300.859,73.384c-.113-4.826,4.263-9,9.121-8.944a9.074,9.074,0,1,1-9.121,8.944Z" transform="translate(-58.881 -12.611)" fill="#a9cb6b"/><path d="M117.795,51.83H233a.491.491,0,0,1,.458.426.5.5,0,0,1-.378.515,2.59,2.59,0,0,1-.651.088H4.133a15.861,15.861,0,0,1-1.609-.088.466.466,0,0,1-.394-.483.458.458,0,0,1,.426-.458H117.795Z" transform="translate(-0.417 -10.144)" fill="#3f3f3f"/><path d="M175.825,14.376c1.737-2.855,4.142-4.592,7.568-4.625s5.976,1.2,6.973,4.657a1.271,1.271,0,0,0,.684-.66,9.354,9.354,0,0,1,10.287-3.716,5.63,5.63,0,0,1,4.166,3.973,11.261,11.261,0,0,1,.6,3.491v14.4c0,.4.225.973-.547,1.005-.426,0-.708-.088-.708-.6V18.437a12.452,12.452,0,0,0-.346-3.4,4.979,4.979,0,0,0-4.343-4.021,8.212,8.212,0,0,0-8.847,4.745,6.66,6.66,0,0,0-.539,2.8c0,4.255,0,8.485,0,12.74v1.086c0,.346-.257.426-.571.426s-.66,0-.684-.45,0-.748,0-1.086V17.866a11.784,11.784,0,0,0-.314-3,4.826,4.826,0,0,0-4.021-3.772,7.367,7.367,0,0,0-8.308,3.668,9.145,9.145,0,0,0-1.456,5.172c.088,3.973,0,7.946,0,11.92,0,.515,0,1-.748.965-.539,0-.74-.193-.716-.74a7.118,7.118,0,0,0,0-.8V10.692c0-.571.314-.66.8-.66s.66.2.66.66v3.4a.957.957,0,0,0,.4.281Z" transform="translate(-34.045 -1.893)" fill="#3f3f3f"/><path d="M268.464,101.059c.8-.8.861-.8,1.609,0a7.7,7.7,0,0,0,7.2,2.485,6.33,6.33,0,0,0,5.461-4.576,15.925,15.925,0,0,0,.483-5.823c-.66-.121-.853.426-1.166.684a9.024,9.024,0,0,1-9.2,1.858c-2.863-.941-4.343-3.29-5.115-6.032a19.5,19.5,0,0,1,0-10.568c.861-3.113,2.63-5.574,6.032-6.29a8.5,8.5,0,0,1,8.284,2.413c.29.281.483.651.885.853.491-.225.314-.684.346-1.054s0-1.005.056-1.512.458-.547.853-.491.458.257.458.571V94.544a19.066,19.066,0,0,1-.257,3.394,8.043,8.043,0,0,1-8.083,6.949,8.775,8.775,0,0,1-7.842-3.828ZM283.239,84.8v-1.89a14.969,14.969,0,0,0-.088-3.4,7.239,7.239,0,0,0-6.772-5.63c-3.571-.177-5.831,1.2-7.054,4.625a17.115,17.115,0,0,0-.056,11.686,6.231,6.231,0,0,0,3.8,4.263,8.115,8.115,0,0,0,8.413-1.625,4.979,4.979,0,0,0,1.8-4.118,34.87,34.87,0,0,1-.04-3.885Z" transform="translate(-52.255 -14.196)" fill="#3f3f3f"/><path d="M3.555,31a3.024,3.024,0,0,1-.113-1.343V2.119C3.443.43,3.242.6,5.011.6H21.724c.338,0,.4.314.4.6s0,.571-.4.6-.74,0-1.086,0H6.242c-1.488,0-1.488,0-1.488,1.48V13.628c0,1.206,0,1.206,1.231,1.206H19.553c.338,0,.515.314.491.684s-.177.515-.491.515H5.413a.579.579,0,0,0-.66.66v11.26c0,2.2-.257,1.938,2,1.938H21.7c.346,0,.426.37.426.716s-.145.515-.483.515h-17A2.751,2.751,0,0,1,3.555,31Z" transform="translate(-0.668 -0.116)" fill="#3f3f3f"/><path d="M157.835,92.279a8.847,8.847,0,0,1-3.458,2.8,10.641,10.641,0,0,1-8.252.571,5.63,5.63,0,0,1-3.861-4.882,5.727,5.727,0,0,1,2.485-5.63,10.81,10.81,0,0,1,4.826-1.89,20.911,20.911,0,0,1,3.828-.281h3.828c.6,0,.941-.177.917-.861,0-1,0-2-.064-3a5.115,5.115,0,0,0-4.021-4.914,9.346,9.346,0,0,0-7.062.66,4.938,4.938,0,0,0-2.831,3.8c-.056.515-.225.74-.8.66s-.571-.491-.483-.941a5.8,5.8,0,0,1,1.745-3.346c2.855-2.8,8.542-3.37,11.855-1.142a6.064,6.064,0,0,1,2.8,5.2c.056,3.66,0,7.319.056,10.946a19.786,19.786,0,0,0,.434,4.882c.056.29.257.692-.29.716-.426,0-.973.2-1.11-.458-.088-.483-.177-1-.233-1.48s-.056-.885-.088-1.343C158,92.392,157.924,92.335,157.835,92.279Zm-3.828-7.914c-.917,0-1.826-.056-2.743,0a10.456,10.456,0,0,0-6.008,2.027,4.673,4.673,0,0,0,0,7.239,6.788,6.788,0,0,0,4.769,1.223,8.847,8.847,0,0,0,7.576-4.4,3.016,3.016,0,0,0,.483-1.544V85.226c0-.627-.169-.917-.861-.885C156.21,84.421,155.125,84.365,154.007,84.365Z" transform="translate(-27.83 -14.191)" fill="#3f3f3f"/><path d="M221.514,20.905a10.07,10.07,0,0,0,4.319,10.03c2.855,1.745,7.737,1.609,10.223-1.223.088-.121.2-.2.29-.314.314-.378.627-.29.941,0s.113.539-.08.8a8.5,8.5,0,0,1-5.348,3.032c-5.429.844-10.11-2.373-11.4-7.9a15.072,15.072,0,0,1,.909-10.174,9.024,9.024,0,0,1,10.8-5.051,8.172,8.172,0,0,1,5.517,5.469,13.867,13.867,0,0,1,.635,4.456c0,.684-.233.853-.893.8H226.749C224.972,20.905,223.211,20.905,221.514,20.905Zm7.657-1.3h6.571c1.343,0,1.343,0,1.174-1.432a10.2,10.2,0,0,0-.917-3,7.19,7.19,0,0,0-11.18-2.493,9.82,9.82,0,0,0-3.29,5.719c-.225,1.142-.225,1.166.917,1.166C224.69,19.6,226.942,19.6,229.17,19.6Z" transform="translate(-43.05 -1.908)" fill="#3f3f3f"/><path d="M131.041,92.564c-2.976,4.488-10.375,5.059-14.429.716a10.641,10.641,0,0,1-2.807-5.4c-.708-4.086-.483-8.043,2.059-11.509A8.847,8.847,0,0,1,125.516,73,8.18,8.18,0,0,1,131,78.3a13.262,13.262,0,0,1,.684,4.721c0,.708-.29.8-.917.8H115.752c-.973,0-1,0-1,.965.056,4.086,1.544,7.4,5.284,9.346a8.236,8.236,0,0,0,9.37-1.512C129.98,92.162,130.35,91.68,131.041,92.564Zm-8.429-10.054h6.708c1.174,0,1.263-.088,1.118-1.287a15.675,15.675,0,0,0-.37-1.89A7.331,7.331,0,0,0,118,75.819a9.893,9.893,0,0,0-3.024,5.542c-.2,1.029-.145,1.118.909,1.118,2.236.032,4.5.032,6.724.032Z" transform="translate(-22.205 -14.218)" fill="#3f3f3f"/><path d="M133.793,21.611a13.5,13.5,0,0,1-1.721,7.118,9.666,9.666,0,0,1-16.367.225,11.863,11.863,0,0,1-1.769-5.284,16.158,16.158,0,0,1,.885-7.826A9.7,9.7,0,0,1,130.1,11.984a10.874,10.874,0,0,1,3.6,7.311A20.316,20.316,0,0,1,133.793,21.611Zm-18.66-.08V22.9a10.043,10.043,0,0,0,3.4,7.239,8.164,8.164,0,0,0,12.684-2.654,12.555,12.555,0,0,0-.37-12.466,8.139,8.139,0,0,0-13.2-1.263,11.55,11.55,0,0,0-2.517,7.777Z" transform="translate(-22.27 -1.898)" fill="#3f3f3f"/><path d="M19.173,84.547a12.6,12.6,0,0,1,1.609-7.086,9.217,9.217,0,0,1,9.177-4.826,8.847,8.847,0,0,1,7.971,5.63,15.185,15.185,0,0,1,.08,12.145,9.322,9.322,0,0,1-9.121,5.831,9.571,9.571,0,0,1-8.767-6.169A12.869,12.869,0,0,1,19.173,84.547Zm18.6-.056a10.633,10.633,0,0,0-.539-4.424c-1.118-3.064-3.032-5.316-6.378-6a7.954,7.954,0,0,0-9.113,4.48A13.4,13.4,0,0,0,21.208,89.2a8.485,8.485,0,0,0,3.217,4.311C28.88,96.636,34.88,94.689,37,89.494A11.847,11.847,0,0,0,37.776,84.491Z" transform="translate(-3.746 -14.204)" fill="#3f3f3f"/><path d="M146.823,14.5a11.493,11.493,0,0,1,3.113-3.378,8.686,8.686,0,0,1,7.745-.885,5.5,5.5,0,0,1,3.571,3.885,12.981,12.981,0,0,1,.571,3.66c0,4.713,0,9.4,0,14.115,0,.491.113,1.062-.684,1.029-.4,0-.6-.169-.6-.571V31.273c0-4.826.064-9.6-.08-14.4-.113-4.488-2.863-6.346-7.239-5.751a5.759,5.759,0,0,0-2.968,1.319,9.1,9.1,0,0,0-3.627,7.343V32.415c0,.426-.257.515-.627.515s-.66,0-.635-.483V10.788c0-.37.121-.6.547-.6s.716.145.716.6v2.2a2.879,2.879,0,0,0,.2,1.52Z" transform="translate(-28.448 -1.9)" fill="#3f3f3f"/><path d="M34.622,14.419c.394-.539.716-.973,1.054-1.375a8.646,8.646,0,0,1,10.118-2.654c2.115.861,3.056,2.63,3.515,4.745a15.016,15.016,0,0,1,.314,3.4V31.96c0,.314.2.748-.314.917a.719.719,0,0,1-1.013-.716V18.191a11.4,11.4,0,0,0-.571-3.917,4.568,4.568,0,0,0-3.684-3.113,7.528,7.528,0,0,0-8.292,3.716,9.475,9.475,0,0,0-1.424,5.059c.08,3.965,0,7.938,0,11.912,0,.458.177,1.086-.651,1.062-.378,0-.635-.088-.6-.515V10.848c0-.4.056-.74.571-.716s.684.233.684.66v2.6A1.665,1.665,0,0,0,34.622,14.419Z" transform="translate(-6.471 -1.904)" fill="#3f3f3f"/><path d="M250.443,14.464a6.194,6.194,0,0,0,1.263-1.432,8.453,8.453,0,0,1,8.308-3.072c2.976.426,4.745,2.284,5.373,5.429a19.436,19.436,0,0,1,.29,3.137V31.917c0,.941-.145,1.118-.8,1.029a.466.466,0,0,1-.515-.515v-14a13.126,13.126,0,0,0-.45-3.8,4.689,4.689,0,0,0-3.861-3.458c-3.8-.716-7.03,1-8.8,4.745a8.4,8.4,0,0,0-.861,3.828c.056,4.021,0,8.139,0,12.2,0,.515,0,1.054-.748.973-.314,0-.507-.121-.539-.458v-21.7c0-.37.113-.6.539-.627a.619.619,0,0,1,.748.6V12.8a11.342,11.342,0,0,0,.056,1.665Z" transform="translate(-48.751 -1.917)" fill="#3f3f3f"/><path d="M195.33,77.349a11.751,11.751,0,0,1,2.34-2.767,8.542,8.542,0,0,1,8.847-1.319c1.97.8,2.855,2.461,3.4,4.375a11.058,11.058,0,0,1,.338,2.566V94.867c0,.282.145.66-.249.8a.676.676,0,0,1-.973-.547V81.153a11.849,11.849,0,0,0-.515-3.772,4.689,4.689,0,0,0-3.885-3.4c-4.118-.716-7.086,1.174-8.976,5.316a6.748,6.748,0,0,0-.6,2.912v12.6c0,.37.169.885-.491.909-.458,0-.8-.056-.8-.651a6.619,6.619,0,0,0,0-.692V73.561c0-.458.346-.6.8-.571s.515.314.491.651v2.735a1.182,1.182,0,0,0,.265.973Z" transform="translate(-37.923 -14.204)" fill="#3f3f3f"/><path d="M239.048,77.3a12.138,12.138,0,0,1,2.2-2.654,8.606,8.606,0,0,1,8.847-1.4,5.035,5.035,0,0,1,2.976,2.9A9.442,9.442,0,0,1,253.935,80V94.934c0,.4.08.861-.571.8-.458,0-.692-.145-.66-.635V81.325a13.126,13.126,0,0,0-.458-3.66,4.753,4.753,0,0,0-4.142-3.66c-3.917-.571-6.716,1.15-8.574,4.89a7.118,7.118,0,0,0-.8,3.426c.056,4.142,0,8.316,0,12.491,0,.314.2.74-.282.941a.684.684,0,0,1-1.005-.66c0-.281,0-.539,0-.8V73.725c0-.45.257-.651.692-.684s.627.257.6.684v3.032C238.791,76.894,238.694,77.127,239.048,77.3Z" transform="translate(-46.469 -14.207)" fill="#3f3f3f"/><path d="M87.172,78.643V64.528c0-.458-.225-1.086.6-1.118.426,0,.708.056.684.571V91.528c0,1.2,0,1.2,1.231,1.2h13.858a.563.563,0,0,1,.571.627c0,.4-.177.6-.571.6H87.63a.483.483,0,0,1-.491-.515v-.973C87.172,87.868,87.172,83.268,87.172,78.643Z" transform="translate(-17.054 -12.41)" fill="#3f3f3f"/><path d="M68.219,30.463c.571-.257.571-.708.716-1.086,2.365-6.08,4.737-12.137,7.11-18.225a3.79,3.79,0,0,1,.29-.6.8.8,0,0,1,1-.2c.426.177.225.515.113.8-.853,2.2-1.713,4.432-2.574,6.635-1.882,4.826-3.772,9.6-5.63,14.4-.145.37-.177.8-.748.861a.989.989,0,0,1-1.11-.8c-.66-1.745-1.343-3.491-2.035-5.228-1.962-5-3.925-10.062-5.871-15.121a4.955,4.955,0,0,1-.233-.627c-.056-.29-.4-.571,0-.861a.981.981,0,0,1,1.2.346,17.33,17.33,0,0,1,.66,1.657c2.228,5.686,4.424,11.4,6.651,17.091C67.857,29.755,68.042,30.069,68.219,30.463Z" transform="translate(-11.557 -2.007)" fill="#3f3f3f"/><path d="M3.941,82.679V73.221c0-1.231,0-1.231-1.2-1.231H.539c-.426,0-.539-.257-.539-.571s.056-.651.515-.651h2.6c.571,0,.8-.233.8-.8V67.221a7.657,7.657,0,0,1,1.029-3.845A4.946,4.946,0,0,1,7.89,61.084a9.708,9.708,0,0,1,4.021-.113c.483.088.74.314.66.8-.088.66-.515.458-.917.4a10.2,10.2,0,0,0-1.914-.113A4.247,4.247,0,0,0,5.4,65.524a19,19,0,0,0-.225,4.625c0,.547.37.547.8.547h4.375c.314,0,.66-.056.8.37a.627.627,0,0,1-.66.885H6.925c-1.914,0-1.713-.2-1.713,1.8v19.2c0,.458-.29.515-.627.515s-.66-.056-.627-.515v-.933C3.941,88.9,3.941,85.792,3.941,82.679Z" transform="translate(0 -11.902)" fill="#3f3f3f"/><path d="M278.976,19.105V11.167c0-1.062,0-1.062-1.054-1.086h-2.349c-.483,0-.8-.177-.8-.716s.378-.571.8-.571h2.606c.6,0,.8-.233.8-.8,0-1.287-.056-2.574,0-3.828,0-.515-.515-1.464.627-1.432,1,0,.571.861.6,1.375.064,1.166,0,2.365,0,3.571s0,1.11,1.142,1.142h3.145c.458,0,.853.08.8.651s-.426.635-.885.635h-3.29c-.651,0-1,.113-1,.885V26.762a6.386,6.386,0,0,0,.458,2,2.662,2.662,0,0,0,2.686,1.938,10.9,10.9,0,0,0,1.914-.08c.547-.056.8.169.8.66s-.314.571-.684.627a9.868,9.868,0,0,1-3,0,3.531,3.531,0,0,1-3.032-2.767,10.7,10.7,0,0,1-.3-3.032Z" transform="translate(-53.775 -0.534)" fill="#3f3f3f"/><path d="M175.63,76.568c.547-.177.627-.571.8-.861a7.5,7.5,0,0,1,7.086-3.024,1.522,1.522,0,0,1,.4.056c.37.113.458.394.458.74s-.257.539-.627.515a9.834,9.834,0,0,0-1.375-.056,6.346,6.346,0,0,0-5.139,2.71,8.365,8.365,0,0,0-1.729,5.131V94.946c0,.8-.145.973-.8.917-.37,0-.6-.169-.6-.571V73.7c.056-.539.4-.651.861-.627s.458.346.483.684A24.359,24.359,0,0,0,175.63,76.568Z" transform="translate(-34.075 -14.219)" fill="#3f3f3f"/><path d="M54.032,76.372l.8-1a7.56,7.56,0,0,1,6.941-2.743c.491,0,.8.225.748.8s-.458.539-.861.539c-4.826-.08-8,3.056-8,7.858V94.863c0,.515.064,1.029-.74.949-.458-.064-.66-.233-.627-.692V74.659a6.925,6.925,0,0,1,0-1.086c.064-.458.434-.539.8-.539s.515.314.491.651v1.777C53.662,75.745,53.574,76.131,54.032,76.372Z" transform="translate(-10.23 -14.2)" fill="#3f3f3f"/><path d="M99.945,13.823A1.9,1.9,0,0,0,100.95,12.8a7.442,7.442,0,0,1,7.086-3c.394,0,.853.056.8.684s-.346.651-.853.6c-5.316-.627-8.043,4.142-8.043,7.858V32.4c0,.394-.2.571-.6.571s-.66-.056-.66-.491V10.8c0-.458.29-.627.748-.6s.515.29.539.66Z" transform="translate(-19.315 -1.912)" fill="#3f3f3f"/><path d="M226.361,84.463V95.007c0,.4.113.861-.547.893-.458,0-.8-.064-.8-.66a4.818,4.818,0,0,0,0-.684V74.7a6.764,6.764,0,0,1,.056-1.086c.064-.4.4-.458.748-.434a.45.45,0,0,1,.515.491c0,.314,0,.627,0,.965C226.361,77.86,226.361,81.181,226.361,84.463Z" transform="translate(-44.036 -14.321)" fill="#3f3f3f"/><path d="M88,21.645V11.663a9.2,9.2,0,0,1,0-.941c0-.346.282-.4.6-.426a.483.483,0,0,1,.6.426,9.194,9.194,0,0,1,0,.941V32.575c0,.458-.322.491-.66.458s-.547-.088-.547-.458V31.61C88,28.3,88,24.958,88,21.645Z" transform="translate(-17.22 -2.012)" fill="#3f3f3f"/><path d="M226.769,64.189a1.166,1.166,0,0,1-1.255,1.142A1.214,1.214,0,0,1,224.34,64.1,1.158,1.158,0,0,1,225.6,63a1.126,1.126,0,0,1,1.166,1.19Z" transform="translate(-43.905 -12.329)" fill="#3f3f3f"/><path d="M88.564,0a1.343,1.343,0,0,1,1.231,1.231,1.239,1.239,0,0,1-1.231,1.182,1.118,1.118,0,0,1-1.174-1.2A1.214,1.214,0,0,1,88.564,0Z" transform="translate(-17.102)" fill="#3f3f3f"/><path d="M344.788,26.476a9.05,9.05,0,1,1,9.089-9.056C353.821,22,349.88,26.62,344.788,26.476Z" transform="translate(-65.7 -1.639)" fill="#c41a2d"/></g></svg>